<svg width="53" height="64" viewBox="0 0 53 64" fill="none" xmlns="http://www.w3.org/2000/svg">
<path d="M50.3339 20.4731C48.2228 19.3891 45.5184 20.3321 43.8945 22.0641C42.2717 23.7931 41.4953 26.1331 40.8359 28.4141C40.0855 31.0031 39.4232 33.7031 39.8334 36.3651C40.0205 37.5801 40.4158 38.8841 39.8685 39.9841C39.4273 40.8751 38.4697 41.3861 37.5172 41.6751C36.8488 41.8781 36.1555 42.0051 35.4872 42.2001C35.3251 41.4521 35.114 40.7001 35.044 39.9421C34.7938 37.3001 36.2496 34.8411 37.5333 32.5201C38.817 30.1981 40.0055 27.4991 39.2001 24.9691C38.7608 23.5801 37.7993 22.5101 36.6417 21.6051C38.1975 20.5561 38.9619 18.6991 37.0209 17.6771C36.2375 17.2671 35.19 17.4191 34.5337 16.8231C34.0804 16.4131 33.9474 15.7311 34.0644 15.1291C34.1795 14.5271 34.5047 13.9871 34.8518 13.4831C35.3731 12.7231 35.9764 11.7601 35.5242 10.9581C35.198 10.3781 34.4396 10.1861 33.7752 10.2511C32.3515 10.3901 31.1258 11.4701 30.5706 12.7881C30.1173 13.8661 30.0864 15.7801 30.4316 17.6041C29.1439 16.5551 28.1143 15.2901 27.8392 13.6801C27.3349 10.7271 29.6051 7.82108 29.0919 4.86808C28.5946 2.00008 25.3979 0.129079 22.5054 0.472079C19.6139 0.818079 17.1686 2.92508 15.6959 5.43808C12.7073 10.5421 13.4997 17.5301 17.4267 21.9171C15.6268 22.0791 13.8329 22.4891 12.111 23.0361C10.9294 23.4111 9.57072 23.8331 8.51818 23.1801C7.54667 22.5761 7.26151 21.2601 7.4296 20.1281C7.59768 18.9971 8.11785 17.9481 8.398 16.8391C8.67614 15.7311 8.66918 14.4381 7.91679 13.5771C7.22543 12.7881 6.03176 12.5651 5.02124 12.8501C4.01171 13.1371 3.17136 13.8581 2.53203 14.6881C0.7521 16.9931 0.370875 20.2971 1.5795 22.9461C2.78813 25.5951 5.53355 27.4721 8.44306 27.6381C12.5592 27.8741 16.2251 24.9991 20.2892 24.3671C22.2732 25.7341 24.4784 26.8131 26.4935 28.1521C29.2769 29.9991 31.8773 32.6801 32.1274 36.0101C32.5956 42.2681 24.8906 46.4931 24.3263 52.7431C24.1292 54.9211 24.9467 57.4871 26.2994 59.6301C25.7001 59.3071 25.0978 58.9931 24.7036 58.5811C23.3399 57.1551 23.3989 54.9241 23.627 52.9621C23.8551 51.0031 24.1193 48.8421 23.0067 47.2121C21.8431 45.5031 19.5919 44.9811 17.889 43.8131C17.903 43.6671 17.915 43.5161 17.948 43.3651C18.2552 41.8351 19.2418 40.5311 20.2953 39.3821C21.3499 38.2301 22.5114 37.1531 23.3048 35.8061C24.0972 34.4621 24.4745 32.7531 23.8282 31.3331C23.1638 29.8741 21.4029 29.0071 19.8421 29.3691C18.2783 29.7311 17.0826 31.2851 17.1296 32.8901C17.1666 34.1481 17.876 35.3371 17.773 36.5931C17.6419 38.1651 16.3071 39.3371 15.6508 40.7751C15.0465 39.1241 14.7734 37.2691 13.7789 35.8161C12.5492 34.0211 10.202 33.0751 8.06885 33.5031C5.93674 33.9351 4.14287 35.7141 3.68363 37.8391C3.22639 39.9641 4.12485 42.3181 5.87776 43.6071C8.33104 45.4131 11.8048 45.0211 14.4972 46.4411C15.936 47.2001 17.0965 48.4741 17.7149 49.9781C18.4332 51.7241 18.4173 53.6791 18.8745 55.5111C19.727 58.9251 22.4034 61.7851 25.6591 63.0661C26.7866 63.5091 28.2234 63.4661 28.2874 62.0771C28.7506 62.5151 29.2359 62.9031 29.7411 63.2141C34.5937 66.1961 32.0544 57.9341 31.3321 55.9951C30.6677 54.2081 30.2125 52.1611 31.0249 50.4331C31.244 49.9701 31.5501 49.5641 31.8892 49.1791C32.4335 52.3571 35.6833 55.3061 38.3907 56.4001C39.6473 56.9091 41.1181 57.1711 42.3307 56.5681C43.5463 55.9661 44.2267 54.2341 43.3663 53.1851C42.6569 52.3181 41.3562 52.3041 40.2397 52.4001C39.1241 52.4991 37.8524 52.5791 37.039 51.8081C35.7103 50.5501 36.2806 48.4431 34.8549 47.2281C35.9184 47.1771 36.9899 46.9911 37.5432 46.9521C39.2991 46.8291 41.0961 46.5191 42.5789 45.5771C44.0607 44.6351 45.1703 42.9351 44.9852 41.1871C44.7691 39.1461 42.905 37.4371 43.1071 35.3961C43.2472 33.9991 44.3477 32.8741 45.5574 32.1591C46.767 31.4431 48.1298 31.0131 49.3334 30.2901C51.0493 29.2531 52.421 27.5381 52.7261 25.5591C53.0393 23.5811 52.1188 21.3871 50.3339 20.4731Z" fill="#65CCE5"/>
</svg>
