<svg width="1920" height="186" viewBox="0 0 1920 186" fill="none" xmlns="http://www.w3.org/2000/svg">
<path d="M707.368 144.348C638.594 137.427 593.261 98.9511 487.587 71.2861C403.543 49.2861 292.818 111.952 187.431 77.2861C123.175 56.1501 119.365 34.7861 86.0448 20.5001C52.7245 6.21309 27.7875 12.2501 0 28.9021V186H1920V2.60708C1879.73 -2.24992 1881.18 0.26108 1838.29 24.3331C1795.4 48.4021 1725.56 -10.8319 1670.2 12.5181C1614.84 35.8691 1637.35 42.7441 1572.82 67.2441C1504.78 93.2751 1461.09 44.4171 1393.73 89.8151C1355.04 115.149 1364.71 129.347 1285.67 145.347C1183.62 155.347 1119.58 96.4421 1014.53 99.3471C918.85 101.995 829.099 150.846 707.368 144.348Z" fill="url(#paint0_linear_181_1663)"/>
<defs>
<linearGradient id="paint0_linear_181_1663" x1="960" y1="182.58" x2="960" y2="61.0866" gradientUnits="userSpaceOnUse">
<stop stop-color="#BEE4F2"/>
<stop offset="1" stop-color="#00B2D6"/>
</linearGradient>
</defs>
</svg>
