<svg width="102" height="89" viewBox="0 0 102 89" fill="none" xmlns="http://www.w3.org/2000/svg">
<path d="M46.0651 45.9541C48.0291 45.9541 49.9961 45.7151 51.9071 45.2251C52.5575 45.0581 52.9508 44.3981 52.7847 43.7461C52.6176 43.0951 51.9522 42.7011 51.3049 42.8681C45.2557 44.4161 38.6052 43.1811 33.5156 39.5621C28.4259 35.9431 25.0752 30.0681 24.556 23.8461C24.4989 23.1761 23.9187 22.6761 23.2423 22.7361C22.573 22.7931 22.0746 23.3821 22.1306 24.0491C22.7109 30.9731 26.4409 37.5131 32.1048 41.5421C36.1589 44.4291 41.1075 45.9541 46.0651 45.9541Z" fill="#65CCE5"/>
<path d="M51.2458 23.305C51.3919 23.305 51.545 23.279 51.688 23.221C55.7502 21.623 59.1469 18.449 61.0109 14.501C62.8739 10.559 63.175 5.918 61.8283 1.768C61.6212 1.127 60.9349 0.782979 60.2986 0.984979C59.6563 1.19198 59.308 1.87898 59.5151 2.51598C60.6707 6.08298 60.4116 10.076 58.8098 13.461C57.208 16.852 54.2864 19.584 50.7976 20.955C50.1722 21.201 49.8621 21.907 50.1092 22.533C50.3013 23.012 50.7605 23.305 51.2458 23.305Z" fill="#65CCE5"/>
<path d="M48.0201 88.717C48.3332 88.717 48.6425 88.598 48.8806 88.363C49.3559 87.887 49.3578 87.119 48.8826 86.638C46.1121 83.866 46.7374 78.918 48.9055 75.928C51.4909 72.365 55.8581 70.447 59.375 69.169C60.3325 68.822 61.302 68.495 62.2705 68.167C65.5502 67.058 68.9421 65.909 71.9606 63.988C76.3649 61.18 79.7927 56.812 81.6117 51.679C83.3215 46.862 83.5857 41.325 82.3561 36.095C82.203 35.443 81.5466 35.035 80.8923 35.191C80.2379 35.345 79.8297 36.001 79.9858 36.655C81.1104 41.433 80.8732 46.483 79.3174 50.869C77.6785 55.491 74.601 59.422 70.652 61.933C67.8815 63.699 64.7768 64.747 61.4901 65.863C60.5066 66.195 59.5211 66.53 58.5496 66.883C54.7066 68.278 49.9131 70.404 46.9395 74.5C44.1271 78.381 43.4407 84.623 47.1646 88.356C47.3968 88.597 47.7079 88.717 48.0201 88.717Z" fill="#65CCE5"/>
<path d="M43.757 88.7451C44.0441 88.7451 44.3303 88.6431 44.5624 88.4401C45.0667 87.9951 45.1147 87.2241 44.6684 86.7211C41.7359 83.4081 37.3777 81.8791 33.9059 80.9161C33.1015 80.6931 32.2971 80.4841 31.4876 80.2761C28.4821 79.5001 25.6466 78.7641 23.0863 77.3561C18.5209 74.8411 14.898 69.9951 13.1491 64.0551C11.7414 59.2741 11.4092 53.7511 12.1066 46.6831C12.1696 46.0151 11.6833 45.4201 11.014 45.3561C10.3326 45.2931 9.74634 45.7791 9.68331 46.4471C8.95393 53.8371 9.31412 59.6501 10.8139 64.7441C12.7429 71.2931 16.7869 76.6661 21.9116 79.4871C24.7401 81.0451 27.8607 81.8491 30.8793 82.6311C31.6737 82.8361 32.4681 83.0431 33.2555 83.2601C36.4032 84.1331 40.3392 85.4971 42.8445 88.3311C43.0836 88.6051 43.4188 88.7451 43.757 88.7451Z" fill="#65CCE5"/>
<path d="M77.1133 58.3772C77.6126 58.3772 78.0808 58.0672 78.2589 57.5702C78.4881 56.9372 78.156 56.2422 77.5257 56.0122C71.4845 53.8472 67.0802 47.6192 67.0512 41.2032C67.0492 40.5322 66.5029 39.9912 65.8345 39.9912C65.8305 39.9912 65.8295 39.9912 65.8275 39.9912C65.1552 39.9942 64.6129 40.5422 64.6149 41.2122C64.6469 48.6162 69.7296 55.8042 76.7022 58.3032C76.8373 58.3532 76.9763 58.3772 77.1133 58.3772Z" fill="#65CCE5"/>
<path d="M79.1005 76.7901C79.6638 76.7901 80.165 76.3991 80.2891 75.8271C80.4322 75.1701 80.0129 74.5231 79.3535 74.3831C76.331 73.7371 73.2044 73.0691 70.3739 71.8261C68.2408 70.8911 65.3352 69.1811 63.5903 66.3471C63.2361 65.7751 62.4858 65.5941 61.9155 65.9491C61.3432 66.3011 61.1631 67.0501 61.5153 67.6231C63.1601 70.2941 65.8846 72.5191 69.3984 74.0581C72.454 75.4001 75.7017 76.0911 78.8423 76.7651C78.9293 76.7801 79.0164 76.7901 79.1005 76.7901Z" fill="#65CCE5"/>
<path d="M12.5097 65.2782C12.5297 65.2782 12.5448 65.2772 12.5648 65.2772C15.8895 65.1322 19.1301 63.5052 21.2222 60.9172C23.3203 58.3322 24.2408 54.8272 23.6856 51.5452C23.5775 50.8822 22.9521 50.4402 22.2858 50.5472C21.6224 50.6582 21.1752 51.2862 21.2872 51.9482C21.7254 54.5522 20.9961 57.3342 19.3332 59.3862C17.6703 61.4402 15.1021 62.7362 12.4617 62.8452C11.7903 62.8742 11.27 63.4442 11.297 64.1152C11.321 64.7692 11.8604 65.2782 12.5097 65.2782Z" fill="#65CCE5"/>
<path d="M14.1946 80.9191C16.5668 80.9191 18.9421 80.5341 21.2113 79.7601C21.8476 79.5441 22.1867 78.8531 21.9696 78.2151C21.7515 77.5811 21.0582 77.2401 20.4239 77.4571C15.6134 79.1021 10.0314 78.7181 5.49107 76.4331C4.88976 76.1311 4.15837 76.3741 3.85521 76.9731C3.55105 77.5761 3.79322 78.3031 4.39553 78.6091C7.44412 80.1411 10.8158 80.9191 14.1946 80.9191Z" fill="#65CCE5"/>
<path d="M32.5242 40.7581C32.8504 40.7581 33.1755 40.6281 33.4176 40.3701C35.5207 38.1101 36.7974 35.1711 37.0156 32.0931C37.2317 29.0161 36.3802 25.9241 34.6162 23.3931C34.232 22.8401 33.4726 22.7051 32.9233 23.0891C32.3721 23.4731 32.235 24.2321 32.6192 24.7821C34.065 26.8591 34.7663 29.3931 34.5892 31.9221C34.4102 34.4471 33.3606 36.8601 31.6387 38.7141C31.1805 39.2051 31.2085 39.9761 31.7018 40.4331C31.9309 40.6501 32.2271 40.7581 32.5242 40.7581Z" fill="#65CCE5"/>
<path d="M60.7038 13.451C61.198 13.451 61.6634 13.148 61.8474 12.658C62.0796 12.027 61.7594 11.329 61.1291 11.095C58.1985 10.006 55.5602 8.02903 53.6912 5.52503C53.291 4.98603 52.5276 4.87603 51.9883 5.27503C51.45 5.67503 51.34 6.43904 51.7382 6.97804C53.8843 9.85504 56.9158 12.125 60.2806 13.374C60.4197 13.427 60.5617 13.451 60.7038 13.451Z" fill="#65CCE5"/>
<path d="M41.6398 12.6731C42.024 12.6731 42.4012 12.4931 42.6384 12.1561C44.7955 9.08509 46.0822 5.48208 46.3583 1.74008C46.4103 1.07008 45.9061 0.486097 45.2337 0.437097C44.5564 0.374097 43.9801 0.890083 43.9301 1.56008C43.6869 4.86608 42.5512 8.04409 40.6462 10.7551C40.26 11.3061 40.3921 12.0641 40.9424 12.4491C41.1545 12.6021 41.3987 12.6731 41.6398 12.6731Z" fill="#65CCE5"/>
<path d="M55.0849 34.879C55.0989 34.879 55.1119 34.8791 55.129 34.8771C61.042 34.6691 66.6539 31.157 69.4184 25.93C69.7325 25.335 69.5074 24.6001 68.9121 24.2851C68.3168 23.9701 67.5804 24.198 67.2663 24.791C64.899 29.264 60.1006 32.2681 55.0399 32.4451C54.3656 32.4671 53.8422 33.0321 53.8652 33.7041C53.8922 34.3611 54.4325 34.879 55.0849 34.879Z" fill="#65CCE5"/>
<path d="M68.4138 49.9831C68.769 49.9831 69.1212 49.8291 69.3614 49.5311C71.1333 47.3411 72.7662 45.0021 74.2219 42.5801C74.5691 42.0041 74.381 41.2561 73.8067 40.9101C73.2274 40.5651 72.4829 40.7511 72.1358 41.3271C70.737 43.6531 69.1642 45.8991 67.4673 48.0031C67.0451 48.5251 67.1271 49.2921 67.6494 49.7131C67.8745 49.8961 68.1447 49.9831 68.4138 49.9831Z" fill="#65CCE5"/>
<path d="M73.3654 75.4418C73.7566 75.4418 74.1398 75.2538 74.3749 74.9098L77.0183 71.0178C77.3955 70.4618 77.2484 69.7058 76.6941 69.3298C76.1378 68.9528 75.3804 69.0978 75.0052 69.6548L72.3629 73.5438C71.9847 74.1008 72.1308 74.8568 72.6851 75.2328C72.8922 75.3758 73.1302 75.4418 73.3654 75.4418Z" fill="#65CCE5"/>
<path d="M82.6732 53.3312C89.5578 53.3312 96.3374 50.2252 100.778 44.9262C101.21 44.4112 101.14 43.6442 100.628 43.2122C100.113 42.7812 99.344 42.8482 98.9118 43.3632C94.5075 48.6212 87.5268 51.4672 80.7013 50.8012C80.0279 50.7382 79.4366 51.2242 79.3706 51.8932C79.3076 52.5612 79.7937 53.1602 80.4641 53.2222C81.1965 53.2942 81.9348 53.3312 82.6732 53.3312Z" fill="#65CCE5"/>
<path d="M53.1128 71.9179C53.3079 71.9179 53.508 71.8709 53.6891 71.7719C54.2804 71.4539 54.5025 70.7129 54.1814 70.1239C52.1433 66.3469 51.8371 61.6979 53.3599 57.6859C53.598 57.0569 53.2819 56.3569 52.6536 56.1189C52.0233 55.8819 51.3229 56.1969 51.0858 56.8249C49.3138 61.4879 49.6731 66.8899 52.0433 71.2819C52.2604 71.6879 52.6796 71.9179 53.1128 71.9179Z" fill="#65CCE5"/>
<path d="M39.3016 62.7612C39.8229 62.7612 40.3021 62.4242 40.4632 61.9052C40.6623 61.2612 40.3021 60.5832 39.6598 60.3842C34.8493 58.9012 31.1084 54.1782 30.7592 49.1592C30.7122 48.4892 30.1299 47.9892 29.4615 48.0302C28.7902 48.0762 28.2839 48.6562 28.3299 49.3272C28.7512 55.4062 33.1135 60.9092 38.9385 62.7082C39.0615 62.7432 39.1825 62.7612 39.3016 62.7612Z" fill="#65CCE5"/>
<path d="M28.8972 81.6579C29.2184 81.6579 29.5426 81.5319 29.7817 81.2799C33.4466 77.4259 35.0734 71.7909 34.0268 66.5759C33.8918 65.9169 33.2555 65.4889 32.5912 65.6219C31.9308 65.7539 31.5056 66.3929 31.6377 67.0549C32.5331 71.5049 31.1424 76.3169 28.0158 79.6069C27.5505 80.0909 27.5725 80.8629 28.0588 81.3269C28.2929 81.5469 28.5951 81.6579 28.8972 81.6579Z" fill="#65CCE5"/>
<path d="M32.6952 57.65C32.8763 57.65 33.0593 57.609 33.2344 57.524C35.9038 56.201 38.107 54.003 39.4397 51.34C39.7438 50.738 39.5007 50.008 38.8964 49.707C38.2941 49.403 37.5636 49.647 37.2645 50.25C36.1639 52.443 34.349 54.252 32.1529 55.341C31.5486 55.641 31.3025 56.369 31.6006 56.972C31.8167 57.402 32.2469 57.65 32.6952 57.65Z" fill="#65CCE5"/>
<path d="M25.5475 33.7952C26.1778 33.7952 26.7131 33.3092 26.7601 32.6672C26.8102 31.9992 26.3059 31.4142 25.6355 31.3652C22.0407 31.0962 18.6349 29.3732 16.2917 26.6322C15.8554 26.1212 15.0861 26.0642 14.5768 26.4972C14.0655 26.9342 14.0055 27.7022 14.4407 28.2132C17.2022 31.4432 21.2152 33.4772 25.4554 33.7912C25.4864 33.7932 25.5175 33.7952 25.5475 33.7952Z" fill="#65CCE5"/>
<path d="M49.6459 29.8911C50.9486 29.8911 52.2473 29.7661 53.5229 29.5121C54.1813 29.3791 54.6096 28.7411 54.4775 28.0811C54.3465 27.4211 53.7061 26.9921 53.0458 27.1251C48.8016 27.9711 44.2321 27.1891 40.5152 24.9801C39.9389 24.6321 39.1925 24.8251 38.8483 25.4041C38.5051 25.9801 38.6943 26.7281 39.2726 27.0711C42.3842 28.9201 46.02 29.8911 49.6459 29.8911Z" fill="#65CCE5"/>
<path d="M10.6777 56.701C11.336 56.701 11.8784 56.176 11.8944 55.513C11.9134 54.84 11.3791 54.284 10.7068 54.267C7.5241 54.193 4.44649 52.086 3.22386 49.152C2.96572 48.532 2.25338 48.237 1.63306 48.495C1.01174 48.754 0.718532 49.466 0.978667 50.086C2.56049 53.884 6.53755 56.604 10.6507 56.701C10.6587 56.701 10.6677 56.701 10.6777 56.701Z" fill="#65CCE5"/>
<path d="M92.8275 51.019C92.9405 51.019 93.0566 51.003 93.1716 50.969C93.818 50.781 94.1891 50.106 93.996 49.459C93.1446 46.563 93.0306 43.472 93.6649 40.522C93.808 39.865 93.3888 39.216 92.7324 39.077C92.0761 38.934 91.4257 39.35 91.2856 40.01C90.5663 43.359 90.6953 46.863 91.6608 50.145C91.8159 50.675 92.3022 51.019 92.8275 51.019Z" fill="#65CCE5"/>
<path d="M49.2187 88.62C49.762 88.62 50.2563 88.2561 50.3963 87.7071C50.5644 87.0551 50.1712 86.3931 49.5209 86.2241C43.1075 84.5811 38.262 78.3501 38.253 71.7331C38.243 65.1291 42.3182 59.6451 46.6374 53.8381C50.7456 48.3101 54.9958 42.593 55.5741 35.692C56.0573 29.924 53.8402 23.791 49.3218 18.413C45.4238 13.767 40.4602 10.289 35.2875 6.84005C34.7272 6.46505 33.9728 6.61806 33.5986 7.17806C33.2264 7.73706 33.3766 8.49105 33.9359 8.86605C38.9585 12.212 43.7649 15.579 47.4599 19.977C51.56 24.861 53.579 30.371 53.1508 35.49C52.6305 41.703 48.7715 46.8921 44.6844 52.3901C40.3211 58.2581 35.8098 64.3281 35.8228 71.7381C35.8348 79.4281 41.4648 86.676 48.9186 88.585C49.0177 88.608 49.1177 88.62 49.2187 88.62Z" fill="#65CCE5"/>
</svg>
