<svg width="57" height="66" viewBox="0 0 57 66" fill="none" xmlns="http://www.w3.org/2000/svg">
<path d="M23.8314 65.4379C22.0774 65.0999 20.4126 64.3319 18.9789 63.2639C17.5561 62.1819 16.3645 60.8199 15.428 59.2979C14.4955 57.7749 13.8452 56.0749 13.491 54.2979C13.1298 52.5029 13.1488 50.6939 13.3849 48.9089C13.8842 45.3399 15.399 41.9959 17.4761 39.1219C19.5722 36.1579 22.3436 34.0249 23.8904 31.6839C24.6718 30.5279 25.086 29.371 25.109 28.252C25.141 27.13 24.7528 25.9509 24.0915 24.8439C23.4312 23.7389 22.4957 22.7119 21.4281 21.8779C20.3336 21.0199 19.0479 20.2569 17.6582 19.5309C16.2684 18.7999 14.7716 18.0909 13.2278 17.2629C11.677 16.4389 10.0912 15.445 8.64547 14.351C5.73095 12.148 3.16059 9.47394 1.0735 6.41394L1.05851 6.39294C-0.0430622 4.77794 0.37314 2.57994 1.98798 1.47894C3.60182 0.374942 5.80398 0.790943 6.90555 2.40794C6.95057 2.47494 6.99859 2.55193 7.03862 2.61993C8.50638 5.13593 10.4174 7.43395 12.6505 9.38095C13.7781 10.36 14.9427 11.2169 16.2564 12.0409C17.5731 12.8699 19.0149 13.6809 20.4926 14.5909C21.9724 15.5029 23.4872 16.5269 24.9099 17.8139C26.3527 19.1269 27.5883 20.667 28.4998 22.4669C29.4013 24.254 29.9836 26.3779 29.7635 28.5699C29.5594 30.7629 28.5578 32.7399 27.3822 34.2279C26.2006 35.7319 24.8869 36.9129 23.6643 38.0209C22.4226 39.1339 21.3281 40.1539 20.3546 41.3369C18.3966 43.6789 16.9138 46.4509 16.2884 49.4059C15.9873 50.8739 15.8662 52.414 16.0593 53.881C16.2494 55.36 16.6917 56.8349 17.394 58.1849C18.1004 59.5319 19.0359 60.7649 20.1795 61.769C21.3341 62.755 22.6918 63.506 24.1655 63.903L24.1826 63.907C24.6018 64.017 24.8499 64.4509 24.7378 64.8699C24.6318 65.2699 24.2316 65.5139 23.8314 65.4379Z" fill="#65CCE5"/>
<path d="M25.5783 65.7569C21.5752 65.4449 17.5401 64.523 13.7961 62.66C11.9292 61.727 10.1542 60.541 8.5524 59.109C6.95557 57.68 5.55585 55.906 4.4953 53.98C2.39821 50.127 1.42769 45.407 2.64732 40.709C2.7994 40.129 3.00152 39.5589 3.21063 38.9859C3.45776 38.4329 3.68887 37.845 3.97602 37.337C4.53431 36.286 5.13164 35.399 5.66091 34.571C6.19619 33.749 6.64743 33.009 6.9676 32.341C7.28976 31.673 7.43584 31.1119 7.48086 30.6279C7.66096 28.6609 9.40085 27.214 11.3689 27.397C13.3359 27.577 14.7847 29.3149 14.6046 31.2829C14.5886 31.4489 14.5625 31.61 14.5265 31.768L14.4765 31.9729C14.1313 33.4159 13.508 34.69 12.8446 35.717C12.1793 36.747 11.4789 37.608 10.8506 38.366C10.2223 39.128 9.64199 39.8139 9.19776 40.4559C8.95864 40.773 8.80555 41.0979 8.59744 41.4159C8.43136 41.7519 8.25627 42.0899 8.1152 42.4429C6.95759 45.2899 7.12168 48.894 8.41235 52.092C9.07169 53.699 9.96015 55.183 11.1458 56.531C12.3284 57.87 13.7181 59.069 15.2649 60.087C18.3655 62.119 22.0094 63.4519 25.7854 64.1919L25.7914 64.194C26.2186 64.276 26.4968 64.6919 26.4117 65.1189C26.3337 65.5199 25.9715 65.7869 25.5783 65.7569Z" fill="#65CCE5"/>
<path d="M23.7803 65.3588C22.6007 64.3958 21.6102 63.2048 20.8508 61.8788C20.1094 60.5428 19.5911 59.0778 19.334 57.5568C19.0949 56.0338 19.1059 54.4528 19.4281 52.9038C19.7732 51.3518 20.4216 49.9248 21.198 48.5808C22.8428 45.9518 25.047 43.8828 27.1901 41.9758C29.3392 40.0798 31.4784 38.2918 33.1802 36.3278C34.8911 34.3668 35.9527 32.1928 36.1958 29.9318C36.4119 27.6448 35.8026 25.2098 34.7961 22.8458C34.2908 21.6618 33.6895 20.4888 33.0301 19.3228C32.3618 18.1408 31.6324 16.9418 30.904 15.6938C29.4523 13.2098 27.9485 10.5008 27.022 7.32082L27.016 7.29982C26.5238 5.60982 27.4943 3.84282 29.1852 3.34982C30.875 2.85982 32.644 3.82882 33.1362 5.51782C33.1572 5.59282 33.1782 5.67582 33.1942 5.75282C33.6845 8.07382 34.7471 10.4728 35.9827 12.9568C36.598 14.2038 37.2523 15.4748 37.8867 16.8088C38.527 18.1598 39.1253 19.5528 39.6286 21.0138C40.6221 23.9148 41.2815 27.1978 40.7232 30.5538C40.1459 33.9188 38.2669 36.8848 36.0967 39.0218C33.9206 41.1958 31.5534 42.8768 29.3342 44.5818C27.1271 46.2758 25.041 48.0188 23.5172 50.1038C22.8078 51.1628 22.1905 52.2998 21.8293 53.4998C21.4872 54.7058 21.3811 55.9968 21.4882 57.2798C21.6132 58.5618 21.9614 59.8348 22.5107 61.0188C23.077 62.1938 23.8514 63.2728 24.8049 64.1728L24.8179 64.1848C25.1341 64.4848 25.148 64.9798 24.8499 65.2958C24.5657 65.5918 24.0975 65.6168 23.7803 65.3588Z" fill="#65CCE5"/>
<path d="M25.1581 64.8089C24.2276 63.9569 23.5842 62.7809 23.3451 61.5519C23.075 60.3219 23.167 59.0609 23.4602 57.8609C23.7813 56.6729 24.3286 55.5039 25.142 54.5179C25.9174 53.5519 26.861 52.7409 27.8655 52.0719C29.8845 50.7359 32.1077 49.9379 34.2488 49.3009C36.3799 48.6669 38.435 48.1519 40.2289 47.4079C42.0338 46.6709 43.4766 45.7089 44.7082 44.3829C45.9419 43.0819 46.9004 41.4929 47.6218 39.7919C48.3291 38.0759 48.7904 36.2549 49.0075 34.3959C49.2306 32.5079 49.2396 30.5659 49.1095 28.5829C48.9745 26.5169 50.5413 24.7309 52.6084 24.5969C54.6774 24.4609 56.4644 26.0269 56.5984 28.0949C56.6074 28.2399 56.6094 28.3809 56.6024 28.5209L56.6004 28.5579C56.4854 30.8859 56.2072 33.2649 55.6479 35.6209C55.0827 38.0019 54.2042 40.3169 53.0026 42.4739C51.7859 44.6199 50.2381 46.6219 48.2931 48.2479C46.3901 49.8939 43.9738 51.0819 41.6897 51.6989C39.3955 52.3449 37.1933 52.6199 35.1323 52.9899C33.0882 53.3479 31.1322 53.8309 29.4263 54.6969C28.5778 55.1299 27.8014 55.6579 27.1441 56.3049C26.4978 56.9129 26.0145 57.6969 25.6673 58.5509C25.004 60.2579 25.058 62.3239 26.2646 63.6949L26.2786 63.7119C26.5658 64.0389 26.5338 64.5349 26.2076 64.8199C25.9054 65.0839 25.4502 65.0729 25.1581 64.8089Z" fill="#65CCE5"/>
</svg>
