<svg width="39" height="33" viewBox="0 0 39 33" fill="none" xmlns="http://www.w3.org/2000/svg">
<path d="M17.9539 20.4761C17.3666 16.4791 15.5676 12.7591 13.5105 9.2861C12.8241 8.1261 12.0768 6.83311 12.3599 5.51511C12.6961 3.93311 14.3359 3.04108 15.8007 2.36108C18.29 1.20008 21.2856 0.0510786 23.6478 1.45508C25.6218 2.62508 26.3052 5.12709 26.5773 7.40509C27.2317 12.9441 26.4142 18.6391 24.2841 23.7931C23.2376 26.3261 21.8659 29.2821 19.8468 31.1981C18.0769 32.8781 17.3015 31.4271 17.2625 29.4051C17.2034 26.3541 18.4181 23.6391 17.9539 20.4761Z" fill="#65CCE5"/>
<path d="M12.5741 23.991C11.3695 21.178 11.0553 18.066 11.0083 15.009C10.9913 13.988 10.9613 12.861 10.2579 12.118C9.41445 11.231 8.00271 11.304 6.78508 11.444C4.719 11.677 2.33177 12.127 1.36227 13.965C0.552848 15.5 1.10315 17.386 1.83053 18.962C3.60245 22.798 6.3889 26.15 9.80368 28.631C11.4856 29.851 13.5406 31.217 15.6007 31.655C17.4106 32.039 17.3336 30.795 16.5582 29.472C15.3876 27.487 13.5286 26.216 12.5741 23.991Z" fill="#65CCE5"/>
<path d="M27.2978 24.38C28.5024 21.567 28.8165 18.456 28.8625 15.399C28.8806 14.378 28.9106 13.25 29.6129 12.508C30.4574 11.621 31.8692 11.695 33.0868 11.833C35.1529 12.07 37.5421 12.516 38.5096 14.354C39.319 15.891 38.7698 17.78 38.0424 19.353C36.2704 23.188 33.482 26.541 30.0682 29.024C28.3863 30.245 26.3313 31.61 24.2722 32.046C22.4623 32.429 22.5383 31.184 23.3127 29.866C24.4843 27.878 26.3443 26.606 27.2978 24.38Z" fill="#65CCE5"/>
</svg>
