<svg width="1920" height="228" viewBox="0 0 1920 228" fill="none" xmlns="http://www.w3.org/2000/svg">
<path d="M1881.33 20.4731C1879.22 19.3891 1876.52 20.3321 1874.89 22.0641C1873.27 23.7931 1872.5 26.1331 1871.84 28.4141C1871.09 31.0031 1870.42 33.7031 1870.83 36.3651C1871.02 37.5801 1871.42 38.8841 1870.87 39.9841C1870.43 40.8751 1869.47 41.3861 1868.52 41.6751C1867.85 41.8781 1867.16 42.0051 1866.49 42.2001C1866.33 41.4521 1866.11 40.7001 1866.04 39.9421C1865.79 37.3001 1867.25 34.8411 1868.53 32.5201C1869.82 30.1981 1871.01 27.4991 1870.2 24.9691C1869.76 23.5801 1868.8 22.5101 1867.64 21.6051C1869.2 20.5561 1869.96 18.6991 1868.02 17.6771C1867.24 17.2671 1866.19 17.4191 1865.53 16.8231C1865.08 16.4131 1864.95 15.7311 1865.06 15.1291C1865.18 14.5271 1865.5 13.9871 1865.85 13.4831C1866.37 12.7231 1866.98 11.7601 1866.52 10.9581C1866.2 10.3781 1865.44 10.1861 1864.78 10.2511C1863.35 10.3901 1862.13 11.4701 1861.57 12.7881C1861.12 13.8661 1861.09 15.7801 1861.43 17.6041C1860.14 16.5551 1859.11 15.2901 1858.84 13.6801C1858.33 10.7271 1860.61 7.82108 1860.09 4.86808C1859.59 2.00008 1856.4 0.129079 1853.51 0.472079C1850.61 0.818079 1848.17 2.92508 1846.7 5.43808C1843.71 10.5421 1844.5 17.5301 1848.43 21.9171C1846.63 22.0791 1844.83 22.4891 1843.11 23.0361C1841.93 23.4111 1840.57 23.8331 1839.52 23.1801C1838.55 22.5761 1838.26 21.2601 1838.43 20.1281C1838.6 18.9971 1839.12 17.9481 1839.4 16.8391C1839.68 15.7311 1839.67 14.4381 1838.92 13.5771C1838.23 12.7881 1837.03 12.5651 1836.02 12.8501C1835.01 13.1371 1834.17 13.8581 1833.53 14.6881C1831.75 16.9931 1831.37 20.2971 1832.58 22.9461C1833.79 25.5951 1836.53 27.4721 1839.44 27.6381C1843.56 27.8741 1847.23 24.9991 1851.29 24.3671C1853.27 25.7341 1855.48 26.8131 1857.49 28.1521C1860.28 29.9991 1862.88 32.6801 1863.13 36.0101C1863.6 42.2681 1855.89 46.4931 1855.33 52.7431C1855.13 54.9211 1855.95 57.4871 1857.3 59.6301C1856.7 59.3071 1856.1 58.9931 1855.7 58.5811C1854.34 57.1551 1854.4 54.9241 1854.63 52.9621C1854.86 51.0031 1855.12 48.8421 1854.01 47.2121C1852.84 45.5031 1850.59 44.9811 1848.89 43.8131C1848.9 43.6671 1848.91 43.5161 1848.95 43.3651C1849.26 41.8351 1850.24 40.5311 1851.3 39.3821C1852.35 38.2301 1853.51 37.1531 1854.3 35.8061C1855.1 34.4621 1855.47 32.7531 1854.83 31.3331C1854.16 29.8741 1852.4 29.0071 1850.84 29.3691C1849.28 29.7311 1848.08 31.2851 1848.13 32.8901C1848.17 34.1481 1848.88 35.3371 1848.77 36.5931C1848.64 38.1651 1847.31 39.3371 1846.65 40.7751C1846.05 39.1241 1845.77 37.2691 1844.78 35.8161C1843.55 34.0211 1841.2 33.0751 1839.07 33.5031C1836.94 33.9351 1835.14 35.7141 1834.68 37.8391C1834.23 39.9641 1835.12 42.3181 1836.88 43.6071C1839.33 45.4131 1842.8 45.0211 1845.5 46.4411C1846.94 47.2001 1848.1 48.4741 1848.71 49.9781C1849.43 51.7241 1849.42 53.6791 1849.87 55.5111C1850.73 58.9251 1853.4 61.7851 1856.66 63.0661C1857.79 63.5091 1859.22 63.4661 1859.29 62.0771C1859.75 62.5151 1860.24 62.9031 1860.74 63.2141C1865.59 66.1961 1863.05 57.9341 1862.33 55.9951C1861.67 54.2081 1861.21 52.1611 1862.02 50.4331C1862.24 49.9701 1862.55 49.5641 1862.89 49.1791C1863.43 52.3571 1866.68 55.3061 1869.39 56.4001C1870.65 56.9091 1872.12 57.1711 1873.33 56.5681C1874.55 55.9661 1875.23 54.2341 1874.37 53.1851C1873.66 52.3181 1872.36 52.3041 1871.24 52.4001C1870.12 52.4991 1868.85 52.5791 1868.04 51.8081C1866.71 50.5501 1867.28 48.4431 1865.85 47.2281C1866.92 47.1771 1867.99 46.9911 1868.54 46.9521C1870.3 46.8291 1872.1 46.5191 1873.58 45.5771C1875.06 44.6351 1876.17 42.9351 1875.99 41.1871C1875.77 39.1461 1873.91 37.4371 1874.11 35.3961C1874.25 33.9991 1875.35 32.8741 1876.56 32.1591C1877.77 31.4431 1879.13 31.0131 1880.33 30.2901C1882.05 29.2531 1883.42 27.5381 1883.73 25.5591C1884.04 23.5811 1883.12 21.3871 1881.33 20.4731Z" fill="#65CCE5"/>
<path d="M357.831 130.438C356.077 130.1 354.413 129.332 352.979 128.264C351.556 127.182 350.364 125.82 349.428 124.298C348.496 122.775 347.845 121.075 347.491 119.298C347.13 117.503 347.149 115.694 347.385 113.909C347.884 110.34 349.399 106.996 351.476 104.122C353.572 101.158 356.344 99.0249 357.89 96.6839C358.672 95.5279 359.086 94.371 359.109 93.252C359.141 92.13 358.753 90.9509 358.092 89.8439C357.431 88.7389 356.496 87.7119 355.428 86.8779C354.334 86.0199 353.048 85.2569 351.658 84.5309C350.268 83.7999 348.772 83.0909 347.228 82.2629C345.677 81.4389 344.091 80.445 342.645 79.351C339.731 77.148 337.161 74.4739 335.074 71.4139L335.059 71.3929C333.957 69.7779 334.373 67.5799 335.988 66.4789C337.602 65.3749 339.804 65.7909 340.906 67.4079C340.951 67.4749 340.999 67.5519 341.039 67.6199C342.506 70.1359 344.417 72.4339 346.651 74.3809C347.778 75.36 348.943 76.2169 350.256 77.0409C351.573 77.8699 353.015 78.6809 354.493 79.5909C355.972 80.5029 357.487 81.5269 358.91 82.8139C360.353 84.1269 361.588 85.667 362.5 87.4669C363.401 89.254 363.984 91.3779 363.763 93.5699C363.559 95.7629 362.558 97.7399 361.382 99.2279C360.201 100.732 358.887 101.913 357.664 103.021C356.423 104.134 355.328 105.154 354.355 106.337C352.397 108.679 350.914 111.451 350.288 114.406C349.987 115.874 349.866 117.414 350.059 118.881C350.249 120.36 350.692 121.835 351.394 123.185C352.1 124.532 353.036 125.765 354.179 126.769C355.334 127.755 356.692 128.506 358.166 128.903L358.183 128.907C358.602 129.017 358.85 129.451 358.738 129.87C358.632 130.27 358.232 130.514 357.831 130.438Z" fill="#65CCE5"/>
<path d="M359.578 130.757C355.575 130.445 351.54 129.523 347.796 127.66C345.929 126.727 344.154 125.541 342.552 124.109C340.956 122.68 339.556 120.906 338.495 118.98C336.398 115.127 335.428 110.407 336.647 105.709C336.799 105.129 337.002 104.559 337.211 103.986C337.458 103.433 337.689 102.845 337.976 102.337C338.534 101.286 339.132 100.399 339.661 99.571C340.196 98.749 340.647 98.009 340.968 97.341C341.29 96.673 341.436 96.1119 341.481 95.6279C341.661 93.6609 343.401 92.214 345.369 92.397C347.336 92.577 348.785 94.3149 348.605 96.2829C348.589 96.4489 348.563 96.61 348.527 96.768L348.477 96.9729C348.131 98.4159 347.508 99.69 346.845 100.717C346.179 101.747 345.479 102.608 344.851 103.366C344.222 104.128 343.642 104.814 343.198 105.456C342.959 105.773 342.806 106.098 342.597 106.416C342.431 106.752 342.256 107.09 342.115 107.443C340.958 110.29 341.122 113.894 342.412 117.092C343.072 118.699 343.96 120.183 345.146 121.531C346.328 122.87 347.718 124.069 349.265 125.087C352.366 127.119 356.009 128.452 359.785 129.192L359.791 129.194C360.219 129.276 360.497 129.692 360.412 130.119C360.334 130.52 359.971 130.787 359.578 130.757Z" fill="#65CCE5"/>
<path d="M357.78 130.359C356.601 129.396 355.61 128.205 354.851 126.879C354.109 125.543 353.591 124.078 353.334 122.557C353.095 121.034 353.106 119.453 353.428 117.904C353.773 116.352 354.422 114.925 355.198 113.581C356.843 110.952 359.047 108.883 361.19 106.976C363.339 105.08 365.478 103.292 367.18 101.328C368.891 99.3668 369.953 97.1928 370.196 94.9318C370.412 92.6448 369.803 90.2098 368.796 87.8458C368.291 86.6618 367.689 85.4888 367.03 84.3228C366.362 83.1408 365.632 81.9418 364.904 80.6938C363.452 78.2098 361.949 75.5008 361.022 72.3208L361.016 72.2998C360.524 70.6098 361.494 68.8428 363.185 68.3498C364.875 67.8598 366.644 68.8288 367.136 70.5178C367.157 70.5928 367.178 70.6758 367.194 70.7528C367.684 73.0738 368.747 75.4728 369.983 77.9568C370.598 79.2038 371.252 80.4748 371.887 81.8088C372.527 83.1598 373.125 84.5528 373.629 86.0138C374.622 88.9148 375.281 92.1978 374.723 95.5538C374.146 98.9188 372.267 101.885 370.097 104.022C367.921 106.196 365.553 107.877 363.334 109.582C361.127 111.276 359.041 113.019 357.517 115.104C356.808 116.163 356.191 117.3 355.829 118.5C355.487 119.706 355.381 120.997 355.488 122.28C355.613 123.562 355.961 124.835 356.511 126.019C357.077 127.194 357.851 128.273 358.805 129.173L358.818 129.185C359.134 129.485 359.148 129.98 358.85 130.296C358.566 130.592 358.097 130.617 357.78 130.359Z" fill="#65CCE5"/>
<path d="M359.158 129.809C358.228 128.957 357.584 127.781 357.345 126.552C357.075 125.322 357.167 124.061 357.46 122.861C357.781 121.673 358.329 120.504 359.142 119.518C359.917 118.552 360.861 117.741 361.865 117.072C363.885 115.736 366.108 114.938 368.249 114.301C370.38 113.667 372.435 113.152 374.229 112.408C376.034 111.671 377.477 110.709 378.708 109.383C379.942 108.082 380.9 106.493 381.622 104.792C382.329 103.076 382.79 101.255 383.007 99.3959C383.231 97.5079 383.24 95.5659 383.11 93.5829C382.974 91.5169 384.541 89.7309 386.608 89.5969C388.677 89.4609 390.464 91.0269 390.598 93.0949C390.607 93.2399 390.609 93.3809 390.602 93.5209L390.6 93.5579C390.485 95.8859 390.207 98.2649 389.648 100.621C389.083 103.002 388.204 105.317 387.003 107.474C385.786 109.62 384.238 111.622 382.293 113.248C380.39 114.894 377.974 116.082 375.69 116.699C373.395 117.345 371.193 117.62 369.132 117.99C367.088 118.348 365.132 118.831 363.426 119.697C362.578 120.13 361.801 120.658 361.144 121.305C360.498 121.913 360.015 122.697 359.667 123.551C359.004 125.258 359.058 127.324 360.265 128.695L360.279 128.712C360.566 129.039 360.534 129.535 360.208 129.82C359.905 130.084 359.45 130.073 359.158 129.809Z" fill="#65CCE5"/>
<path d="M642.954 161.476C642.367 157.479 640.568 153.759 638.511 150.286C637.824 149.126 637.077 147.833 637.36 146.515C637.696 144.933 639.336 144.041 640.801 143.361C643.29 142.2 646.286 141.051 648.648 142.455C650.622 143.625 651.305 146.127 651.577 148.405C652.232 153.944 651.414 159.639 649.284 164.793C648.238 167.326 646.866 170.282 644.847 172.198C643.077 173.878 642.301 172.427 642.262 170.405C642.203 167.354 643.418 164.639 642.954 161.476Z" fill="#65CCE5"/>
<path d="M637.574 164.991C636.369 162.178 636.055 159.066 636.008 156.009C635.991 154.988 635.961 153.861 635.258 153.118C634.414 152.231 633.003 152.304 631.785 152.444C629.719 152.677 627.332 153.127 626.362 154.965C625.553 156.5 626.103 158.386 626.831 159.962C628.602 163.798 631.389 167.15 634.804 169.631C636.486 170.851 638.541 172.217 640.601 172.655C642.411 173.039 642.334 171.795 641.558 170.472C640.388 168.487 638.529 167.216 637.574 164.991Z" fill="#65CCE5"/>
<path d="M652.298 165.38C653.502 162.567 653.817 159.456 653.863 156.399C653.881 155.378 653.911 154.25 654.613 153.508C655.457 152.621 656.869 152.695 658.087 152.833C660.153 153.07 662.542 153.516 663.51 155.354C664.319 156.891 663.77 158.78 663.042 160.353C661.27 164.188 658.482 167.541 655.068 170.024C653.386 171.245 651.331 172.61 649.272 173.046C647.462 173.429 647.538 172.184 648.313 170.866C649.484 168.878 651.344 167.606 652.298 165.38Z" fill="#65CCE5"/>
<path d="M1302.07 145.954C1304.03 145.954 1306 145.715 1307.91 145.225C1308.56 145.058 1308.95 144.398 1308.78 143.746C1308.62 143.095 1307.95 142.701 1307.3 142.868C1301.26 144.416 1294.61 143.181 1289.52 139.562C1284.43 135.943 1281.08 130.068 1280.56 123.846C1280.5 123.176 1279.92 122.676 1279.24 122.736C1278.57 122.793 1278.07 123.382 1278.13 124.049C1278.71 130.973 1282.44 137.513 1288.1 141.542C1292.16 144.429 1297.11 145.954 1302.07 145.954Z" fill="#65CCE5"/>
<path d="M1307.25 123.305C1307.39 123.305 1307.54 123.279 1307.69 123.221C1311.75 121.623 1315.15 118.449 1317.01 114.501C1318.87 110.559 1319.18 105.918 1317.83 101.768C1317.62 101.127 1316.93 100.783 1316.3 100.985C1315.66 101.192 1315.31 101.879 1315.52 102.516C1316.67 106.083 1316.41 110.076 1314.81 113.461C1313.21 116.852 1310.29 119.584 1306.8 120.955C1306.17 121.201 1305.86 121.907 1306.11 122.533C1306.3 123.012 1306.76 123.305 1307.25 123.305Z" fill="#65CCE5"/>
<path d="M1304.02 188.717C1304.33 188.717 1304.64 188.598 1304.88 188.363C1305.36 187.887 1305.36 187.119 1304.88 186.638C1302.11 183.866 1302.74 178.918 1304.91 175.928C1307.49 172.365 1311.86 170.447 1315.37 169.169C1316.33 168.822 1317.3 168.495 1318.27 168.167C1321.55 167.058 1324.94 165.909 1327.96 163.988C1332.36 161.18 1335.79 156.812 1337.61 151.679C1339.32 146.862 1339.59 141.325 1338.36 136.095C1338.2 135.443 1337.55 135.035 1336.89 135.191C1336.24 135.345 1335.83 136.001 1335.99 136.655C1337.11 141.433 1336.87 146.483 1335.32 150.869C1333.68 155.491 1330.6 159.422 1326.65 161.933C1323.88 163.699 1320.78 164.747 1317.49 165.863C1316.51 166.195 1315.52 166.53 1314.55 166.883C1310.71 168.278 1305.91 170.404 1302.94 174.5C1300.13 178.381 1299.44 184.623 1303.16 188.356C1303.4 188.597 1303.71 188.717 1304.02 188.717Z" fill="#65CCE5"/>
<path d="M1299.76 188.745C1300.04 188.745 1300.33 188.643 1300.56 188.44C1301.07 187.995 1301.11 187.224 1300.67 186.721C1297.74 183.408 1293.38 181.879 1289.91 180.916C1289.1 180.693 1288.3 180.484 1287.49 180.276C1284.48 179.5 1281.65 178.764 1279.09 177.356C1274.52 174.841 1270.9 169.995 1269.15 164.055C1267.74 159.274 1267.41 153.751 1268.11 146.683C1268.17 146.015 1267.68 145.42 1267.01 145.356C1266.33 145.293 1265.75 145.779 1265.68 146.447C1264.95 153.837 1265.31 159.65 1266.81 164.744C1268.74 171.293 1272.79 176.666 1277.91 179.487C1280.74 181.045 1283.86 181.849 1286.88 182.631C1287.67 182.836 1288.47 183.043 1289.26 183.26C1292.4 184.133 1296.34 185.497 1298.84 188.331C1299.08 188.605 1299.42 188.745 1299.76 188.745Z" fill="#65CCE5"/>
<path d="M1333.11 158.377C1333.61 158.377 1334.08 158.067 1334.26 157.57C1334.49 156.937 1334.16 156.242 1333.53 156.012C1327.48 153.847 1323.08 147.619 1323.05 141.203C1323.05 140.532 1322.5 139.991 1321.83 139.991C1321.83 139.991 1321.83 139.991 1321.83 139.991C1321.16 139.994 1320.61 140.542 1320.61 141.212C1320.65 148.616 1325.73 155.804 1332.7 158.303C1332.84 158.353 1332.98 158.377 1333.11 158.377Z" fill="#65CCE5"/>
<path d="M1335.1 176.79C1335.66 176.79 1336.17 176.399 1336.29 175.827C1336.43 175.17 1336.01 174.523 1335.35 174.383C1332.33 173.737 1329.2 173.069 1326.37 171.826C1324.24 170.891 1321.34 169.181 1319.59 166.347C1319.24 165.775 1318.49 165.594 1317.92 165.949C1317.34 166.301 1317.16 167.05 1317.52 167.623C1319.16 170.294 1321.88 172.519 1325.4 174.058C1328.45 175.4 1331.7 176.091 1334.84 176.765C1334.93 176.78 1335.02 176.79 1335.1 176.79Z" fill="#65CCE5"/>
<path d="M1268.51 165.278C1268.53 165.278 1268.54 165.277 1268.56 165.277C1271.89 165.132 1275.13 163.505 1277.22 160.917C1279.32 158.332 1280.24 154.827 1279.69 151.545C1279.58 150.882 1278.95 150.44 1278.29 150.547C1277.62 150.658 1277.18 151.286 1277.29 151.948C1277.73 154.552 1277 157.334 1275.33 159.386C1273.67 161.44 1271.1 162.736 1268.46 162.845C1267.79 162.874 1267.27 163.444 1267.3 164.115C1267.32 164.769 1267.86 165.278 1268.51 165.278Z" fill="#65CCE5"/>
<path d="M1270.19 180.919C1272.57 180.919 1274.94 180.534 1277.21 179.76C1277.85 179.544 1278.19 178.853 1277.97 178.215C1277.75 177.581 1277.06 177.24 1276.42 177.457C1271.61 179.102 1266.03 178.718 1261.49 176.433C1260.89 176.131 1260.16 176.374 1259.86 176.973C1259.55 177.576 1259.79 178.303 1260.4 178.609C1263.44 180.141 1266.82 180.919 1270.19 180.919Z" fill="#65CCE5"/>
<path d="M1288.52 140.758C1288.85 140.758 1289.18 140.628 1289.42 140.37C1291.52 138.11 1292.8 135.171 1293.02 132.093C1293.23 129.016 1292.38 125.924 1290.62 123.393C1290.23 122.84 1289.47 122.705 1288.92 123.089C1288.37 123.473 1288.24 124.232 1288.62 124.782C1290.06 126.859 1290.77 129.393 1290.59 131.922C1290.41 134.447 1289.36 136.86 1287.64 138.714C1287.18 139.205 1287.21 139.976 1287.7 140.433C1287.93 140.65 1288.23 140.758 1288.52 140.758Z" fill="#65CCE5"/>
<path d="M1316.7 113.451C1317.2 113.451 1317.66 113.148 1317.85 112.658C1318.08 112.027 1317.76 111.329 1317.13 111.095C1314.2 110.006 1311.56 108.029 1309.69 105.525C1309.29 104.986 1308.53 104.876 1307.99 105.275C1307.45 105.675 1307.34 106.439 1307.74 106.978C1309.88 109.855 1312.92 112.125 1316.28 113.374C1316.42 113.427 1316.56 113.451 1316.7 113.451Z" fill="#65CCE5"/>
<path d="M1297.64 112.673C1298.02 112.673 1298.4 112.493 1298.64 112.156C1300.8 109.085 1302.08 105.482 1302.36 101.74C1302.41 101.07 1301.91 100.486 1301.23 100.437C1300.56 100.374 1299.98 100.89 1299.93 101.56C1299.69 104.866 1298.55 108.044 1296.65 110.755C1296.26 111.306 1296.39 112.064 1296.94 112.449C1297.15 112.602 1297.4 112.673 1297.64 112.673Z" fill="#65CCE5"/>
<path d="M1311.08 134.879C1311.1 134.879 1311.11 134.879 1311.13 134.877C1317.04 134.669 1322.65 131.157 1325.42 125.93C1325.73 125.335 1325.51 124.6 1324.91 124.285C1324.32 123.97 1323.58 124.198 1323.27 124.791C1320.9 129.264 1316.1 132.268 1311.04 132.445C1310.37 132.467 1309.84 133.032 1309.87 133.704C1309.89 134.361 1310.43 134.879 1311.08 134.879Z" fill="#65CCE5"/>
<path d="M1324.41 149.983C1324.77 149.983 1325.12 149.829 1325.36 149.531C1327.13 147.341 1328.77 145.002 1330.22 142.58C1330.57 142.004 1330.38 141.256 1329.81 140.91C1329.23 140.565 1328.48 140.751 1328.14 141.327C1326.74 143.653 1325.16 145.899 1323.47 148.003C1323.05 148.525 1323.13 149.292 1323.65 149.713C1323.87 149.896 1324.14 149.983 1324.41 149.983Z" fill="#65CCE5"/>
<path d="M1329.37 175.442C1329.76 175.442 1330.14 175.254 1330.37 174.91L1333.02 171.018C1333.4 170.462 1333.25 169.706 1332.69 169.33C1332.14 168.953 1331.38 169.098 1331.01 169.655L1328.36 173.544C1327.98 174.101 1328.13 174.857 1328.69 175.233C1328.89 175.376 1329.13 175.442 1329.37 175.442Z" fill="#65CCE5"/>
<path d="M1338.67 153.331C1345.56 153.331 1352.34 150.225 1356.78 144.926C1357.21 144.411 1357.14 143.644 1356.63 143.212C1356.11 142.781 1355.34 142.848 1354.91 143.363C1350.51 148.621 1343.53 151.467 1336.7 150.801C1336.03 150.738 1335.44 151.224 1335.37 151.893C1335.31 152.561 1335.79 153.16 1336.46 153.222C1337.2 153.294 1337.93 153.331 1338.67 153.331Z" fill="#65CCE5"/>
<path d="M1309.11 171.918C1309.31 171.918 1309.51 171.871 1309.69 171.772C1310.28 171.454 1310.5 170.713 1310.18 170.124C1308.14 166.347 1307.84 161.698 1309.36 157.686C1309.6 157.057 1309.28 156.357 1308.65 156.119C1308.02 155.882 1307.32 156.197 1307.09 156.825C1305.31 161.488 1305.67 166.89 1308.04 171.282C1308.26 171.688 1308.68 171.918 1309.11 171.918Z" fill="#65CCE5"/>
<path d="M1295.3 162.761C1295.82 162.761 1296.3 162.424 1296.46 161.905C1296.66 161.261 1296.3 160.583 1295.66 160.384C1290.85 158.901 1287.11 154.178 1286.76 149.159C1286.71 148.489 1286.13 147.989 1285.46 148.03C1284.79 148.076 1284.28 148.656 1284.33 149.327C1284.75 155.406 1289.11 160.909 1294.94 162.708C1295.06 162.743 1295.18 162.761 1295.3 162.761Z" fill="#65CCE5"/>
<path d="M1284.9 181.658C1285.22 181.658 1285.54 181.532 1285.78 181.28C1289.45 177.426 1291.07 171.791 1290.03 166.576C1289.89 165.917 1289.26 165.489 1288.59 165.622C1287.93 165.754 1287.51 166.393 1287.64 167.055C1288.53 171.505 1287.14 176.317 1284.02 179.607C1283.55 180.091 1283.57 180.863 1284.06 181.327C1284.29 181.547 1284.6 181.658 1284.9 181.658Z" fill="#65CCE5"/>
<path d="M1288.7 157.65C1288.88 157.65 1289.06 157.609 1289.23 157.524C1291.9 156.201 1294.11 154.003 1295.44 151.34C1295.74 150.738 1295.5 150.008 1294.9 149.707C1294.29 149.403 1293.56 149.647 1293.26 150.25C1292.16 152.443 1290.35 154.252 1288.15 155.341C1287.55 155.641 1287.3 156.369 1287.6 156.972C1287.82 157.402 1288.25 157.65 1288.7 157.65Z" fill="#65CCE5"/>
<path d="M1281.55 133.795C1282.18 133.795 1282.71 133.309 1282.76 132.667C1282.81 131.999 1282.31 131.414 1281.64 131.365C1278.04 131.096 1274.63 129.373 1272.29 126.632C1271.86 126.121 1271.09 126.064 1270.58 126.497C1270.07 126.934 1270.01 127.702 1270.44 128.213C1273.2 131.443 1277.22 133.477 1281.46 133.791C1281.49 133.793 1281.52 133.795 1281.55 133.795Z" fill="#65CCE5"/>
<path d="M1305.65 129.891C1306.95 129.891 1308.25 129.766 1309.52 129.512C1310.18 129.379 1310.61 128.741 1310.48 128.081C1310.35 127.421 1309.71 126.992 1309.05 127.125C1304.8 127.971 1300.23 127.189 1296.52 124.98C1295.94 124.632 1295.19 124.825 1294.85 125.404C1294.51 125.98 1294.69 126.728 1295.27 127.071C1298.38 128.92 1302.02 129.891 1305.65 129.891Z" fill="#65CCE5"/>
<path d="M1266.68 156.701C1267.34 156.701 1267.88 156.176 1267.89 155.513C1267.91 154.84 1267.38 154.284 1266.71 154.267C1263.52 154.193 1260.45 152.086 1259.22 149.152C1258.97 148.532 1258.25 148.237 1257.63 148.495C1257.01 148.754 1256.72 149.466 1256.98 150.086C1258.56 153.884 1262.54 156.604 1266.65 156.701C1266.66 156.701 1266.67 156.701 1266.68 156.701Z" fill="#65CCE5"/>
<path d="M1348.83 151.019C1348.94 151.019 1349.06 151.003 1349.17 150.969C1349.82 150.781 1350.19 150.106 1350 149.459C1349.14 146.563 1349.03 143.472 1349.66 140.522C1349.81 139.865 1349.39 139.216 1348.73 139.077C1348.08 138.934 1347.43 139.35 1347.29 140.01C1346.57 143.359 1346.7 146.863 1347.66 150.145C1347.82 150.675 1348.3 151.019 1348.83 151.019Z" fill="#65CCE5"/>
<path d="M1305.22 188.62C1305.76 188.62 1306.26 188.256 1306.4 187.707C1306.56 187.055 1306.17 186.393 1305.52 186.224C1299.11 184.581 1294.26 178.35 1294.25 171.733C1294.24 165.129 1298.32 159.645 1302.64 153.838C1306.75 148.31 1311 142.593 1311.57 135.692C1312.06 129.924 1309.84 123.791 1305.32 118.413C1301.42 113.767 1296.46 110.289 1291.29 106.84C1290.73 106.465 1289.97 106.618 1289.6 107.178C1289.23 107.737 1289.38 108.491 1289.94 108.866C1294.96 112.212 1299.76 115.579 1303.46 119.977C1307.56 124.861 1309.58 130.371 1309.15 135.49C1308.63 141.703 1304.77 146.892 1300.68 152.39C1296.32 158.258 1291.81 164.328 1291.82 171.738C1291.83 179.428 1297.46 186.676 1304.92 188.585C1305.02 188.608 1305.12 188.62 1305.22 188.62Z" fill="#65CCE5"/>
<path d="M707.368 186.348C638.594 179.427 593.261 140.951 487.587 113.286C403.543 91.2861 292.818 153.952 187.431 119.286C123.175 98.1501 119.365 76.7861 86.0448 62.5001C52.7245 48.2131 27.7875 54.2501 0 70.9021V228H1920V44.6071C1879.73 39.7501 1881.18 42.2611 1838.29 66.3331C1795.4 90.4021 1725.56 31.1681 1670.2 54.5181C1614.84 77.8691 1637.35 84.7441 1572.82 109.244C1504.78 135.275 1461.09 86.4171 1393.73 131.815C1355.04 157.149 1364.71 171.347 1285.67 187.347C1183.62 197.347 1119.58 138.442 1014.53 141.347C918.85 143.995 829.099 192.846 707.368 186.348Z" fill="url(#paint0_linear_413_569)"/>
<defs>
<linearGradient id="paint0_linear_413_569" x1="960" y1="224.58" x2="960" y2="103.087" gradientUnits="userSpaceOnUse">
<stop stop-color="#BEE4F2"/>
<stop offset="1" stop-color="#00B2D6"/>
</linearGradient>
</defs>
</svg>
