<svg width="1920" height="244" viewBox="0 0 1920 244" fill="none" xmlns="http://www.w3.org/2000/svg">
<path d="M1436.55 71.6349C1377.38 78.3339 1371.21 116.434 1265.32 116.434C1170.19 112.694 1147.83 188.586 1053.05 179.581C983.241 172.95 915.423 133.602 845.44 129.156C807.3 126.739 733.386 166.483 695.362 162.656C626.587 155.735 602.708 120.79 533.778 115.656C479.958 111.646 450.234 147.598 394.205 135.156C341.178 123.379 324.631 88.179 281.647 68.156C245.078 51.122 195.429 74.454 155.581 68.156C119.772 62.496 93.6097 23.75 60.2894 9.46295C26.969 -4.82405 -20.1115 -3.46204 -36.1738 29.042V256.185L1940.19 294.686V18.587C1899.46 -8.97304 1843.55 5.37295 1800.66 29.442C1757.77 53.514 1722.39 85.876 1674.34 96.385C1560.81 124 1529.8 65.9999 1436.55 71.6349Z" fill="#BEE4F2"/>
</svg>
