<svg width="133" height="136" viewBox="0 0 133 136" fill="none" xmlns="http://www.w3.org/2000/svg">
<g clip-path="url(#clip0_135_244)">
<path d="M79.4354 135.959C78.3781 135.959 77.4437 135.461 76.9091 134.604C76.812 134.448 76.687 134.311 76.5673 134.17C76.2288 133.769 75.7799 133.236 75.4953 132.494C75.4314 132.412 75.3809 132.346 75.3344 132.278C75.2186 132.153 74.8057 131.677 74.7292 130.943C74.6973 130.639 74.4313 130.242 74.124 129.783C73.9006 129.452 73.6805 129.118 73.4923 128.771C73.36 128.523 73.221 128.28 73.0833 128.038C72.5819 127.152 72.0645 126.236 71.7008 125.136C71.5798 124.767 71.3483 124.336 71.1834 124.046C70.8655 123.482 70.4925 122.726 70.3409 121.787C69.9678 121.242 69.7563 120.695 69.5788 120.238C69.5043 120.046 69.4318 119.851 69.34 119.667C68.9936 118.982 68.7588 118.276 68.5507 117.655L68.3006 116.912C68.278 116.842 68.2587 116.767 68.2315 116.7C67.7174 116.171 67.5658 115.564 67.492 115.265C67.488 115.251 67.492 115.253 67.5 115.269C67.2333 114.706 66.952 114.151 66.6721 113.594L66.4147 113.083C66.3183 112.946 66.1234 112.646 66.0097 112.229C65.7969 111.463 65.4837 110.69 65.1512 109.871C64.9264 109.313 64.7017 108.759 64.5015 108.193C64.2468 107.478 63.9409 106.766 63.6157 106.015C63.4195 105.558 63.222 105.102 63.0358 104.64L62.7925 104.053C62.4885 103.325 62.1733 102.572 61.9486 101.738C61.7265 100.908 61.4325 100.037 61.0222 98.9929C60.5394 97.7625 60.0413 96.492 59.6842 95.1373C59.5858 94.759 59.4089 94.3493 59.2241 93.9169C59.0345 93.4758 58.8384 93.0187 58.6781 92.5061L58.583 92.202C58.3303 91.3806 58.1601 90.8593 57.8329 90.5265C57.5902 90.2778 57.4133 89.9697 57.3202 89.6349C57.1539 89.0301 56.7848 88.4326 56.3586 87.7388C56.0779 87.2857 55.8 86.8339 55.5592 86.36C55.2208 85.7011 54.8244 85.1717 54.3795 84.7908C54.2984 84.7206 54.2425 84.6845 54.2106 84.6665C54.1967 84.6765 54.1574 84.6919 54.1036 84.72C52.8101 85.3896 51.5327 85.9403 50.3064 86.3554L49.8256 86.5151C49.2032 86.7203 48.6166 86.9121 48.1472 87.1748C47.4243 87.5778 46.6968 87.9059 45.9946 88.22C45.132 88.609 44.3168 88.9759 43.6085 89.4404C43.2089 89.7011 42.7992 89.8374 42.4667 89.9096C42.1216 90.33 41.575 90.7671 40.7151 90.9829C40.5987 91.013 40.4398 91.1059 40.229 91.2656C39.8486 91.5564 39.2588 91.9547 38.4814 92.1271C38.4408 92.1552 38.4036 92.1859 38.3643 92.2133C38.2759 92.2782 38.1868 92.3397 38.0977 92.3998C37.7087 92.6605 37.299 92.8944 36.8894 93.129C36.4724 93.3656 36.0801 93.5888 35.7449 93.8307C35.3486 94.1194 34.9236 94.3774 34.4974 94.6361C34.2806 94.7664 34.0631 94.8967 33.8536 95.033C33.0643 95.5463 32.269 95.9406 31.5009 96.3243C31.0892 96.5288 30.6776 96.7326 30.274 96.9552L30.0385 97.0909C29.7353 97.2733 29.3483 97.5039 28.8602 97.6623C28.1094 98.3132 27.2781 98.622 26.6417 98.8579C26.3564 98.9642 26.0864 99.0651 25.8883 99.1687C25.3397 99.4601 24.8003 99.7675 24.263 100.076L24.0097 100.221C23.0813 100.752 22.137 101.205 21.2226 101.642C20.7472 101.868 20.271 102.095 19.8009 102.333C18.8699 102.804 17.9442 103.121 17.0491 103.427C16.5164 103.611 15.9838 103.792 15.4637 104.008C14.5853 104.375 13.8026 104.259 13.3364 104.191C12.3475 104.052 11.5695 103.846 10.8865 103.549C9.68888 103.028 8.94541 101.96 8.67342 100.373C8.47858 99.2369 8.80376 98.2705 9.04117 97.5674C9.53593 96.1031 10.4171 95.0224 11.1958 94.0686C11.4325 93.7759 11.6712 93.4858 11.8927 93.1871C12.847 91.8912 13.8671 90.7283 14.9244 89.7372C14.9989 89.663 15.0528 89.5727 15.1126 89.4885C15.1818 89.3916 15.2516 89.296 15.3241 89.2018C15.6519 88.7727 16.0596 88.2381 16.6973 87.8411C17.2293 87.1955 17.869 86.747 18.4004 86.3748C18.7821 86.1061 19.1133 85.8735 19.3101 85.6369C19.892 84.9372 20.5663 84.3697 21.1608 83.8678C21.3523 83.7074 21.5425 83.547 21.7287 83.3819C23.2143 82.0713 24.7704 80.8429 26.2773 79.6553L27.481 78.7029C28.2896 78.06 29.1694 77.3823 30.1283 76.7754C30.3518 76.6351 30.5772 76.4987 30.8026 76.3624C31.2089 76.1185 31.594 75.8852 31.9384 75.6393C32.7883 74.6755 33.7931 74.052 34.6869 73.4972C35.0706 73.2607 35.4556 73.0241 35.8161 72.7554C36.0302 72.5977 36.2217 72.4152 36.4166 72.2368C36.8009 71.8825 37.2365 71.4795 37.8064 71.1327C37.8829 71.0872 37.9567 71.0364 38.0318 70.9863C38.2919 70.8139 38.6104 70.602 39.02 70.4296C39.7515 69.7405 40.5475 69.2353 41.2571 68.7828C41.5158 68.6197 41.7725 68.456 42.0258 68.2835C42.1282 68.2127 42.2333 68.1432 42.339 68.075C41.4559 67.3405 40.6047 66.7323 39.6638 66.2779C38.9096 65.9143 38.2486 65.4451 37.6668 65.0328L37.559 64.9566C37.0663 64.607 36.5868 64.2749 36.104 64.0456C35.8752 63.944 35.4669 63.7602 35.1072 63.3445C34.7348 62.9161 34.1921 62.5325 33.6156 62.1262C33.1381 61.7886 32.6427 61.4391 32.1552 61.0087C31.8294 60.72 31.4417 60.4466 31.0301 60.1572C30.4269 59.7328 29.7466 59.2543 29.1268 58.6254C27.8334 58.1275 26.9237 57.2921 26.1177 56.5496C25.9056 56.3557 25.6934 56.1599 25.4753 55.9748C25.3895 55.9019 25.3091 55.8271 25.2293 55.7516L25.1953 55.7201C24.2158 55.2343 23.3979 54.596 22.6717 54.0299L22.5294 53.919C22.4961 53.9009 22.4363 53.8762 22.3771 53.8468C22.3744 53.8448 22.282 53.8014 22.28 53.7994C21.9156 53.6202 21.3656 53.3516 20.9088 52.7922C20.6368 52.4607 20.1507 52.1933 19.6359 51.9253C19.0906 51.642 18.4237 51.2343 17.8983 50.5365C17.2971 50.2191 16.7718 49.8461 16.297 49.5086C16.0848 49.3582 15.8734 49.2085 15.6573 49.0662C15.4285 48.9151 15.1918 48.7815 14.9537 48.6451C14.2395 48.2361 13.371 47.7402 12.6501 46.9055C11.9406 46.5573 11.4551 46.0647 11.0807 45.6837C10.9823 45.5848 10.8845 45.4832 10.7821 45.391C10.7097 45.3242 10.5274 45.2172 10.3685 45.1237C10.0493 44.9352 9.6523 44.7006 9.26261 44.3431C8.8696 43.9815 8.40942 43.6413 7.92064 43.2817C7.52231 42.9883 7.12597 42.6943 6.74492 42.3808C5.79065 41.5922 4.97735 40.72 4.19066 39.8746C3.87412 39.5364 3.55957 39.1975 3.23638 38.8667C2.9757 38.6007 2.73165 38.3233 2.48826 38.046L2.19632 37.7172C1.8718 37.3569 1.36374 36.7935 1.09841 35.9721C0.394837 35.1467 0.241887 34.2097 0.143467 33.6129C0.124182 33.4899 0.104897 33.3696 0.0776322 33.25C-0.108568 32.4233 0.0383972 31.5945 0.493257 30.9095L0.630912 30.699C0.992007 30.1422 1.50938 29.3409 2.46166 28.8303C2.60596 28.597 2.79682 28.3925 3.02425 28.2321L3.27628 28.0543C3.6008 27.8251 3.98451 27.6955 4.38151 27.6828C4.54843 27.6774 4.718 27.6594 4.88625 27.6433C5.26929 27.6059 5.70353 27.5651 6.17901 27.5952C6.48624 27.6139 6.79546 27.6159 7.10469 27.6199C8.03968 27.6306 9.09969 27.642 10.2302 28.0029L10.5341 28.1005C11.1825 28.3097 11.7936 28.5075 12.3522 28.5683C12.8756 28.6244 13.3078 28.7728 13.6543 28.8918C13.8059 28.9439 14.014 29.0161 14.0865 29.0221C15.0109 28.9907 15.6579 29.506 15.9319 29.7252C15.9439 29.7359 15.9372 29.7339 15.9153 29.7252C16.3382 29.923 16.7625 30.1088 17.1861 30.2959C18.3917 30.8279 19.6379 31.378 20.8409 32.1345C20.9826 32.2228 21.1595 32.2983 21.3796 32.3611C21.895 32.5108 22.6637 32.7788 23.3666 33.3763C23.5681 33.5487 23.9059 33.6991 24.2976 33.8722C24.7318 34.066 25.2246 34.2839 25.722 34.6154C26.0738 34.8513 26.4382 35.0705 26.8007 35.2904C27.3214 35.6052 27.8407 35.92 28.3388 36.2702C28.5642 36.4286 28.8542 36.585 29.1601 36.7501C29.3197 36.8363 29.4786 36.9225 29.6369 37.0107C29.8164 37.113 29.996 37.2072 30.1762 37.3021C30.8166 37.639 31.5428 38.0199 32.2244 38.6448C32.2643 38.6729 32.4392 38.7578 32.5682 38.8199C32.9413 39.001 33.4526 39.2497 33.9301 39.6914C34.1183 39.8659 34.4402 40.0416 34.7787 40.2294C35.0513 40.3798 35.3226 40.5309 35.5833 40.6979C36.1113 41.0381 36.6546 41.3509 37.1986 41.6637L38.2945 42.2946C38.8777 42.6248 39.5387 42.9977 40.1698 43.4903C40.2503 43.5524 40.5329 43.6607 40.7391 43.7395C40.9778 43.8318 41.2165 43.9247 41.446 44.0323C42.8917 44.71 44.2702 45.5855 45.662 46.711C45.7046 46.7451 45.7565 46.7731 45.805 46.7878C46.6529 47.0532 47.3265 47.507 47.8672 47.8712C48.1857 48.0871 48.3739 48.186 48.5249 48.2288C49.4253 48.4874 50.0391 49.0114 50.4866 49.395C50.5957 49.4879 50.7041 49.5828 50.8185 49.6684C51.5187 50.1857 52.0062 50.4623 52.5036 50.6234C53.5709 50.9683 54.4673 51.523 55.2587 52.0122C55.3139 52.047 55.3724 52.0811 55.4322 52.1138C55.6876 51.6961 55.9257 51.253 56.1518 50.7765C56.5075 50.0246 56.8301 49.2587 57.1519 48.4914C57.3175 48.0998 57.4818 47.7095 57.65 47.3192C57.8116 46.9442 58.0031 46.578 58.1953 46.2104C58.2924 46.0279 58.3875 45.8455 58.4786 45.6617C58.974 44.6525 59.3484 43.797 59.6576 42.9676C59.7374 42.7531 59.7986 42.5285 59.8625 42.304C60.0187 41.7512 60.2129 41.0629 60.6073 40.3999C60.9171 39.8786 61.1698 39.2771 61.4372 38.6408C61.5728 38.3173 61.7098 37.9932 61.8555 37.6737C62.0097 37.3322 62.1614 36.9887 62.313 36.6451C62.6455 35.8933 62.9773 35.1407 63.3431 34.4015C63.5831 33.9143 63.7846 33.3676 63.9968 32.7875C64.1936 32.2522 64.3918 31.7175 64.6239 31.1962C64.7017 31.0238 64.7695 30.7665 64.842 30.4938C64.9417 30.1202 65.0534 29.6998 65.243 29.2547C65.2968 29.0542 65.3939 28.7407 65.6114 28.4152C66.174 27.5845 66.5603 26.588 66.97 25.5327L67.0704 25.2741C67.2267 24.8717 67.4129 24.4801 67.5991 24.0891C67.8059 23.6587 68.0001 23.2537 68.1045 22.8988C68.4037 21.8849 68.8193 20.9927 69.2223 20.1312C69.483 19.5732 69.7291 19.0452 69.9252 18.5212C69.9419 18.4771 69.9877 18.3601 70.007 18.3167C70.2165 17.8382 70.4705 17.3509 70.7279 16.8624C70.9992 16.3471 71.2552 15.8585 71.4468 15.374C71.603 14.9783 71.7686 14.5847 71.9342 14.1904C72.141 13.7005 72.3478 13.2093 72.534 12.7127C72.7721 12.0831 73.0933 11.3613 73.6798 10.7478C73.868 10.5506 74.0077 10.3621 74.1074 10.1697C74.4107 9.58085 74.7738 9.06891 75.0936 8.61778C75.3304 8.28094 75.5558 7.96348 75.718 7.66807C76.3698 6.48311 77.2615 5.68512 78.0482 4.98069C78.3541 4.70734 78.6627 4.43466 78.9446 4.13458C79.5385 3.50567 80.1835 3.08595 80.7554 2.71369C80.933 2.59874 81.1099 2.48445 81.2828 2.36215C81.6698 2.0888 82.13 1.88028 82.6873 1.72723C82.8641 1.67844 83.0184 1.61294 83.1694 1.52271C84.5759 0.684621 86.1752 0.784871 87.5557 1.80208C89.0081 2.86941 89.5062 4.29498 89.7795 5.41711C89.9996 6.33006 90.0036 7.17551 90.0069 7.9207C90.0089 8.34576 90.0096 8.7461 90.0535 9.09831C90.1146 9.59956 90.0654 10.0286 90.0262 10.3715C90.0129 10.4911 89.9896 10.6088 89.9963 10.7284C90.1831 11.2965 90.0774 11.9949 89.7203 12.5536C89.7223 12.6773 89.7243 12.8002 89.7203 12.9225C89.703 13.5461 89.6139 14.1148 89.4496 14.6636C89.4004 14.826 89.4057 15.1595 89.4104 15.4816C89.4144 15.7309 89.417 15.9802 89.4064 16.2275C89.3885 16.6592 89.3246 17.0428 89.2674 17.381C89.2149 17.7038 89.1637 18.0092 89.1856 18.187C89.2594 18.7531 89.1105 19.3553 88.7634 19.8746C88.6131 20.0985 88.6257 20.168 88.6304 20.198C88.7388 20.8136 88.6117 21.4405 88.2699 21.9919C88.2706 22.6803 88.0438 23.2136 87.9048 23.5437C87.8816 23.5979 87.857 23.6513 87.8383 23.7061C87.7672 23.9434 87.71 24.186 87.6535 24.4273C87.5271 24.9606 87.3841 25.5574 87.1175 26.175L87.1168 26.1964C87.0816 27.2356 86.7444 28.1071 86.4199 28.8243C86.1326 29.4625 85.997 29.9277 85.983 30.3314C85.9724 30.6535 85.9471 31.4181 85.3871 32.1238C85.1517 32.4219 85.0713 32.9105 84.9576 33.6817L84.8997 34.0707C84.8804 34.3053 84.8365 34.8019 84.5067 35.3145C84.4096 35.4655 84.3278 35.7743 84.2407 36.1025C84.131 36.5155 83.9946 37.0274 83.7439 37.5494C83.7114 37.6276 83.6648 37.8976 83.6335 38.0774C83.587 38.3494 83.5365 38.6234 83.468 38.8881C83.2312 39.7997 82.9034 40.6224 82.5882 41.4171L82.1486 42.5312C81.9963 42.9068 81.8527 43.2617 81.838 43.4949C81.8141 43.9019 81.7037 44.2989 81.5195 44.6411C81.1837 45.258 80.8266 45.9765 80.6903 46.6896C80.5353 47.4956 80.2321 48.1546 79.9654 48.736L79.8404 49.0087C79.6016 49.5434 79.4361 50.1048 79.3503 50.6735C79.2425 51.394 78.9865 51.9895 78.7804 52.4674C78.6687 52.7273 78.5629 52.9713 78.519 53.1537C78.4738 53.3415 78.4173 53.5273 78.3581 53.7125C78.3275 53.8074 78.2903 53.8989 78.2743 53.9972C78.2756 54.7658 77.9305 55.3633 77.745 55.6841L77.6778 55.803C77.618 55.9948 77.5395 56.2635 77.4597 56.5335C77.3034 57.0655 77.1412 57.6142 76.9077 58.189C76.9097 58.1703 76.951 58.3581 77.1498 58.4156C78.656 58.8426 80.0139 59.1781 81.3001 59.4414C82.0236 59.5898 82.8223 59.5544 83.6661 59.5183C84.1848 59.4963 84.7055 59.4769 85.2262 59.4862C85.3752 59.4662 85.5906 59.4488 85.8447 59.4809C86.2842 59.5343 86.7876 59.5183 87.3216 59.5009C88.0598 59.4782 88.8964 59.4508 89.7728 59.6019C90.3853 59.7081 91.0503 59.7242 91.7559 59.7402C92.0239 59.7475 92.2912 59.7536 92.5585 59.7643C92.905 59.7783 93.2548 59.813 93.6039 59.8505C94.1984 59.9126 94.7098 59.9648 95.0902 59.8672C95.6494 59.7195 96.1336 59.789 96.4222 59.8297C98.1133 60.0617 99.3462 60.1011 100.489 59.9641C101.058 59.8953 101.658 59.9146 102.333 60.0162C102.768 60.081 103.143 60.1385 103.333 60.0931C103.721 60.0055 104.129 60.0035 104.519 60.0871C105.026 60.1947 105.61 60.2207 106.228 60.2468C106.93 60.2782 107.723 60.3123 108.541 60.4787C108.598 60.4754 108.655 60.466 108.713 60.4607C108.942 60.4346 109.255 60.4005 109.613 60.4192C111.105 60.5054 112.523 60.7728 113.894 61.0328C114.313 61.1116 114.732 61.1905 115.152 61.264L115.242 61.2633C115.345 61.266 115.449 61.2693 115.553 61.2767C116.507 61.3442 117.388 61.522 118.239 61.6931L118.821 61.81C120.294 62.0968 121.768 62.3661 123.243 62.6308L123.373 62.6528C123.74 62.7156 124.224 62.7992 124.74 63.0391C125.591 63.0551 126.387 63.3492 127.11 63.9153C127.167 63.9567 127.363 64.0409 127.505 64.1011C127.796 64.2261 128.159 64.3811 128.533 64.6251L128.866 64.8416C129.609 65.3235 130.376 65.8214 131.119 66.4409C131.569 66.8152 131.924 67.2683 132.201 67.8257C132.994 69.4211 133.198 71.0264 132.807 72.5997C132.515 73.7739 131.774 74.5993 131.234 75.2028C129.372 77.2827 126.929 77.792 125.255 77.9925C124.653 78.0646 124.037 78.1228 123.442 78.1529C122.639 78.191 121.933 78.1849 121.277 78.1328C119.997 78.0312 118.687 78.0292 117.374 78.1228L117.125 78.1428C116.394 78.203 115.415 78.2825 114.385 77.9397C113.743 77.9818 113.143 77.9577 112.559 77.9337C111.982 77.9116 111.439 77.8902 110.95 77.9397C110.387 77.9978 109.882 77.9784 109.407 77.8775C108.726 78.072 108.102 78.0098 107.68 77.9443C107.185 77.8682 106.595 77.9056 105.971 77.9443C105.583 77.9677 105.194 77.9918 104.806 77.9958C104.614 77.9978 104.422 78.0085 104.231 78.0179C103.569 78.052 102.748 78.092 101.87 77.8775C101.82 77.8835 101.704 77.9096 101.587 77.9236C101.311 77.9597 101.034 77.9898 100.757 77.9918C100.687 77.9918 100.618 78.0025 100.549 78.0078C100.316 78.0279 99.9932 78.056 99.6288 78.0199C99.1866 77.9764 98.6911 78.0045 98.1631 78.0326C97.6052 78.0626 96.9735 78.0947 96.3151 78.0479C95.5357 77.9918 94.7184 78.0286 93.8539 78.068C92.6642 78.1201 91.4333 78.1783 90.1353 78.0018C88.8571 77.8314 87.714 77.7833 86.6407 77.8575C85.8314 77.9109 85.0473 77.9029 84.2892 77.8956C83.2618 77.8829 82.2982 77.8735 81.4038 78.0199C80.514 78.1662 79.6176 78.2845 78.7252 78.4028L78.2357 78.469C77.9305 78.5091 77.598 78.6073 77.2116 78.7196C76.8678 78.8192 76.4881 78.9295 76.0725 79.0137C76.0512 79.1059 76.0266 79.1981 76.002 79.2884C75.9987 79.3004 75.9947 79.3144 75.9914 79.3265C76.0579 79.8257 75.9688 80.343 75.736 80.7875C75.7526 80.9017 75.7959 81.0822 75.8271 81.2125L75.8517 81.3228C75.9109 81.5754 75.9608 81.8281 76.0107 82.0827C76.1137 82.6134 76.2035 83.0725 76.3711 83.4174C76.5872 83.8598 76.6391 84.2708 76.671 84.5174C76.812 85.5694 77.1079 86.5712 77.4005 87.5156C77.5268 87.9239 77.5854 88.3129 77.6326 88.623L75.6296 89.0341L77.6505 88.7373C77.7383 89.3047 77.8141 89.794 77.9877 90.1562C78.3175 90.8453 78.3641 91.5036 78.3993 91.9814C78.4093 92.1137 78.4133 92.2461 78.4392 92.3764C78.6707 93.5086 78.9606 94.8452 79.3596 96.1398C79.5604 96.7914 79.6854 97.4183 79.8071 98.0232C79.9235 98.596 80.0319 99.1393 80.1922 99.6259C80.4302 100.352 80.5945 101.063 80.7534 101.751C80.9017 102.387 81.04 102.989 81.2249 103.548C81.3925 104.047 81.461 104.515 81.5208 104.93C81.5614 105.206 81.5986 105.467 81.6545 105.63C81.9112 106.369 82.0788 107.089 82.2397 107.786C82.3368 108.199 82.4312 108.612 82.5469 109.019C82.7125 109.6 82.783 110.161 82.8449 110.656C82.8874 110.999 82.9286 111.325 82.9958 111.596C83.0237 111.712 83.0464 111.826 83.0696 111.941C83.0783 111.988 83.0863 112.037 83.0976 112.083C83.434 112.756 83.5624 113.512 83.4713 114.273C83.454 114.421 83.4879 114.629 83.5843 114.946C83.7646 115.544 83.8477 116.112 83.9035 116.59C84.002 117.413 84.1203 117.986 84.2959 118.497C84.5433 119.212 84.5865 119.898 84.6204 120.449C84.639 120.745 84.6576 121.028 84.7035 121.231C84.8691 121.964 84.9389 122.755 84.9097 123.583C84.9203 123.618 84.9296 123.652 84.9403 123.685C85.0028 123.902 85.06 124.12 85.0939 124.34L85.1697 124.823C85.4397 126.521 85.719 128.274 85.4563 130.154C85.1218 132.563 84.0651 134.196 82.2271 135.148C81.4876 135.531 80.6617 135.893 79.6336 135.954C79.5657 135.957 79.5006 135.959 79.4354 135.959ZM78.6979 129.947C78.8761 130.163 79.1548 130.51 79.3071 131.02C79.3363 131.103 79.5451 131.351 79.6841 131.516C79.7426 131.585 79.8038 131.658 79.865 131.733C79.9993 131.68 80.1576 131.604 80.3551 131.501C80.8671 131.236 81.2409 130.81 81.4111 129.587C81.4111 129.587 81.4111 129.587 81.4111 129.585C81.5887 128.318 81.3692 126.934 81.1358 125.472L81.0587 124.975C81.0494 124.932 81.0327 124.882 81.0174 124.83C80.9303 124.53 80.7993 124.075 80.8246 123.508C80.8479 123.008 80.8113 122.547 80.7195 122.137C80.6018 121.611 80.5712 121.132 80.5446 120.71C80.522 120.361 80.5007 120.03 80.4349 119.838C80.0864 118.823 79.9375 117.829 79.8477 117.078C79.8098 116.761 79.7639 116.431 79.6761 116.142C79.5125 115.603 79.3091 114.786 79.4081 113.848C79.194 113.409 79.1155 113.006 79.0617 112.736L79.0278 112.574C78.9047 112.074 78.8455 111.594 78.7917 111.169C78.7445 110.788 78.6986 110.428 78.6194 110.149C78.4845 109.676 78.3727 109.196 78.2623 108.72C78.1174 108.098 77.9824 107.513 77.7968 106.98C77.6126 106.445 77.5375 105.934 77.4783 105.521C77.4404 105.255 77.4038 105.004 77.3526 104.852C77.1046 104.104 76.937 103.379 76.7747 102.677C76.6311 102.052 76.4948 101.461 76.3146 100.914C76.0772 100.192 75.9388 99.5009 75.8038 98.8339C75.6968 98.3046 75.5957 97.806 75.4574 97.3508C75.0072 95.8858 74.6893 94.4289 74.4386 93.1944C74.3761 92.8917 74.3482 92.5829 74.3269 92.2768C74.3162 92.1365 74.3016 91.942 74.285 91.8778C73.8727 91.0224 73.7357 90.1422 73.616 89.3689L73.596 89.2366C73.5701 89.0661 73.5528 88.8937 73.5016 88.7313C73.1731 87.6733 72.8074 86.4316 72.6305 85.1183C72.6305 85.1183 72.6265 85.0822 72.6211 85.0448C72.276 84.2775 72.1324 83.5316 72.002 82.8707C71.9621 82.6635 71.9222 82.4576 71.875 82.2531C71.7015 81.5139 71.4561 80.4713 71.8896 79.3572C71.881 78.8606 71.9907 78.4616 72.0659 78.191C72.0798 78.1415 72.0951 78.0934 72.1051 78.0426C72.3146 76.4473 73.4757 75.279 75.1315 75.015C75.4115 74.9709 75.732 74.8767 76.0725 74.7764C76.548 74.6388 77.088 74.4804 77.6984 74.4002L78.1905 74.334C79.0431 74.2217 79.8982 74.1074 80.7488 73.9691C81.991 73.7646 83.1794 73.7786 84.3331 73.7906C85.0427 73.7987 85.715 73.8047 86.3674 73.7626C87.7113 73.6703 89.1205 73.7265 90.6732 73.933C91.6142 74.0586 92.6144 74.0152 93.6744 73.9671C94.6134 73.927 95.5876 73.8809 96.6017 73.953C97.008 73.9811 97.4669 73.9591 97.9497 73.931C98.5734 73.8989 99.279 73.8608 100.02 73.935C100.06 73.933 100.128 73.9223 100.197 73.917C100.485 73.8929 100.775 73.8909 101.07 73.8528C101.513 73.7967 102.122 73.7165 102.829 73.8869C103.136 73.9611 103.551 73.941 104.032 73.917C104.276 73.9049 104.521 73.8949 104.766 73.8909C105.082 73.8889 105.398 73.8675 105.715 73.8474C106.491 73.7973 107.369 73.7432 108.306 73.8875C108.333 73.8916 108.359 73.8982 108.385 73.9002C108.96 73.7278 109.573 73.7158 110.25 73.8615C110.279 73.8682 110.35 73.8775 110.523 73.8575C111.305 73.7753 112.06 73.8053 112.725 73.8334C113.287 73.8555 113.819 73.8755 114.299 73.8314C114.851 73.7733 115.326 73.9076 115.625 74.0259C115.874 74.1281 116.321 74.0921 116.793 74.052L117.076 74.0299C118.594 73.9176 120.117 73.9216 121.603 74.0426C122.081 74.0787 122.62 74.0847 123.246 74.0526C123.744 74.0286 124.262 73.9784 124.769 73.9183C126.438 73.7178 127.463 73.2814 128.201 72.456C128.441 72.19 128.801 71.7863 128.848 71.6045C129 70.9937 128.905 70.3761 128.55 69.663C127.959 69.1377 127.325 68.7267 126.654 68.2916L126.311 68.0683C126.233 68.0182 126.065 67.9454 125.904 67.8765C125.532 67.7168 125.068 67.5183 124.604 67.1554C124.6 67.1514 124.597 67.148 124.596 67.146C124.03 67.146 123.478 67.0217 122.992 66.7464C122.927 66.7297 122.807 66.719 122.688 66.6996L122.529 66.6715C121.034 66.4048 119.54 66.1308 118.047 65.8408L117.436 65.7185C116.677 65.5654 115.961 65.4197 115.272 65.3716L115.149 65.3669C114.914 65.3622 114.681 65.3495 114.453 65.3088C114.014 65.2319 113.578 65.1497 113.142 65.0668C111.84 64.8216 110.611 64.589 109.384 64.5188C109.321 64.5188 109.245 64.5322 109.169 64.5395C108.84 64.5783 108.342 64.6344 107.776 64.5115C107.263 64.4012 106.676 64.3764 106.055 64.3497C105.408 64.3216 104.685 64.2896 103.937 64.1552C103.122 64.2842 102.401 64.1759 101.808 64.0864C101.413 64.0262 101.173 64.0155 100.969 64.0409C99.4718 64.2187 97.9217 64.1793 95.9407 63.9066L95.8715 63.8972C94.8714 64.1104 93.9404 64.0115 93.1803 63.9313C92.9169 63.9046 92.6549 63.8752 92.3936 63.8645C92.1502 63.8538 91.9062 63.8498 91.6614 63.8431C90.8382 63.8244 89.9863 63.8037 89.0766 63.646C88.6104 63.5651 88.0511 63.5818 87.4533 63.6032C86.8821 63.6212 86.2417 63.6426 85.57 63.5785C85.447 63.5905 85.328 63.5972 85.2162 63.5905C84.7647 63.5771 84.3052 63.5985 83.8417 63.6186C82.8389 63.6607 81.6991 63.7108 80.4868 63.4635C79.1002 63.1788 77.6466 62.8199 76.0432 62.3648C74.8389 62.0239 73.8334 61.1798 73.2828 60.0476C72.7495 58.9502 72.6936 57.7064 73.1285 56.6358C73.2848 56.2515 73.4132 55.8211 73.5468 55.3666C73.6406 55.0511 73.7337 54.7357 73.8381 54.4229C73.9511 54.0841 74.1041 53.8161 74.2085 53.6363C74.2497 53.1544 74.3747 52.7594 74.4718 52.458C74.4998 52.3704 74.529 52.2842 74.5496 52.196C74.6767 51.666 74.8669 51.2249 75.0351 50.8353C75.1634 50.5379 75.2851 50.2552 75.3137 50.0633C75.4554 49.1217 75.7254 48.2014 76.1184 47.3232L76.2594 47.0157C76.4535 46.5927 76.6211 46.2271 76.6823 45.911C76.9024 44.7674 77.3513 43.7803 77.7909 42.9469C77.8866 42.1703 78.1506 41.518 78.3681 40.982L78.5004 40.6505C78.5975 40.3979 78.6966 40.1459 78.797 39.8939C79.0796 39.1842 79.3456 38.5152 79.5179 37.8475C79.5591 37.6938 79.5844 37.5347 79.611 37.3776C79.6894 36.9185 79.7879 36.3491 80.0672 35.7676C80.1509 35.5925 80.2221 35.3252 80.2972 35.0411C80.4216 34.58 80.5686 34.0259 80.8638 33.4592C80.8652 33.4505 80.8671 33.4418 80.8678 33.4325L80.9197 33.0856C81.0553 32.1566 81.2209 31.0251 81.9185 29.9524C82.0109 28.7882 82.382 27.8405 82.7059 27.1254C82.8735 26.7564 83.0277 26.3762 83.0377 26.0654C83.047 25.7706 83.0636 25.2099 83.3529 24.5884C83.4872 24.2983 83.5783 23.918 83.6828 23.4762C83.7606 23.1514 83.8384 22.8266 83.9355 22.5085C83.9933 22.318 84.0698 22.1269 84.1503 21.9364C84.1602 21.9117 84.1709 21.8876 84.1822 21.8629C84.1709 21.1905 84.3364 20.6505 84.5466 20.2395C84.5326 19.4876 84.7182 18.7531 85.0999 18.0433C85.1045 17.5381 85.179 17.0889 85.2422 16.7067C85.2781 16.4901 85.32 16.2742 85.3293 16.0537C85.3359 15.8866 85.332 15.7148 85.33 15.5438C85.3206 14.9676 85.3107 14.2512 85.5414 13.4793C85.6019 13.2761 85.6332 13.0689 85.6405 12.8069L85.6385 12.6298C85.6312 12.2569 85.6186 11.6026 85.9211 10.9229C85.9019 10.5252 85.9404 10.1777 85.9704 9.909C85.9837 9.79739 86.0036 9.68712 85.9996 9.57818C85.9291 9.00608 85.9271 8.43799 85.9251 7.93674C85.9218 7.34259 85.9198 6.82998 85.8134 6.38821C85.6199 5.59222 85.4224 5.31686 85.1484 5.11369C84.7055 5.36365 84.26 5.54744 83.7745 5.68311C83.6455 5.71853 83.599 5.74126 83.597 5.74259C83.4148 5.87359 83.1953 6.01728 82.9745 6.1603C82.5423 6.44167 82.1679 6.68428 81.9119 6.95562C81.5494 7.33925 81.1591 7.69347 80.7667 8.04501C80.1456 8.60107 79.6096 9.08094 79.2931 9.6537C79.0184 10.1529 78.7006 10.6007 78.4219 10.9964C78.1566 11.3713 77.9052 11.7249 77.733 12.059C77.4537 12.6004 77.0813 13.115 76.6244 13.5909C76.5932 13.625 76.5127 13.7479 76.3545 14.1656C76.1496 14.709 75.9235 15.249 75.6981 15.787C75.5432 16.1559 75.3882 16.5229 75.2426 16.8911C74.9706 17.5802 74.6487 18.189 74.3395 18.7785C74.1327 19.1715 73.9259 19.5631 73.7463 19.9688C73.4717 20.692 73.1917 21.2921 72.9211 21.8729C72.5673 22.6315 72.2328 23.3473 72.0207 24.0657C71.8232 24.734 71.5359 25.3349 71.2825 25.8662C71.1395 26.1636 70.9952 26.4617 70.8755 26.7691L70.7771 27.0224C70.3316 28.1733 69.8714 29.3583 69.1372 30.5011C69.1013 30.6188 69.0634 30.725 69.0182 30.8259C68.9337 31.0164 68.8639 31.2777 68.7901 31.5544C68.6843 31.9521 68.5633 32.4032 68.3525 32.8764C68.159 33.3108 67.9954 33.7599 67.8312 34.2077C67.5911 34.864 67.3417 35.5431 67.0026 36.2274C66.6634 36.9125 66.3562 37.6102 66.0483 38.3073C65.892 38.6642 65.7337 39.0204 65.5735 39.376C65.4445 39.6613 65.3221 39.9494 65.2017 40.2381C64.8912 40.9753 64.5713 41.7359 64.1158 42.5031C63.9961 42.7043 63.8977 43.0552 63.7926 43.4261C63.6988 43.7563 63.6037 44.0877 63.484 44.4092C63.1249 45.3689 62.7 46.3434 62.1447 47.4742C62.0383 47.6921 61.9233 47.9106 61.8089 48.1292C61.6639 48.4025 61.5183 48.6745 61.3979 48.9552C61.2337 49.3329 61.0754 49.7118 60.9152 50.0894C60.5687 50.9115 60.2236 51.7335 59.8405 52.5415C59.3152 53.6483 58.732 54.6241 58.0576 55.5263C57.2823 56.5709 56.056 56.9218 54.9335 56.4192L54.8364 56.3751C54.3037 56.1372 53.7006 55.8672 53.1174 55.5056C52.4677 55.1033 51.8545 54.723 51.258 54.5305C50.0796 54.1509 49.1526 53.5293 48.3992 52.9726C48.209 52.8309 48.0248 52.6759 47.8413 52.5195C47.6956 52.3938 47.4762 52.2067 47.393 52.1699C46.6549 51.9601 46.0524 51.5878 45.6654 51.3272C45.2079 51.0184 44.8754 50.7938 44.5881 50.7049C44.0468 50.5332 43.5507 50.2672 43.1078 49.9103C41.9733 48.994 40.8654 48.2869 39.7223 47.7516C39.5793 47.6854 39.4323 47.6299 39.2854 47.5738C38.8172 47.394 38.2327 47.1708 37.6714 46.7344C37.2751 46.4256 36.7983 46.1576 36.2955 45.8715L35.167 45.2219C34.5685 44.8764 33.9687 44.5295 33.3848 44.1539C33.2013 44.0363 33.0098 43.932 32.8182 43.8271C32.3035 43.5437 31.7203 43.2236 31.1664 42.709C31.1185 42.6729 30.9316 42.5833 30.796 42.5165C30.4342 42.3414 29.9375 42.1008 29.4766 41.6777C29.1847 41.4117 28.7677 41.1918 28.2863 40.9385C28.0668 40.8236 27.8487 40.708 27.6332 40.5863L27.2322 40.3671C26.8545 40.1633 26.4269 39.9334 26.0047 39.6373C25.5797 39.3399 25.1382 39.0739 24.6966 38.8072C24.2816 38.5566 23.8673 38.3046 23.4637 38.0353C23.2569 37.8983 22.9623 37.7673 22.6491 37.6283C22.0831 37.3776 21.3802 37.0649 20.7285 36.5095C20.6767 36.466 20.549 36.3932 20.2491 36.3063C19.6592 36.1359 19.1465 35.9093 18.679 35.6159C17.7247 35.0171 16.6674 34.5499 15.5455 34.0547C15.0727 33.8462 14.5999 33.6383 14.1324 33.4184C13.9176 33.3188 13.7401 33.2025 13.5984 33.0983C13.0923 33.0368 12.6681 32.8918 12.3342 32.7768C12.1866 32.7274 11.9865 32.6579 11.9153 32.6498C10.9404 32.5449 10.0599 32.2595 9.28256 32.0076L8.99528 31.9153C8.44599 31.7396 7.80294 31.7335 7.0588 31.7249C6.68241 31.7202 6.30536 31.7148 5.9283 31.6921C5.81392 31.6868 5.66097 31.6941 5.48874 31.7095C5.18284 32.0463 4.79913 32.305 4.35757 32.4634C4.34427 32.4874 4.24519 32.6431 4.14876 32.7915C4.15741 32.8436 4.16539 32.8944 4.1747 32.9459C4.19531 33.0729 4.22125 33.238 4.24585 33.3362C4.61626 33.6817 4.88093 34.1629 4.98334 34.6822C5.04119 34.7591 5.15823 34.8888 5.22473 34.9643L5.54859 35.3285C5.74609 35.5531 5.94227 35.779 6.15041 35.9922C6.49422 36.3437 6.8327 36.706 7.17119 37.0702C7.90003 37.8528 8.58764 38.5907 9.33643 39.2082C9.65829 39.4742 9.99744 39.7235 10.3353 39.9728C10.8885 40.3805 11.4618 40.8022 12.0184 41.3135C12.0895 41.381 12.2737 41.4879 12.4353 41.5835C12.7505 41.7686 13.1409 42.0005 13.5246 42.3501C13.6802 42.4911 13.8318 42.6435 13.9821 42.7972C14.1311 42.9482 14.3565 43.1761 14.4423 43.2189C14.9151 43.3599 15.3327 43.668 15.6626 44.1272C15.91 44.47 16.4027 44.7521 16.972 45.0776C17.2845 45.256 17.5957 45.4351 17.8936 45.6316C18.149 45.7994 18.3997 45.9771 18.6524 46.1562C19.1352 46.4991 19.5914 46.8226 20.029 47.0137C20.7139 47.3172 21.0391 47.8625 21.1601 48.0677C21.1654 48.071 21.2339 48.1352 21.5099 48.2776C22.3026 48.6886 23.205 49.1985 23.9485 50.0513C23.9777 50.0654 24.0063 50.078 24.0343 50.0928L24.019 50.1329C24.0336 50.1496 24.0476 50.1669 24.0615 50.1836C24.0469 50.1663 24.0323 50.1496 24.0176 50.1349L23.2688 52.0009L24.1606 50.1549C24.3887 50.2659 24.7013 50.4189 25.0311 50.6749L25.1747 50.7872C25.8251 51.2938 26.4389 51.7729 27.0693 52.0717C27.5248 52.2869 27.8387 52.5836 28.0263 52.7608L28.1107 52.8396C28.3694 53.0582 28.6214 53.2894 28.8728 53.5213C29.5072 54.1054 30.0552 54.6094 30.6517 54.8159C31.1451 54.9863 31.59 55.277 31.9704 55.678C32.3414 56.071 32.8422 56.4219 33.3722 56.7962C33.857 57.137 34.3564 57.4892 34.8518 57.927C35.1717 58.209 35.5567 58.481 35.9637 58.7691C36.5954 59.2149 37.3017 59.7128 37.9414 60.3798C38.6762 60.7387 39.318 61.1811 39.9138 61.6042L40.0215 61.679C40.5169 62.0306 40.9844 62.3634 41.4307 62.578C43.5354 63.5952 45.2225 65.1203 46.5771 66.3447C47.2135 66.9195 47.5254 67.5851 47.5028 68.3216C47.4689 69.4384 46.6755 70.0693 46.4135 70.2759C45.9354 70.6568 45.4572 70.9556 44.9951 71.2456C44.7676 71.388 44.5402 71.5283 44.3187 71.6807C44.0281 71.8772 43.7342 72.065 43.4396 72.2515C42.7846 72.6678 42.1655 73.0608 41.706 73.528C41.305 73.9343 40.8601 74.1108 40.62 74.205C40.5495 74.2331 40.3959 74.3353 40.2829 74.4122C40.1625 74.4897 40.0428 74.5699 39.9191 74.6448C39.6997 74.7784 39.4589 75.001 39.1783 75.2596C38.8757 75.5403 38.5692 75.817 38.2353 76.0637C37.7632 76.4139 37.289 76.7066 36.8308 76.9913C36.0481 77.4785 35.3718 77.8969 34.9196 78.4503C34.6922 78.729 34.4502 78.8874 34.3584 78.9455C33.9108 79.2757 33.3994 79.5844 32.9047 79.8832C32.7019 80.0055 32.499 80.1271 32.2995 80.2541C31.5508 80.7266 30.8445 81.264 30.0139 81.923L28.7977 82.8847C27.3353 84.0389 25.8224 85.2312 24.422 86.4677C24.2131 86.6514 23.9997 86.8326 23.7849 87.0123C23.2735 87.4434 22.7914 87.8498 22.4409 88.2708C21.895 88.9278 21.2798 89.3589 20.7365 89.7398C20.3096 90.0379 19.9412 90.2965 19.7729 90.5572C19.5588 90.886 19.2123 91.1727 18.8493 91.3372C18.7894 91.4033 18.691 91.5316 18.6152 91.6312L18.4243 91.8879C18.2594 92.1184 18.0326 92.4346 17.7081 92.7373C16.8336 93.5587 15.9798 94.5331 15.1725 95.6285C14.9105 95.9834 14.6318 96.3283 14.3512 96.6731C13.7128 97.4544 13.1628 98.1281 12.9075 98.8853C12.835 99.0999 12.684 99.547 12.696 99.6827C12.71 99.7609 12.7233 99.825 12.7352 99.8731C13.0352 99.9754 13.3943 100.056 13.8252 100.118C13.9316 100.132 14.0027 100.144 14.0599 100.152C14.6099 99.9293 15.1698 99.7368 15.7311 99.545C16.5291 99.2703 17.2845 99.0137 17.9641 98.6688C18.4616 98.4162 18.9636 98.1762 19.4664 97.935C20.3528 97.5119 21.1901 97.1116 21.99 96.6544L22.2408 96.5101C22.8173 96.1819 23.3952 95.8491 23.9837 95.5383C24.418 95.3077 24.8469 95.1493 25.2239 95.009C25.6642 94.8453 26.0811 94.6902 26.2407 94.5084C26.5799 94.1174 27.0833 93.8407 27.6452 93.7485C27.6605 93.7365 27.8294 93.6362 27.9518 93.5627C28.0721 93.4925 28.1912 93.4224 28.3129 93.3535C28.7637 93.1056 29.2252 92.8743 29.6874 92.6457C30.3843 92.2996 31.042 91.9707 31.6345 91.5858C31.8819 91.426 32.1373 91.271 32.394 91.1173C32.7205 90.9208 33.0497 90.7243 33.3536 90.5037C33.8709 90.1275 34.3823 89.8367 34.8777 89.556C35.2009 89.3722 35.5261 89.1891 35.8347 88.9833L35.9816 88.879C36.3035 88.6464 36.8408 88.2601 37.6009 88.1198L37.5996 88.1198C37.5823 88.1198 37.6402 88.0877 37.7645 87.9935C38.1442 87.7047 38.7168 87.3118 39.4682 87.0758C39.8606 86.5833 40.5003 86.08 41.5211 85.9096C42.4508 85.3181 43.4037 84.8897 44.3247 84.4753C44.9778 84.1826 45.5942 83.9046 46.1648 83.5878C46.9754 83.1347 47.814 82.858 48.5555 82.6134L49.001 82.467C50.0344 82.1168 51.1197 81.6476 52.2303 81.0722C53.8788 80.2167 55.5852 80.4272 57.0296 81.6677C57.8808 82.3975 58.6076 83.3432 59.1901 84.4793C59.3823 84.8556 59.6064 85.2152 59.8279 85.5754C60.2728 86.2952 60.7689 87.0986 61.104 88.0543C61.8807 89.022 62.2119 90.1021 62.4846 90.9909L62.573 91.273C62.6801 91.6205 62.8284 91.9527 62.9727 92.2895C63.1994 92.8162 63.4555 93.4137 63.6323 94.0867C63.9283 95.2108 64.3825 96.367 64.8207 97.4872C65.2882 98.6755 65.6287 99.688 65.8907 100.668C66.043 101.235 66.2923 101.83 66.5557 102.46L66.8177 103.093C66.9932 103.524 67.1775 103.954 67.363 104.383C67.6988 105.163 68.0466 105.968 68.3465 106.812C68.5267 107.324 68.7302 107.822 68.9331 108.324C69.2689 109.153 69.6154 110.008 69.8873 110.932C69.9565 111.042 70.011 111.137 70.0589 111.233L70.3143 111.74C70.6182 112.343 70.9214 112.944 71.2107 113.553C71.3104 113.764 71.371 113.956 71.4135 114.113C71.871 114.665 72.0566 115.245 72.1869 115.652L72.4216 116.349C72.6012 116.886 72.7714 117.394 72.9829 117.814C73.1352 118.112 73.2602 118.429 73.3839 118.748C73.5102 119.074 73.6306 119.381 73.747 119.514C74.2557 120.094 74.3315 120.775 74.3641 121.065C74.394 121.326 74.5051 121.61 74.7378 122.024C75.0085 122.502 75.349 123.146 75.5791 123.849C75.8145 124.559 76.2121 125.261 76.6338 126.007C76.7847 126.274 76.9363 126.54 77.082 126.811C77.2083 127.044 77.3613 127.266 77.5109 127.488C77.9425 128.133 78.4658 128.914 78.6979 129.947ZM70.6547 122.196C70.6627 122.206 70.67 122.215 70.678 122.224C70.67 122.216 70.6627 122.206 70.6547 122.196ZM71.101 113.779C71.103 113.781 71.1043 113.783 71.1063 113.783C71.1043 113.783 71.103 113.781 71.101 113.779ZM28.3361 97.7939C28.3302 97.796 28.3228 97.796 28.3175 97.798C28.3235 97.796 28.3295 97.796 28.3361 97.7939ZM29.313 97.2145C29.2991 97.2285 29.2864 97.2446 29.2731 97.2579C29.2864 97.2446 29.3004 97.2305 29.313 97.2145ZM71.9608 79.9754C71.9648 79.9955 71.9688 80.0135 71.9741 80.0336C71.9688 80.0129 71.9648 79.9955 71.9608 79.9754ZM72.1816 78.7731C72.1769 78.7791 72.1729 78.7871 72.1676 78.7945C72.1729 78.7865 72.1769 78.7784 72.1816 78.7731ZM103.668 64.1024C103.669 64.1024 103.671 64.1038 103.673 64.1038C103.671 64.1031 103.669 64.1024 103.668 64.1024ZM124.977 63.1601C124.978 63.1614 124.981 63.1634 124.985 63.1647C124.981 63.1634 124.978 63.1614 124.977 63.1601ZM85.3333 59.4882C85.3426 59.4882 85.3506 59.4896 85.3592 59.4896C85.3519 59.4896 85.3426 59.4882 85.3333 59.4882ZM12.3549 46.5319C12.3562 46.5325 12.3562 46.5339 12.3569 46.5359C12.3569 46.5339 12.3562 46.5325 12.3549 46.5319ZM1.51869 36.3912C1.528 36.3985 1.53664 36.4059 1.54595 36.4132C1.53731 36.4059 1.528 36.3979 1.51869 36.3912ZM5.00063 34.7785C5.00063 34.7792 5.00063 34.7805 5.00063 34.7812C5.00063 34.7798 5.00063 34.7792 5.00063 34.7785ZM3.89673 33.1765L3.88875 33.1898C3.89207 33.1858 3.8934 33.1818 3.89673 33.1765ZM82.1918 29.5701C82.1885 29.5741 82.1852 29.5775 82.1832 29.5802C82.1852 29.5768 82.1885 29.5735 82.1918 29.5701ZM86.0728 11.8385C86.0754 11.8512 86.0801 11.8626 86.0841 11.8753C86.0794 11.8626 86.0761 11.8512 86.0728 11.8385Z" fill="#C0D5E2"/>
</g>
<defs>
<clipPath id="clip0_135_244">
<rect width="133" height="135" fill="white" transform="translate(0 0.958496)"/>
</clipPath>
</defs>
</svg>
