<svg width="60" height="62" viewBox="0 0 60 62" fill="none" xmlns="http://www.w3.org/2000/svg">
<g clip-path="url(#clip0_135_109)">
<path d="M18.5149 61.9585H18.4351C18.2587 61.9585 18.0853 61.9163 17.9296 61.8366C17.884 61.8339 17.8339 61.8378 17.7856 61.8384L17.653 61.8393C16.7068 61.8384 15.9775 61.4572 15.4858 60.7071C14.9545 59.8957 14.6929 59.0349 14.6857 58.0751C14.6845 57.9488 14.6893 57.8215 14.6941 57.694C14.7034 57.473 14.7109 57.2819 14.6737 57.1504C14.5366 56.6688 14.6158 56.2073 14.6731 55.8696L14.6887 55.7774C14.71 55.6439 14.707 55.4756 14.7031 55.2809C14.7004 55.1378 14.6977 54.9948 14.7025 54.8518C14.7139 54.512 14.7445 54.1742 14.7757 53.8361C14.8009 53.5575 14.8273 53.2793 14.8384 52.9998C14.8459 52.7952 14.8696 52.5909 14.8936 52.3861C14.9044 52.2954 14.9152 52.2059 14.9239 52.1146C14.962 51.7079 14.9716 51.2931 14.9824 50.8543C14.995 50.3229 15.0082 49.7729 15.0742 49.2101C15.0856 49.1137 15.0742 48.9692 15.0625 48.8173C15.0481 48.6276 15.0313 48.4147 15.0442 48.1774C15.0346 48.1406 15.0211 48.104 15.0094 48.0662C14.968 47.9336 14.9281 47.7995 14.9032 47.6663L14.8429 47.3375C14.7622 46.8888 14.686 46.4648 14.5546 46.0944L14.5273 46.0162C14.2513 45.2381 13.99 44.5034 13.5562 43.8778C13.3864 43.6337 13.1857 43.3952 12.9733 43.1431C12.724 42.8479 12.4672 42.5425 12.2311 42.1946C11.7907 41.8994 11.4163 41.5206 11.0908 41.044C10.7518 40.862 10.4827 40.6028 10.2985 40.2831C9.37034 39.6106 8.57594 38.8491 7.97714 38.2467C7.95284 38.2304 7.91804 38.2069 7.91534 38.2051C7.50434 37.9271 7.13054 37.6069 6.77024 37.2248C6.32114 36.7482 5.84114 36.3555 5.34494 36.0578C5.05064 35.8815 4.83104 35.6728 4.65464 35.5054C4.57844 35.4326 4.50314 35.3591 4.41944 35.294C4.08914 35.0386 3.79004 34.7671 3.50084 34.5052C3.22754 34.2572 2.96924 34.0223 2.70164 33.8172C2.48864 33.6542 2.31134 33.4693 2.17904 33.2698C1.98464 32.9781 1.68284 32.7087 1.36364 32.4233L1.17524 32.2541C0.914238 32.0178 0.714438 31.7335 0.581238 31.4091C0.541638 31.3119 0.505638 31.2141 0.469938 31.116C0.434538 31.0182 0.402138 30.9191 0.355038 30.8264C-0.00256199 30.1244 -0.00106197 29.4242 0.000438033 28.8622V28.7817C0.000438033 28.4005 0.106638 28.0535 0.316638 27.7517C0.560538 27.3997 0.901638 26.9439 1.36724 26.5502C1.43384 26.4857 1.65464 26.2761 2.01944 26.2125C2.00204 26.2122 2.08274 26.1548 2.14124 26.1126C2.29604 26.0014 2.50364 25.8515 2.77454 25.7436C3.65924 25.115 4.61564 24.7425 5.54054 24.3821L7.23194 23.7054C7.35614 23.6028 7.64354 23.3638 8.07434 23.3474C8.10344 23.3442 8.20154 23.315 8.27354 23.2933C8.49044 23.2285 8.79794 23.1328 9.18014 23.1494C9.85004 22.732 10.5883 22.4685 11.377 22.3651C11.3608 22.3642 11.3953 22.3475 11.4295 22.3333C11.7304 22.2072 12.0514 22.0808 12.4318 22.0163C12.4879 21.9997 12.6466 21.8804 12.7513 21.8016C13.1821 21.4796 13.5979 21.2947 13.9528 21.1532C14.0485 21.1148 14.1676 21.0319 14.3053 20.9355C14.4412 20.8404 14.5777 20.7464 14.722 20.6629C14.8873 20.5677 15.0646 20.431 15.2527 20.2853C15.3535 20.2077 15.454 20.1301 15.5566 20.0551C15.8698 19.8256 16.1194 19.4653 16.3906 19.0532C16.4668 18.9375 16.5448 18.8227 16.6219 18.7077C16.7767 18.4799 16.9324 18.2528 17.0683 18.0158C17.137 17.8963 17.2096 17.7767 17.2816 17.6575C17.5048 17.2897 17.6977 16.9719 17.7703 16.6526C17.8639 16.2411 18.043 15.8706 18.1699 15.6286C18.2614 15.4528 18.3364 15.2691 18.4129 15.0859C18.5665 14.7179 18.7405 14.3001 19.0228 13.8996C19.0867 13.8083 19.0963 13.7605 19.0975 13.7477C19.1446 13.3091 19.33 12.9785 19.4656 12.7371L19.5352 12.6092C19.6732 12.3425 19.7731 12.0262 19.8793 11.6914C19.9855 11.3572 20.0953 11.0117 20.2564 10.6558C20.3026 10.555 20.3425 10.4028 20.3845 10.2413C20.4334 10.0528 20.4892 9.83933 20.5762 9.61574C20.6284 9.48283 20.6917 9.35498 20.7574 9.22802C20.7982 9.14775 20.8411 9.06509 20.854 9.02227C20.8867 8.9087 20.9227 8.79601 20.959 8.68362C21.0403 8.4297 21.1108 8.21028 21.1363 8.00899C21.1849 7.62692 21.3397 7.27132 21.5851 6.97905C21.5842 6.97727 21.6061 6.9288 21.6469 6.77865C21.8809 5.92265 22.2748 5.18855 22.6291 4.58349C22.7464 4.3828 22.8574 4.17556 22.9687 3.96862C23.0476 3.82174 23.1271 3.67427 23.2084 3.52858C23.7925 2.4817 24.6646 1.81241 25.3594 1.34591C25.8577 1.0129 26.4718 0.88892 27.0886 0.996255C27.8668 1.13154 28.5388 1.45354 29.1436 1.97951C29.6503 2.42134 29.9539 2.93393 30.2215 3.38646C30.3433 3.59161 30.4576 3.78577 30.5788 3.95049C30.6103 3.9936 30.6373 4.03552 30.6598 4.07507C31.0525 4.43275 31.3096 4.84871 31.5223 5.19242C31.6183 5.34732 31.7128 5.50342 31.8223 5.64762L31.939 5.79777C32.1418 6.05793 32.3713 6.35288 32.5582 6.7177C32.6782 6.9517 32.8915 7.17647 33.0844 7.36438C33.454 7.72415 33.7489 8.11424 34.0342 8.49244L34.1527 8.64824C34.3525 8.91137 34.5721 9.18699 34.8142 9.41534C35.0479 9.63655 35.2483 9.87292 35.4118 10.1194C35.4424 10.1667 35.4634 10.2003 35.4826 10.2285C35.7376 10.3698 35.9026 10.5707 36.0001 10.7224C36.1795 11.004 36.4426 11.271 36.7213 11.5534C36.8116 11.6453 36.9019 11.7366 36.9901 11.8293C37.6744 12.5441 38.4532 13.1611 39.277 13.814C39.6853 14.1369 40.1347 14.419 40.6105 14.7181C40.9585 14.9364 41.3059 15.1549 41.6419 15.3907C41.6806 15.4142 41.7268 15.4323 41.7721 15.4525L41.8681 15.4965C42.0064 15.5614 42.1453 15.6283 42.2848 15.6955C42.607 15.851 42.9118 15.9981 43.2148 16.1177C43.8037 16.3493 44.3422 16.4914 44.8588 16.5512L44.9263 16.5583C45.1711 16.5857 45.4759 16.6195 45.7993 16.7459C45.9529 16.806 46.1668 16.8277 46.4146 16.8532C46.6573 16.8776 46.9333 16.9065 47.2237 16.9784C47.8816 17.142 48.5749 17.2204 49.2727 17.2175C49.5604 17.2068 49.8757 17.2436 50.1937 17.301C50.5729 17.3694 50.9881 17.3792 51.5818 17.3313C51.9487 17.3004 52.2961 17.3198 52.612 17.3849C52.7689 17.4176 52.9741 17.4107 53.2114 17.4036C53.3854 17.3979 53.5594 17.395 53.7334 17.3991C53.9977 17.4087 54.2602 17.4315 54.5227 17.4553C54.8626 17.486 55.1842 17.5166 55.4755 17.5044C55.9999 17.4806 56.4943 17.5508 56.9281 17.6096C57.1015 17.6337 57.2743 17.6575 57.4495 17.6748C58.3975 17.7687 59.1277 18.2569 59.6176 19.1263C59.7073 19.2833 59.9158 19.6514 59.818 20.1319C59.8234 20.1803 59.8549 20.2915 59.8783 20.3745C59.92 20.5211 59.9593 20.6679 59.9848 20.8163C59.9953 20.877 60.0007 20.9394 60.0007 21.0009V21.0809C60.0007 21.2129 59.9767 21.3441 59.9293 21.4674C59.914 21.5085 59.896 21.6075 59.8807 21.6949C59.845 21.8923 59.797 22.1629 59.6686 22.4459C59.5714 22.6615 59.4553 22.8682 59.3374 23.0739C59.2225 23.2764 59.1142 23.4667 59.0503 23.6397C58.9618 23.8794 58.8559 24.1145 58.7485 24.3494C58.7005 24.4556 58.6513 24.5623 58.6054 24.6694C58.3687 25.2206 58.0903 25.6704 57.7546 26.043C57.5764 26.2407 57.4522 26.3924 57.3865 26.538C57.2563 26.8229 57.0928 27.0744 56.9008 27.2861C56.7478 27.4544 56.602 27.664 56.4478 27.8867C56.2528 28.1677 56.0323 28.4867 55.75 28.7837C55.2607 29.2996 54.8458 29.8963 54.4063 30.5282L54.1456 30.9019C53.9956 31.1154 53.8321 31.2979 53.6881 31.4594C53.5558 31.6072 53.4304 31.7475 53.3512 31.8736C53.2663 32.0077 53.1796 32.1403 53.0935 32.2729C52.9552 32.4843 52.8175 32.6945 52.6897 32.9133C52.5931 33.0795 52.483 33.2386 52.372 33.3977C52.2514 33.5689 52.1476 33.717 52.0873 33.8511C51.9718 34.105 51.8524 34.355 51.7333 34.6054C51.577 34.9336 51.4204 35.2622 51.2752 35.5955C51.2716 35.6044 51.2647 35.6657 51.3016 35.7876C51.4147 36.1675 51.4135 36.5582 51.2974 36.9477C51.2551 37.0896 51.2434 37.2816 51.2299 37.5034C51.22 37.6625 51.2101 37.8216 51.1906 37.98C51.1618 38.217 51.1846 38.4974 51.2083 38.795C51.226 39.0112 51.2422 39.227 51.2452 39.4423C51.2494 39.7123 51.3196 39.9953 51.4006 40.3227C51.4615 40.5677 51.5206 40.8121 51.5611 41.0615C51.6391 41.5465 51.7855 42.0314 51.9403 42.5452C52.0504 42.9103 52.1599 43.2748 52.249 43.6453C52.2829 43.7877 52.3492 43.9551 52.4182 44.1326C52.5619 44.4968 52.7374 44.944 52.7611 45.4768C52.9264 45.8131 53.0155 46.1164 53.095 46.3866C53.1517 46.5796 53.2051 46.7619 53.2714 46.9061C53.4151 47.2171 53.4952 47.5224 53.566 47.7918C53.6176 47.9871 53.6668 48.1718 53.7295 48.3151C53.9005 48.7085 54.0091 49.0899 54.1132 49.4595C54.2059 49.7878 54.2938 50.097 54.4138 50.3634C54.5557 50.6771 54.5938 50.9788 54.6211 51.1989L54.6316 51.28C54.6586 51.4772 54.6925 51.674 54.7264 51.8708C54.8056 52.3275 54.8869 52.8 54.8986 53.3132C54.8992 53.3521 54.8992 53.3777 54.8998 53.3973C55.0615 53.851 55.1647 54.655 54.3544 55.4346C53.8915 55.8806 53.2945 56.1728 52.5808 56.3022C52.4038 56.3346 52.225 56.3551 52.0471 56.3744L51.8134 56.4018C51.4567 56.4496 51.1414 56.4 50.911 56.3634C50.8324 56.3512 50.7541 56.3361 50.6743 56.3328C50.26 56.3167 49.882 56.251 49.5172 56.1877C49.2247 56.1366 48.9493 56.0887 48.6928 56.0747C48.412 56.0604 48.1777 55.9831 48.0073 55.9272C47.9656 55.9142 47.9248 55.8996 47.8831 55.8886C47.6494 55.825 47.4115 55.7801 47.1736 55.7331C46.7629 55.6525 46.3006 55.563 45.8377 55.3929L45.8056 55.3912C45.6667 55.3849 45.457 55.3763 45.2227 55.2996C44.8441 55.175 44.4517 55.076 44.035 54.9716C43.7935 54.9104 43.5511 54.8497 43.3114 54.7831C43.0969 54.7246 42.8896 54.6458 42.6826 54.5655C42.4411 54.4718 42.2338 54.3904 42.0715 54.3829C41.6953 54.3648 41.3836 54.2393 41.1556 54.1477C41.1034 54.1269 41.0512 54.1049 40.9987 54.0871C40.8088 54.0199 40.5769 53.9729 40.3318 53.9236C40.207 53.898 40.0828 53.873 39.9598 53.8445C39.9259 53.8373 39.8902 53.8317 39.8548 53.8257C39.6973 53.7993 39.4816 53.763 39.2473 53.6586C38.8765 53.4909 38.437 53.4416 37.9285 53.3833C37.6759 53.3551 37.4239 53.3259 37.1749 53.2837C36.7489 53.2124 36.2539 53.2831 35.7295 53.3583L35.512 53.3893C35.4136 53.4193 35.2477 53.4642 35.0545 53.4514C34.7632 53.4437 34.4353 53.5043 34.0033 53.6619C33.919 53.6922 33.835 53.7196 33.7513 53.7464C33.6412 53.782 33.5269 53.8186 33.4729 53.8498C33.139 54.0434 32.8015 54.1418 32.5306 54.2212C32.4106 54.2563 32.2891 54.2899 32.1733 54.3374C31.4794 54.6217 30.9166 54.9015 30.4507 55.1934C30.1618 55.3742 29.8774 55.5128 29.6023 55.6469C29.2495 55.8187 28.9447 55.968 28.7131 56.1642C28.4584 56.3813 28.1854 56.499 27.9862 56.5846C27.919 56.6141 27.8494 56.6387 27.7876 56.6783C27.6787 56.7479 27.5668 56.8136 27.4552 56.8784C27.2638 56.9902 27.0988 57.0859 27.0046 57.184C26.8369 57.3571 26.6335 57.4799 26.4124 57.5432C26.1676 57.6152 25.9129 57.8197 25.6186 58.0567C25.3969 58.2351 25.1449 58.437 24.8542 58.6127C24.6415 58.7411 24.4384 58.8874 24.235 59.0328C23.8792 59.2864 23.5117 59.5484 23.0776 59.7636C22.9672 59.8186 22.8448 59.9022 22.7023 59.9988C22.4434 60.1757 22.123 60.394 21.7123 60.5361C21.679 60.5605 21.6472 60.5899 21.6145 60.6179C21.439 60.7659 21.1729 60.9895 20.7934 61.1114C20.6689 61.1516 20.518 61.2271 20.3584 61.3068C20.0431 61.4643 19.6591 61.6561 19.1842 61.7331C18.9931 61.8788 18.7579 61.9585 18.5149 61.9585ZM17.875 59.6569C18.0103 59.6569 18.1729 59.6628 18.3496 59.6935C18.4936 59.6373 18.643 59.6007 18.796 59.5861C18.9436 59.5728 19.1398 59.4743 19.3669 59.3608C19.5733 59.2576 19.8061 59.1416 20.0752 59.0509C20.1148 59.0233 20.1508 58.9894 20.1886 58.9579C20.368 58.806 20.614 58.599 20.9749 58.4819C21.1102 58.4382 21.2695 58.3293 21.4552 58.203C21.6382 58.0784 21.8461 57.9363 22.0942 57.8138C22.3699 57.6773 22.651 57.476 22.9495 57.2637C23.1982 57.0859 23.4484 56.9087 23.7088 56.7508C23.8738 56.6515 24.0478 56.5112 24.2326 56.3634C24.5839 56.0807 25.012 55.7369 25.5727 55.525C25.8331 55.2942 26.1103 55.1328 26.3413 54.9984C26.4247 54.9499 26.5087 54.9015 26.5894 54.8494C26.7793 54.7275 26.9617 54.6487 27.1081 54.5851C27.1723 54.5581 27.2377 54.5358 27.2935 54.4989C27.7234 54.1329 28.2049 53.898 28.6303 53.6905C28.864 53.5763 29.0848 53.4689 29.2741 53.35C29.8471 52.9908 30.5209 52.6543 31.333 52.3216C31.5205 52.2449 31.714 52.1863 31.9078 52.1298C32.0884 52.0766 32.2582 52.0269 32.3608 51.9675C32.6197 51.8173 32.8705 51.7364 33.0727 51.6719C33.13 51.6532 33.1876 51.6353 33.2437 51.6145C33.6568 51.4641 34.2754 51.2702 34.9864 51.2696C35.0422 51.2554 35.0965 51.2447 35.1511 51.2375L35.4136 51.2006C36.0511 51.1079 36.7741 51.0038 37.543 51.134C37.7527 51.1691 37.9654 51.1929 38.1775 51.217C38.7838 51.2854 39.4708 51.3633 40.1551 51.6719C40.1464 51.6648 40.1839 51.6686 40.2214 51.6752C40.2982 51.688 40.375 51.7013 40.45 51.7186C40.5577 51.743 40.6645 51.7647 40.7716 51.7864C41.0656 51.8458 41.3998 51.9136 41.7355 52.0317C41.818 52.0611 41.9008 52.0938 41.9833 52.1268C42.0589 52.1574 42.1627 52.1991 42.2008 52.2068C42.7018 52.2303 43.1371 52.3995 43.4863 52.535C43.6228 52.5886 43.7587 52.643 43.8988 52.6819C44.1232 52.7438 44.35 52.8 44.5762 52.8576C44.9929 52.9623 45.4222 53.0702 45.8548 53.2097L45.9004 53.2118C46.0567 53.2186 46.2925 53.229 46.555 53.3298C46.8643 53.4496 47.2219 53.5195 47.599 53.5935C47.8891 53.6497 48.1792 53.7074 48.4639 53.7853C48.5425 53.8058 48.6202 53.8311 48.6982 53.8567C48.7456 53.8727 48.7924 53.8906 48.8407 53.9001C49.1992 53.9176 49.555 53.9795 49.8982 54.0389C50.2051 54.093 50.4952 54.1436 50.7631 54.154C50.9284 54.1602 51.0913 54.1834 51.2548 54.209C51.3502 54.2245 51.4834 54.2441 51.5236 54.2399C51.6175 54.2274 51.7111 54.217 51.805 54.2069C51.9322 54.1929 52.06 54.1796 52.1854 54.157C52.4896 54.1014 52.6582 54.0062 52.7614 53.9233C52.7074 53.7131 52.7035 53.5281 52.7011 53.3958C52.6924 53.0093 52.6273 52.6349 52.5592 52.2389C52.5205 52.0159 52.4824 51.7935 52.4515 51.5699L52.4386 51.4679C52.4293 51.3936 52.4152 51.2812 52.4029 51.2449C52.2196 50.84 52.1053 50.4368 51.9952 50.0473C51.9067 49.7336 51.8236 49.4378 51.7111 49.1809C51.5815 48.8854 51.5053 48.5967 51.4393 48.3425C51.3859 48.1412 51.3355 47.9515 51.271 47.8111C51.1387 47.5233 51.0559 47.2438 50.9833 46.9971C50.9182 46.7764 50.8627 46.5859 50.7871 46.4375C50.6365 46.1458 50.5633 45.8711 50.5645 45.6011C50.5657 45.4227 50.4742 45.192 50.3695 44.9238C50.2804 44.6975 50.1796 44.4409 50.11 44.1534C50.0302 43.8213 49.9312 43.4954 49.8334 43.169C49.6645 42.6106 49.4905 42.0326 49.3897 41.4058C49.3582 41.2158 49.3111 41.0294 49.2649 40.843C49.1659 40.4437 49.054 39.9915 49.0462 39.4744C49.0432 39.3058 49.0291 39.1357 49.0156 38.966C48.9862 38.594 48.9523 38.1724 49.0069 37.7205C49.021 37.6048 49.0273 37.4898 49.0345 37.3735C49.0528 37.0711 49.0738 36.7295 49.1791 36.3611C49.0162 35.7819 49.0426 35.2203 49.2553 34.7312C49.4113 34.3753 49.5775 34.0247 49.744 33.6745C49.8583 33.4354 49.972 33.1967 50.0815 32.9558C50.2252 32.6398 50.4055 32.382 50.5642 32.1548C50.6404 32.0451 50.7184 31.9366 50.785 31.8215C50.9314 31.5709 51.0892 31.3292 51.2467 31.0874C51.3271 30.9646 51.4072 30.8421 51.4852 30.7182C51.6622 30.4378 51.8644 30.2118 52.0417 30.0129C52.1461 29.8966 52.2508 29.7825 52.3405 29.6555L52.5955 29.2904C53.062 28.6196 53.5441 27.926 54.1477 27.2897C54.3142 27.114 54.4699 26.8892 54.6352 26.6516C54.814 26.3941 55.0162 26.1022 55.2664 25.8271C55.3069 25.7825 55.3456 25.7198 55.3819 25.6407C55.5829 25.1986 55.8652 24.8668 56.1136 24.5906C56.287 24.3985 56.44 24.1452 56.5813 23.8163C56.6335 23.6938 56.689 23.5731 56.7436 23.4521C56.8279 23.2663 56.9134 23.0816 56.9839 22.8907C57.1105 22.5497 57.2758 22.2589 57.4216 22.0026C57.5059 21.8552 57.5914 21.7083 57.6613 21.5531C57.6784 21.5159 57.6988 21.3997 57.7147 21.3146C57.73 21.2245 57.7486 21.1234 57.7744 21.0143C57.7696 20.9971 57.7651 20.981 57.7603 20.9644C57.697 20.7414 57.6097 20.4325 57.6184 20.07C57.4813 19.8821 57.3745 19.8586 57.2293 19.844C57.0271 19.8241 56.8279 19.7968 56.6281 19.7697C56.2513 19.718 55.8973 19.6749 55.561 19.6823C55.1239 19.7013 54.7171 19.6627 54.3217 19.6264C54.1009 19.6062 53.8786 19.5851 53.656 19.5779C53.5318 19.572 53.4064 19.5785 53.281 19.5821C52.951 19.5928 52.5766 19.6041 52.1629 19.5188C52.0873 19.5033 51.9565 19.4879 51.7591 19.5039C51.2323 19.5467 50.5321 19.5785 49.7998 19.4459C49.621 19.4135 49.4536 19.3975 49.3012 19.3975C49.2748 19.3987 49.2433 19.3975 49.2139 19.3975C48.3526 19.3975 47.5042 19.2952 46.6897 19.0936C46.5502 19.0591 46.3738 19.041 46.1875 19.0219C45.8482 18.9869 45.4252 18.9434 44.9935 18.7743C44.9419 18.7543 44.7961 18.7383 44.6794 18.7249L44.605 18.7166C43.8931 18.6345 43.1731 18.4472 42.4024 18.1436C42.022 17.9941 41.6659 17.8222 41.3212 17.6554L40.8553 17.4345C40.7257 17.3754 40.5478 17.2951 40.3696 17.1693C40.0654 16.9564 39.7498 16.7584 39.4333 16.5598C38.9287 16.2425 38.4061 15.9146 37.9039 15.5168C37.0579 14.8466 36.1825 14.1535 35.3932 13.3284C35.3122 13.244 35.2297 13.1611 35.1478 13.0772C34.8526 12.7781 34.522 12.4427 34.2385 12.0354C33.8992 11.8145 33.7093 11.5249 33.5875 11.3384C33.5008 11.2076 33.4063 11.0979 33.295 10.9915C32.9404 10.6573 32.6527 10.2984 32.3962 9.96093L32.2726 9.79859C32.026 9.47153 31.7932 9.16321 31.5409 8.91732C31.2205 8.60423 30.8599 8.21741 30.5974 7.70601C30.5035 7.52345 30.3613 7.3406 30.1969 7.1295L30.0667 6.96151C29.9137 6.75962 29.7793 6.54644 29.647 6.33177C29.4622 6.03415 29.3032 5.77666 29.1115 5.63097C28.8919 5.46269 28.7833 5.26199 28.7293 5.13355C28.576 4.91561 28.4482 4.69886 28.3234 4.48894C28.1137 4.13364 27.9319 3.8268 27.6916 3.61748C27.3913 3.35554 27.0877 3.20925 26.7088 3.14325C26.6254 3.12927 26.6002 3.14592 26.5915 3.15217C25.8535 3.64721 25.4173 4.07566 25.1344 4.5826C25.0588 4.71818 24.985 4.85614 24.9109 4.99351C24.7876 5.22334 24.664 5.45287 24.5335 5.67646C24.25 6.15992 23.9389 6.73584 23.7712 7.34922C23.6881 7.65338 23.5681 8.00601 23.3131 8.32861C23.2606 8.70681 23.1526 9.04398 23.0569 9.34249C23.026 9.43794 22.9951 9.53397 22.9672 9.63001C22.8958 9.87263 22.7965 10.065 22.7167 10.2199C22.6861 10.2794 22.6534 10.3379 22.6291 10.4007C22.5805 10.5259 22.549 10.6561 22.5154 10.7851C22.4551 11.017 22.3864 11.2802 22.2634 11.551C22.1554 11.788 22.0699 12.0583 21.9793 12.3446C21.8563 12.7317 21.7171 13.1709 21.4948 13.6011C21.4624 13.665 21.4261 13.7301 21.3895 13.7947C21.3508 13.8633 21.2923 13.9677 21.2818 14.0052C21.2407 14.3866 21.0868 14.7782 20.8276 15.1463C20.6827 15.3517 20.5684 15.6271 20.4469 15.9179C20.3464 16.1584 20.2447 16.3989 20.1241 16.6303C20.083 16.7084 19.9597 16.9454 19.9174 17.1307C19.7665 17.7937 19.4485 18.3182 19.168 18.7808C19.1047 18.8855 19.0414 18.9895 18.9802 19.0957C18.8173 19.3787 18.6337 19.6514 18.4489 19.924L18.2344 20.2434C17.8741 20.791 17.4718 21.3634 16.8649 21.8085C16.7773 21.8724 16.6915 21.9387 16.6057 22.0047C16.3795 22.1798 16.1227 22.3779 15.8284 22.5476C15.7399 22.5988 15.658 22.6579 15.5749 22.7156C15.367 22.861 15.1087 23.0421 14.7757 23.175C14.5438 23.2678 14.3026 23.3727 14.1178 23.511C13.7833 23.7625 13.3765 24.0673 12.8047 24.1648C12.6544 24.1904 12.4831 24.2587 12.2908 24.3399C12.1495 24.3994 11.9326 24.491 11.6677 24.526C11.1676 24.5917 10.7218 24.7553 10.3039 25.025C9.81884 25.338 9.37004 25.3615 9.07784 25.3264C9.07754 25.3309 8.97914 25.3597 8.90714 25.3814C8.79704 25.4142 8.66234 25.4543 8.50874 25.4843C8.40014 25.5649 8.24654 25.6678 8.05064 25.7439L6.38294 26.3977C5.50004 26.7414 4.70084 27.0527 4.03304 27.5335C3.89714 27.6313 3.75044 27.7098 3.59624 27.7666C3.57134 27.7788 3.49154 27.8362 3.43364 27.8778C3.26474 27.9991 3.03074 28.1674 2.71934 28.2771C2.55404 28.4293 2.39234 28.6199 2.20154 28.8872C2.20064 29.2758 2.20154 29.6118 2.31974 29.844C2.40764 30.0165 2.47664 30.1987 2.54264 30.3828C2.56724 30.4509 2.59214 30.5195 2.61944 30.5867C2.62904 30.6102 2.64134 30.6284 2.66144 30.6459L2.83754 30.8044C3.22634 31.1514 3.66614 31.5447 4.01714 32.0707C4.01714 32.0704 4.01744 32.0704 4.01744 32.0704C4.01954 32.0704 4.03424 32.0814 4.04804 32.0921C4.38974 32.3549 4.69364 32.6308 4.98734 32.8976C5.25704 33.1417 5.51114 33.373 5.77424 33.5755C5.91764 33.6867 6.04814 33.808 6.17804 33.9317C6.29624 34.0443 6.39824 34.1413 6.48434 34.193C7.15364 34.5944 7.79054 35.1135 8.37854 35.7361C8.62724 36.0001 8.88134 36.219 9.15524 36.4042C9.26264 36.4747 9.38564 36.5553 9.51104 36.6822C10.0702 37.2459 10.8214 37.9708 11.6719 38.5756C11.9017 38.74 12.07 38.9273 12.1843 39.1473C12.4657 39.2814 12.6994 39.4881 12.8644 39.7474C13.0555 40.0459 13.2682 40.2674 13.5139 40.4202C13.714 40.5448 13.8865 40.7184 14.0386 40.9491C14.2126 41.2117 14.4313 41.4709 14.6629 41.7457C14.8987 42.0252 15.142 42.3142 15.3703 42.6427C15.9697 43.5067 16.2919 44.4148 16.6039 45.2937L16.6315 45.371C16.8223 45.9085 16.9177 46.4405 17.0107 46.9551L17.0671 47.2664C17.0767 47.3161 17.095 47.3654 17.1106 47.4157C17.1784 47.6286 17.2702 47.9202 17.2438 48.2732C17.2363 48.3743 17.2471 48.5084 17.2579 48.6511C17.2756 48.8762 17.2969 49.1565 17.2612 49.4625C17.2066 49.9263 17.1955 50.4023 17.1832 50.9066C17.1724 51.3633 17.1613 51.8354 17.116 52.3165C17.1058 52.425 17.0935 52.5333 17.0806 52.6418C17.0626 52.7899 17.044 52.9373 17.038 53.0857C17.0257 53.4035 16.9969 53.7193 16.9681 54.0342C16.9408 54.3303 16.9129 54.6261 16.9033 54.9244C16.8994 55.0293 16.9021 55.134 16.9042 55.2389C16.9099 55.5015 16.915 55.7985 16.8616 56.1267L16.8433 56.2332C16.8235 56.3509 16.7935 56.5284 16.7995 56.5915C16.9246 57.0235 16.9072 57.4436 16.8937 57.7805C16.8901 57.8735 16.8865 57.9657 16.8871 58.0585C16.8913 58.5975 17.0329 59.0625 17.3326 59.5204C17.3965 59.6182 17.4235 59.6593 17.6575 59.6593L17.7547 59.6581C17.7904 59.6575 17.8312 59.6569 17.875 59.6569ZM35.461 53.3967L35.4427 53.3994C35.4487 53.3988 35.4547 53.3976 35.461 53.3967ZM11.0029 40.9111C11.0035 40.9123 11.0038 40.9135 11.0044 40.9138C11.0041 40.9135 11.0035 40.9123 11.0029 40.9111ZM2.12954 28.9874C2.12954 28.988 2.12924 28.988 2.12924 28.9883C2.12894 28.9877 2.12954 28.9877 2.12954 28.9874ZM7.24634 23.714C7.24544 23.714 7.24424 23.7146 7.24304 23.7149L7.24634 23.714ZM34.4662 12.1611C34.468 12.1617 34.4692 12.1623 34.471 12.1632C34.4689 12.1623 34.468 12.1617 34.4662 12.1611Z" fill="#C0D5E2"/>
<path d="M32.1089 37.7457C31.8617 37.7457 31.6037 37.7261 31.3337 37.6877C31.0325 37.6443 30.7313 37.5982 30.4325 37.5459C29.8844 37.4513 29.0975 37.2382 28.5194 36.494C28.5041 36.4841 28.4891 36.474 28.4738 36.4636C28.4132 36.4235 28.3535 36.3831 28.2959 36.3405C27.9506 36.0804 27.257 35.5592 27.0611 34.6369C26.7824 34.2141 26.6801 33.7693 26.6036 33.4339L26.5604 33.2522C26.3795 32.5315 26.5073 31.8583 26.6099 31.3172L26.6411 31.1504C26.6609 31.0431 26.6912 30.9521 26.7158 30.8864C26.8073 29.9596 27.3209 29.2178 28.2434 28.6767L28.376 28.6011C28.427 28.5723 28.481 28.547 28.526 28.5125C29.2037 27.8748 30.0389 27.8626 30.4874 27.8563C31.0949 27.8444 31.6769 27.9063 32.2388 27.9643L32.6021 28.0008C33.0029 28.0398 33.3182 28.1867 33.5477 28.2943C33.6332 28.3341 33.7298 28.3787 33.7769 28.3909C34.2779 28.5188 34.5182 28.8893 34.6082 29.029L34.6394 29.0739C35.0321 29.3445 35.2055 29.7158 35.2934 29.9043C35.3738 30.0741 35.4827 30.2932 35.6117 30.4639C36.068 31.0692 36.1454 31.7248 36.1613 32.2871C36.1631 32.3427 36.1631 32.398 36.1625 32.4634C36.278 33.0096 36.1034 33.4764 35.9933 33.7693C35.9651 33.8445 35.9324 33.9194 35.9165 33.9979C35.8094 34.5239 35.6036 35.0403 35.2877 35.5746C35.0978 35.8972 34.8512 36.141 34.6532 36.3373C34.5968 36.3929 34.5401 36.4482 34.4873 36.505C34.4873 36.505 34.4837 36.5082 34.4798 36.5127C34.3397 36.912 34.0133 37.3678 33.2687 37.5854C32.9036 37.6922 32.5202 37.7457 32.1089 37.7457ZM32.3885 35.8384C32.3885 35.8389 32.3885 35.8389 32.3885 35.8392C32.3885 35.8387 32.3885 35.8386 32.3885 35.8384ZM28.7921 31.6104L28.7717 31.7201C28.6961 32.1206 28.6304 32.4664 28.6955 32.7268L28.7486 32.9504C28.7966 33.1586 28.8452 33.3732 28.913 33.4583C29.114 33.7122 29.186 33.9851 29.2112 34.1707C29.2223 34.2542 29.2949 34.3547 29.6237 34.6024L29.6951 34.6502C29.8421 34.7475 30.0656 34.8949 30.2519 35.1494C30.3137 35.2342 30.4127 35.329 30.8123 35.3986C31.0895 35.4465 31.3685 35.4899 31.6478 35.5294C31.9805 35.577 32.2553 35.5773 32.4974 35.53C32.6099 35.2993 32.7587 35.1426 32.8508 35.0463C32.948 34.9428 33.023 34.8682 33.098 34.7944C33.2174 34.6758 33.3413 34.5536 33.3881 34.4745C33.5792 34.1501 33.701 33.8525 33.7595 33.5641C33.8039 33.3465 33.8744 33.16 33.9305 33.0099C33.9497 32.9582 33.974 32.8933 33.989 32.8464C33.9707 32.7664 33.9608 32.6846 33.9608 32.6023L33.9614 32.3469C33.9521 32.0231 33.9215 31.8673 33.8489 31.7703C33.5993 31.44 33.4235 31.0907 33.2975 30.8234C33.2951 30.818 33.2927 30.8127 33.29 30.8073C33.0878 30.6649 32.96 30.5014 32.8793 30.3869C32.7797 30.3461 32.69 30.3048 32.6105 30.2671C32.5295 30.2299 32.4194 30.1782 32.3795 30.1701L32.012 30.1336C31.49 30.0803 30.9977 30.0256 30.5195 30.0372C30.2981 30.0405 30.0854 30.0506 30.0275 30.1053C29.8262 30.2944 29.6111 30.4145 29.4539 30.5019L29.3621 30.5534C28.9184 30.8138 28.9088 31.0006 28.9019 31.137C28.892 31.3475 28.8296 31.5167 28.7921 31.6104ZM28.8056 31.5405L28.8038 31.5485C28.8044 31.5462 28.805 31.5432 28.8056 31.5405Z" fill="#C0D5E2"/>
</g>
<defs>
<clipPath id="clip0_135_109">
<rect width="60" height="61" fill="white" transform="translate(0 0.958496)"/>
</clipPath>
</defs>
</svg>
