<svg width="241" height="243" viewBox="0 0 241 243" fill="none" xmlns="http://www.w3.org/2000/svg">
<g clip-path="url(#clip0_341_451)">
<path d="M78.4515 242.715H77.1893C76.8672 242.715 76.5511 242.638 76.2649 242.49C76.1703 242.441 76.078 242.387 75.9858 242.332L75.9846 242.331C75.326 242.156 74.1501 241.783 73.5142 240.615C72.9143 240.093 72.6005 239.463 72.3909 239.043C72.3239 238.911 72.2329 238.728 72.1898 238.673C71.797 238.241 71.5323 237.694 71.4138 237.056C71.2916 236.394 71.009 235.766 70.5217 235.072C70.1564 234.553 69.9421 234.013 69.7696 233.58C69.7038 233.416 69.6427 233.254 69.566 233.097C69.214 232.368 69.0104 231.64 68.8308 230.996C68.6643 230.398 68.5194 229.88 68.2919 229.453C67.6345 228.214 67.2609 226.965 67.1782 225.736C67.1387 225.151 67.0166 224.523 66.8872 223.86L66.7627 223.216C66.6274 222.487 66.6238 221.824 66.7543 221.194C66.8573 220.696 66.8393 220.142 66.6933 219.404C66.431 218.073 66.4047 216.786 66.3783 215.54L66.3723 215.301C66.358 214.654 66.3556 214.007 66.352 213.36C66.3472 211.88 66.3412 210.482 66.1939 209.101C66.1687 208.86 66.164 208.619 66.1616 208.378L66.1592 208.208C66.1484 207.627 66.1149 207.2 65.9831 206.861C65.7101 206.165 65.582 205.428 65.6011 204.672C65.6023 204.609 65.6059 204.544 65.5987 204.48C65.2251 202.746 65.2395 201.038 65.2527 199.385C65.2574 198.796 65.2622 198.208 65.2467 197.619C65.2371 197.229 65.2658 196.839 65.2982 196.447C65.3329 196.015 65.3652 195.642 65.3006 195.399C65.2107 195.064 65.194 194.694 65.2551 194.311C65.4598 192.991 65.4574 191.622 65.4562 190.175L65.4574 188.647C65.4574 186.927 65.4574 185.15 65.7867 183.345C65.8957 182.753 65.9185 182.103 65.9448 181.417C65.976 180.564 66.0071 179.683 66.1975 178.751C66.3292 178.102 66.3855 177.404 66.4442 176.666C66.522 175.684 66.6034 174.667 66.8693 173.601C67.0082 173.048 67.104 172.457 67.2058 171.829C67.3159 171.149 67.4285 170.446 67.6093 169.723C67.8033 168.944 67.965 168.158 68.1279 167.373C68.2141 166.949 68.3027 166.526 68.3949 166.103C68.4572 165.808 68.547 165.389 68.8128 164.961C69.2008 164.332 69.3146 163.486 69.4463 162.507C69.5577 161.688 69.8091 160.95 70.0403 160.337C70.4151 159.35 70.6318 158.276 70.8641 157.141L71.0234 156.363C71.1551 155.74 71.3024 155.029 71.6473 154.295C71.6665 154.255 71.6844 154.217 71.6952 154.175C71.7419 153.206 71.9742 152.268 72.2005 151.363C72.252 151.151 72.3059 150.941 72.355 150.731C72.2532 150.963 72.1526 151.199 72.0521 151.431C71.4701 152.785 70.8665 154.186 70.1313 155.555C69.796 156.178 69.4726 156.815 69.1505 157.451C68.8775 157.985 68.608 158.521 68.3278 159.05C67.868 159.922 67.3519 160.736 66.8513 161.522C66.6394 161.852 66.4286 162.184 66.225 162.518L66.0167 162.885C64.8683 165.366 63.8779 167.51 62.2661 169.3C61.9655 169.633 61.6841 170.205 61.4422 170.715C61.1333 171.367 60.7333 171.93 60.38 172.428C60.2495 172.611 60.1178 172.796 59.9944 172.983C59.8232 173.243 59.7059 173.466 59.6232 173.688C59.2484 174.7 58.8472 175.785 58.009 176.752C57.4055 178.621 56.3074 180.114 55.3338 181.438L55.1362 181.707C55.0847 181.777 55.0105 181.938 54.9374 182.095C54.8249 182.338 54.6859 182.641 54.4812 182.955C54.3111 183.216 54.1495 183.48 53.9854 183.746C53.5842 184.397 53.1687 185.069 52.649 185.729C52.4011 186.043 52.1748 186.463 52.0083 186.908C51.6156 187.969 51.0288 188.824 50.5103 189.579C50.3678 189.787 50.2241 189.998 50.0852 190.209C50.0217 190.309 49.9534 190.408 49.884 190.508C49.8205 190.599 49.7534 190.685 49.7032 190.784C49.1296 191.9 48.3476 192.767 47.659 193.535C47.4662 193.749 47.2734 193.963 47.0854 194.183C46.7046 194.63 46.2963 195.052 45.8867 195.471C45.2808 196.091 44.7096 196.679 44.2905 197.318C43.2139 198.96 41.7063 200.081 40.5148 200.872C40.1435 201.118 39.7651 201.35 39.3843 201.581C38.7652 201.959 38.1796 202.317 37.6911 202.713C37.5366 202.837 37.3773 202.959 37.218 203.081C36.8959 203.328 36.5941 203.558 36.4109 203.776C36.2109 204.012 35.8936 204.349 35.4122 204.582C34.5285 205.013 33.677 205.565 32.7765 206.15L32.0832 206.596C31.9814 206.664 31.7347 206.826 31.379 206.924C30.6534 207.133 29.9073 207.419 29.117 207.723C27.6177 208.298 26.0681 208.895 24.2899 209.085C23.151 209.208 21.6422 209.321 20.0687 209.122C19.6519 209.067 19.1514 209.097 18.6245 209.126C18.3012 209.144 17.979 209.159 17.6569 209.163C16.075 209.183 14.5051 209.825 13.0346 210.48C12.1173 210.888 10.9916 211.28 9.59656 211.082C9.01457 210.999 8.35356 211.012 7.65781 211.029C7.36921 211.035 7.06864 211.033 6.79561 211.042C5.27 211.042 3.89168 210.612 2.70256 209.76C2.08465 209.319 1.66314 208.749 1.40687 208.023C0.869194 206.491 0.938649 205.016 1.03804 204.041C1.13384 203.11 1.5374 202.253 2.27506 201.42C3.55638 199.968 5.0772 199.088 6.54773 198.237L7.27341 197.814C7.78235 197.511 8.17273 197.254 8.49965 197.002C9.22533 196.443 10.0025 196.052 10.6863 195.709C11.1078 195.496 11.5054 195.296 11.8502 195.079C13.0202 194.345 14.2249 193.859 15.3901 193.393C16.2079 193.065 16.9791 192.755 17.6904 192.376C18.7502 191.815 19.9501 191.178 21.3883 190.892C21.562 190.859 21.9511 190.616 22.2373 190.439C22.3822 190.349 22.5259 190.261 22.6684 190.177C23.8216 189.502 25.3233 188.597 26.7304 187.567C27.013 187.36 27.3004 187.154 27.5866 186.949C28.6428 186.192 29.6403 185.479 30.463 184.662L30.9911 184.144C31.9586 183.198 32.8723 182.304 33.5046 181.278C33.5633 181.169 33.7321 180.857 34.0638 180.575C34.5728 180.144 34.9967 179.501 35.4469 178.822C35.8601 178.199 36.3259 177.495 36.9259 176.851C36.927 176.849 36.9282 176.848 36.9294 176.848C37.4001 175.795 37.9473 174.815 38.4778 173.863C38.8155 173.258 39.1532 172.654 39.4657 172.038L39.5472 171.715C39.6023 171.388 39.6981 170.839 40.1172 170.319C40.2669 170.134 40.401 169.779 40.5423 169.405C40.7087 168.962 40.8991 168.461 41.2069 167.956C41.353 167.718 41.4847 167.4 41.6248 167.064C41.85 166.517 42.1254 165.854 42.5888 165.224C42.972 164.09 43.5624 163.122 44.0893 162.258C44.3791 161.785 44.6533 161.336 44.8772 160.89C44.8653 160.904 44.8701 160.836 44.8808 160.769C45.0581 159.715 45.3742 158.938 45.8604 158.299C46.1681 157.894 46.349 157.324 46.5573 156.662C46.6388 156.404 46.7214 156.144 46.8112 155.89L46.8818 155.69C47.3776 154.288 47.8877 152.838 48.4757 151.427C48.6709 150.958 48.8254 150.479 48.9835 150C49.1834 149.391 49.3906 148.763 49.6684 148.121C49.7654 147.896 49.872 147.675 49.9798 147.451C50.0648 147.276 50.1498 147.101 50.2265 146.921L50.357 146.617C50.7665 145.665 51.1521 144.767 51.3796 143.863C51.4084 143.7 51.5138 143.155 51.9916 142.68C52.2119 142.463 52.3221 142.061 52.4849 141.423C52.5999 140.974 52.728 140.466 52.9484 139.947C53.0945 139.601 53.2358 139.251 53.3771 138.902C53.7363 138.017 54.1064 137.101 54.5614 136.194C54.5913 136.132 54.6452 135.937 54.6847 135.793C54.7578 135.525 54.8488 135.192 55.0021 134.84C55.3158 134.126 55.608 133.402 55.9014 132.678C56.4032 131.437 56.9229 130.153 57.548 128.896C57.6857 128.618 57.8282 128.342 57.9707 128.067C58.2401 127.546 58.5096 127.029 58.7395 126.502C59.3502 125.108 59.8771 123.969 60.398 122.917L60.4782 122.755C61.2901 121.119 62.1296 119.427 63.1044 117.786C63.5199 117.087 63.9665 116.442 64.4 115.817C64.8814 115.121 65.3377 114.463 65.7173 113.782C66.5256 112.336 67.365 111.113 68.2847 110.044C68.3039 110.022 68.323 109.999 68.3446 109.974C68.7446 108.88 69.4152 108.055 69.966 107.375C70.2007 107.086 70.439 106.801 70.6402 106.491C71.0174 105.918 71.5036 105.415 72.1287 104.956C72.6424 104.575 73.058 104.267 73.3717 103.934C74.6901 102.536 76.2996 102.02 77.7198 101.566C77.9976 101.477 78.2778 101.387 78.5545 101.291C79.9843 100.787 81.3411 100.804 82.5409 100.82C83.0666 100.825 83.5672 100.834 84.033 100.795C85.2605 100.695 86.3502 100.716 87.3525 100.859C87.4076 100.867 87.5716 100.879 87.8662 100.825C88.7823 100.657 89.6385 100.685 90.3953 100.713C90.7282 100.723 91.0611 100.735 91.3964 100.727C91.7257 100.718 92.0551 100.696 92.382 100.673C92.9113 100.636 93.4262 100.597 93.9746 100.605C95.0536 100.605 96.2427 100.557 97.6629 100.446C98.1252 100.409 98.5862 100.393 99.0496 100.378C99.8053 100.354 100.519 100.33 101.179 100.202C101.912 100.058 102.627 99.9914 103.319 99.928C103.793 99.8837 104.266 99.8406 104.735 99.7677C105.855 99.5954 106.96 99.5105 108.032 99.4279C108.456 99.3944 108.808 99.3454 109.161 99.2975C110.124 99.1648 111.214 99.0164 112.402 99.203C112.575 99.2305 112.876 99.1947 113.191 99.1588C113.626 99.1085 114.169 99.0439 114.767 99.1002C115.424 99.1576 116.108 99.1624 116.832 99.1671C117.179 99.1683 117.526 99.1719 117.872 99.1803C118.511 99.1923 119.022 99.3944 119.358 99.5296L119.533 99.5966C121.078 100.143 122.516 101.039 123.923 102.336C124.597 102.958 125.389 103.702 126.131 104.517L126.274 104.674C126.816 105.272 127.327 105.838 127.875 106.059C128.503 106.314 128.897 106.728 129.131 106.974C129.581 107.448 130.137 107.816 130.834 108.109C131.256 108.285 131.607 108.506 131.892 108.682C132.091 108.807 132.297 108.936 132.413 108.973C134.33 109.585 136.065 109.869 137.688 109.843L138.222 109.83C138.791 109.813 139.379 109.797 139.993 109.831C140.762 109.879 141.532 109.676 142.467 109.188C143 108.912 143.541 108.65 144.084 108.389C144.417 108.228 144.752 108.066 145.084 107.901C145.146 107.871 145.35 107.77 145.424 107.709C146.254 107.049 147.078 106.383 147.902 105.714L148.519 105.214C148.939 104.737 149.379 104.299 149.806 103.876C150.479 103.209 151.113 102.58 151.547 101.892C152.021 101.14 152.478 100.325 152.947 99.4028C153.439 98.4267 153.947 97.3464 154.544 96.0054C155.363 94.1667 155.912 92.7468 156.324 91.3998C156.558 90.6318 156.844 89.8326 157.171 89.0288C157.339 88.6196 157.474 88.1591 157.618 87.6734C157.849 86.8874 158.113 86.0022 158.572 85.1349C158.647 84.9016 158.776 84.5427 159.072 84.1946C159.36 83.8561 159.536 83.319 159.74 82.6993C159.808 82.4899 159.877 82.2794 159.951 82.0736L160.218 81.3391C160.482 80.625 160.73 79.9491 160.887 79.2935C161.079 78.4968 161.33 77.6606 161.658 76.7395C161.687 76.5935 161.74 76.3782 161.855 76.1449C162.149 75.5348 162.351 74.8207 162.564 74.0622C162.784 73.2846 163.009 72.4796 163.367 71.6601C163.686 70.9316 163.943 70.1552 164.217 69.3334C164.651 68.033 165.099 66.6884 165.835 65.3845C166.298 64.5662 166.645 63.6666 166.99 62.7407C167.145 62.322 167.35 61.9918 167.514 61.7239L167.618 61.5528C167.863 61.1401 168.073 60.7824 168.155 60.457C168.368 59.6137 168.803 58.9844 169.15 58.4796C169.248 58.3372 169.348 58.1961 169.435 58.0501C170.83 55.7198 172.108 53.6287 173.626 51.625C173.951 51.1979 174.239 50.7457 174.53 50.2923C174.86 49.7815 175.201 49.254 175.595 48.7312C175.748 48.5278 175.899 48.3209 176.05 48.1139C176.477 47.523 176.923 46.9129 177.469 46.3159L177.92 45.8326C178.52 45.1962 179.088 44.5945 179.379 43.9521C179.642 43.3683 180.065 42.8659 180.603 42.5034C180.749 42.4041 180.84 42.3204 180.871 42.2558C181.15 41.6624 181.64 41.1779 182.252 40.8884C182.307 40.8262 182.351 40.7545 182.401 40.6839C182.812 40.1001 183.308 39.6718 183.706 39.3285C183.898 39.1622 184.095 38.9983 184.267 38.8069C184.829 38.1753 185.429 37.6394 186.011 37.1202C186.448 36.729 186.861 36.3606 187.229 35.9754C187.674 35.5112 188.173 35.1906 188.575 34.9322C188.737 34.8281 188.901 34.7241 189.054 34.608C189.397 34.3448 189.736 34.0709 190.076 33.7981C190.668 33.3208 191.281 32.828 191.94 32.365C192.991 31.6269 194.12 30.8529 195.368 30.2165C196.106 29.8397 196.822 29.4174 197.581 28.97C198.121 28.6506 198.661 28.3324 199.21 28.0285C199.423 27.9113 199.644 27.8096 199.867 27.7079C200.024 27.6385 200.238 27.5416 200.298 27.4938C200.642 27.0512 201.219 26.7342 201.886 26.6432C202.249 26.5942 202.668 26.3849 203.155 26.142C203.346 26.0475 203.537 25.953 203.729 25.8645C204.201 25.6444 204.685 25.4506 205.167 25.2568C205.743 25.0259 206.288 24.807 206.779 24.5534C207.441 24.2112 208.095 23.9457 208.727 23.6885C209.098 23.5377 209.469 23.3882 209.833 23.2231C210.045 23.1047 210.41 22.9025 210.913 22.8415C211.31 22.7948 211.747 22.6752 212.211 22.5472C212.792 22.3881 213.448 22.2075 214.172 22.1285C214.646 22.0771 215.118 22.0053 215.591 21.9347C216.565 21.7888 217.572 21.6392 218.655 21.6261C218.88 21.6249 219.277 21.5148 219.628 21.4179L220.002 21.3186C221.079 21.0375 222.134 20.9035 223.155 20.7731C223.888 20.6798 224.58 20.5913 225.246 20.4537C226.455 20.2049 227.615 20.1427 228.737 20.0829C229.062 20.065 229.385 20.0482 229.71 20.0279C231.488 19.9059 233.143 19.8747 234.769 19.9298C235.326 19.9489 235.84 20.0398 236.292 20.1188L236.465 20.1487C238.402 20.4789 239.301 21.8797 239.893 22.8056C239.971 22.9264 240.048 23.0461 240.127 23.1633C240.346 23.4923 240.466 23.8835 240.466 24.2842V26.6265C240.466 26.7043 240.461 26.7808 240.453 26.8586C240.244 28.6314 239.22 29.8935 237.405 30.6101C236.577 30.9355 235.69 31.2668 234.76 31.4128C234.466 31.4606 234.139 31.6269 233.73 31.841C233.476 31.9726 233.222 32.1018 232.96 32.2167C232.299 32.5074 231.646 32.8543 230.958 33.2203C230.676 33.3699 230.395 33.5206 230.111 33.6677C228.929 34.2778 227.761 34.3903 226.733 34.4908C226.445 34.5183 226.158 34.5446 225.873 34.5877L225.758 34.6044C225.474 34.6451 225.229 34.6798 225.071 34.7396C224.386 35.0004 223.73 35.0614 223.201 35.1105C222.922 35.1368 222.66 35.1607 222.473 35.2097C220.694 35.6607 219.064 36.0758 217.674 36.8893C217.273 37.1238 216.894 37.2757 216.56 37.4085L216.359 37.4898C216.195 37.558 215.948 37.6597 215.882 37.7123C215.488 38.1227 215.037 38.393 214.549 38.5126C213.596 38.7459 212.66 39.3225 211.755 39.88C211.676 39.9302 211.588 39.9769 211.498 40.0188C210.933 40.5367 210.332 40.8801 209.795 41.1875C209.463 41.3777 209.149 41.5584 208.921 41.7402C208.614 41.9866 208.291 42.2163 207.968 42.4448C207.391 42.8563 206.89 43.2116 206.568 43.6279C206.214 44.0861 205.822 44.3911 205.508 44.6376C205.359 44.7536 205.219 44.8624 205.15 44.9378L204.89 45.2177C204.689 45.4331 204.516 45.6173 204.401 45.7896C204.015 46.3554 203.531 47.0086 202.85 47.6031C202.66 47.7694 202.428 48.1498 202.207 48.5171L202.025 48.8149C201.868 49.0661 201.692 49.3018 201.512 49.5351C201.369 49.7229 201.205 49.9346 201.165 50.0411C200.885 50.7852 200.358 51.1991 200.056 51.4264C199.644 52.2267 199.136 52.9122 198.681 53.527C198.335 53.9912 198.01 54.4302 197.761 54.8669C197.763 54.8693 197.747 54.9219 197.731 54.9721L197.672 55.1396C197.515 55.5762 197.265 56.2761 196.646 56.8694C196.313 58.0095 195.779 59.0048 195.302 59.8924C195.125 60.225 194.944 60.5587 194.778 60.8985C194.61 61.2394 194.467 61.6485 194.314 62.0828C194.137 62.59 193.935 63.1654 193.656 63.73C193.223 64.6105 192.898 65.5687 192.553 66.5819C192.34 67.204 192.128 67.8261 191.889 68.4385C191.736 68.8345 191.578 69.2293 191.42 69.6241C190.958 70.7749 190.522 71.8635 190.198 72.982C190.047 73.5036 189.893 74.0239 189.736 74.5443C189.256 76.1545 188.802 77.6738 188.484 79.2361C188.311 80.0842 188.197 80.93 188.133 81.82C188.091 82.4062 187.954 82.9182 187.833 83.3704L187.74 83.7329C187.686 83.9578 187.619 84.1851 187.553 84.4112C187.47 84.6923 187.391 84.9567 187.37 85.1493C187.215 86.4783 186.764 87.665 186.365 88.7105C186.14 89.3039 185.927 89.8626 185.778 90.4093C185.534 91.3065 185.238 92.1809 184.981 92.931C184.779 93.516 184.477 94.3892 183.743 95.1345C183.707 95.2195 183.684 95.3104 183.658 95.3977C183.213 96.8021 182.615 98.0953 182.036 99.3454C181.823 99.8048 181.612 100.264 181.408 100.726C181.151 101.314 180.826 101.836 180.541 102.268C180.165 102.84 179.889 103.541 179.598 104.285C179.311 105.019 179.013 105.78 178.577 106.542C178.294 107.043 177.955 107.627 177.574 108.199C177.061 108.968 176.663 109.741 176.357 110.56C175.967 111.606 175.377 112.933 174.249 113.988C173.928 114.603 173.523 115.08 173.182 115.479C173.045 115.64 172.908 115.8 172.783 115.969L172.334 116.581C171.286 118.016 170.203 119.499 168.79 120.814C168.215 121.347 167.669 121.949 167.091 122.584L166.498 123.233C165.647 124.151 164.716 124.959 163.813 125.741L163.668 125.867C162.745 126.666 161.619 127.18 160.715 127.593L160.221 127.817C159.656 128.068 159.122 128.306 158.661 128.585C157.933 129.024 156.927 129.539 155.588 129.63C155.361 129.646 155.018 129.757 154.66 129.875C154.476 129.935 154.291 129.995 154.108 130.05C152.816 130.428 151.541 130.615 150.307 130.793C149.821 130.865 149.335 130.934 148.852 131.018C146.043 131.5 143.058 131.659 139.452 131.511C138.25 131.463 137.092 131.163 136.101 130.885C135.5 130.716 134.943 130.512 134.405 130.314C133.829 130.102 133.281 129.902 132.754 129.774C132.386 129.683 132.091 129.543 131.877 129.441C131.823 129.416 131.77 129.387 131.714 129.367C131.407 129.274 131.077 129.188 130.746 129.1C130.279 128.977 129.816 128.856 129.371 128.71C128.873 128.548 128.362 128.42 127.853 128.29C126.919 128.052 125.954 127.806 124.975 127.379L124.865 127.329C124.837 127.315 124.808 127.302 124.78 127.29C124.516 127.277 124.258 127.232 124.015 127.154C124.179 127.445 124.348 127.721 124.526 127.979C124.958 128.601 125.501 129.208 126.191 129.834C126.654 130.255 127.25 130.605 127.877 130.976C128.417 131.297 128.976 131.626 129.532 132.041C130.052 132.427 130.553 132.839 131.054 133.251C132.062 134.079 133.013 134.863 134.062 135.363C134.668 135.652 135.16 136.01 135.597 136.327C135.948 136.581 136.251 136.801 136.533 136.929C137.124 137.197 137.638 137.67 137.935 138.229C137.976 138.273 138.062 138.34 138.143 138.413C138.265 138.526 138.385 138.638 138.501 138.757C139.721 140.011 141.325 140.86 143.024 141.758L143.328 141.916C143.761 142.141 144.279 142.408 144.771 142.844C145.43 143.13 145.93 143.542 146.318 143.859C146.521 144.026 146.714 144.183 146.849 144.258C147.345 144.527 147.826 144.82 148.309 145.115C149.014 145.544 149.68 145.951 150.355 146.246C151.668 146.818 152.678 147.683 153.525 148.449C153.794 148.689 154.202 148.922 154.636 149.169L154.987 149.37C156.35 150.162 157.571 150.871 158.879 151.329C160.277 151.816 161.384 152.705 162.363 153.49L162.527 153.623C162.669 153.736 162.863 153.894 162.937 153.925C163.104 153.972 163.451 154.069 163.808 154.331C164.452 154.796 165.187 155.2 165.967 155.63L166.454 155.899C167.319 156.381 167.94 157.016 168.488 157.575C168.767 157.86 169.031 158.129 169.284 158.33C169.819 158.756 170.201 159.246 170.508 159.639C170.743 159.94 170.965 160.225 171.137 160.322C171.521 160.539 171.897 160.78 172.272 161.019C172.764 161.336 173.23 161.635 173.676 161.84L173.826 161.909C174.583 162.256 175.297 162.583 175.969 162.674C176.774 162.782 177.434 163.09 178.041 163.396C178.735 163.747 179.288 163.907 179.834 163.916C181.131 163.94 182.236 164.45 183.053 164.891C183.344 165.048 183.65 165.132 184.048 165.163L184.682 165.204C185.677 165.263 186.802 165.33 187.937 165.724C188.577 165.947 189.286 166.048 190.307 166.065L190.75 166.071C191.991 166.087 193.393 166.102 194.815 166.563C195.285 166.585 195.745 166.603 196.206 166.622C197.223 166.661 198.237 166.701 199.251 166.774C200.728 166.882 202.675 167.095 204.631 167.797C204.658 167.807 204.687 167.819 204.714 167.829C205.997 167.948 207.209 168.218 208.384 168.48C208.816 168.577 209.249 168.674 209.683 168.761C210.82 168.656 211.818 168.881 212.708 169.081C213.232 169.198 213.727 169.309 214.157 169.326C215.034 169.36 215.794 169.624 216.403 169.838C216.618 169.913 216.83 169.988 217.045 170.047C218.908 170.564 220.808 171.244 222.689 172.071C224.297 172.777 225.66 173.813 226.861 175.238C228.332 176.986 228.355 179.277 226.926 181.076C226.517 181.589 226.037 181.917 225.493 182.052C225.339 182.089 225.087 182.237 224.844 182.382C224.568 182.547 224.254 182.733 223.882 182.896C221.64 183.874 219.139 184.229 216.448 183.953C216.396 183.948 216.343 183.94 216.289 183.931C215.316 184.221 214.376 184.233 213.6 184.246L213.153 184.253C212.617 184.27 212.08 184.313 211.543 184.357C210.882 184.411 210.221 184.462 209.558 184.477H209.332C209.298 184.477 209.261 184.471 209.228 184.477C208.974 184.582 208.563 184.712 208.084 184.684C207.25 184.63 206.347 184.825 205.386 185.023C204.584 185.189 203.754 185.357 202.86 185.424C202.389 185.455 201.963 185.429 201.642 185.403C201.415 185.384 201.34 185.398 201.332 185.4C200.674 185.744 200.026 185.782 199.599 185.807L199.49 185.813C198.762 185.862 198.054 185.856 197.371 185.844C196.597 185.835 195.861 185.825 195.169 185.904C194.552 185.972 193.885 185.928 193.241 185.777C192.591 185.625 191.838 185.638 191.04 185.653C190.5 185.661 189.942 185.673 189.353 185.635L188.542 185.588C186.66 185.483 184.711 185.374 182.734 184.632C182.295 184.466 181.751 184.405 181.123 184.332C180.473 184.258 179.739 184.173 178.985 183.949C178.477 183.796 177.887 183.724 177.262 183.649C176.459 183.552 175.551 183.442 174.623 183.136C174.032 182.941 173.25 182.819 172.231 182.764C171.331 182.716 170.507 182.492 169.707 182.085C169.446 181.953 169.188 181.815 168.932 181.678C168.32 181.352 167.744 181.045 167.168 180.825C166.24 180.468 165.487 180.036 164.859 179.501C164.829 179.49 164.74 179.463 164.655 179.43C164.416 179.364 163.838 179.199 163.374 178.67C163.165 178.434 162.795 178.214 162.365 177.959C161.809 177.632 161.127 177.225 160.529 176.598C158.867 175.594 157.177 174.465 155.327 173.125C155.137 172.987 154.845 172.847 154.534 172.698C154.148 172.514 153.711 172.305 153.27 172.01C152.751 171.664 152.225 171.333 151.698 171.001C151.141 170.651 150.584 170.301 150.036 169.934C149.542 169.604 149.026 169.306 148.511 169.007C148.087 168.761 147.662 168.515 147.247 168.254L146.979 168.089C146.4 167.73 145.742 167.323 145.123 166.761C145.025 166.67 144.816 166.547 144.614 166.427C144.197 166.182 143.678 165.874 143.199 165.371C142.725 164.871 142.12 164.427 141.479 163.955C140.938 163.556 140.379 163.145 139.833 162.657C139.779 162.608 139.725 162.556 139.663 162.519C137.953 161.896 136.596 160.749 135.504 159.712C135.378 159.591 135.221 159.489 134.977 159.372C133.997 158.898 133.147 158.36 132.382 157.722C131.04 156.608 129.35 155.778 127.86 155.045L127.484 154.862C126.611 154.441 125.622 153.962 124.723 153.186C124.659 153.132 124.447 153.022 124.292 152.941C124.083 152.832 123.874 152.721 123.675 152.597C122.47 151.852 121.493 150.921 120.696 150.11C120.504 149.914 120.316 149.716 120.129 149.517C119.679 149.038 119.255 148.585 118.807 148.253C118.601 148.099 118.402 147.939 118.204 147.779C117.767 147.425 117.389 147.12 117.055 147.025C116.44 146.85 115.89 146.481 115.464 145.958C115.1 145.514 114.648 145.122 114.151 144.743C114.204 145.965 114.255 147.224 114.264 148.48C114.266 148.96 114.331 149.482 114.397 150.036L114.43 150.317C114.509 150.987 114.497 151.593 114.391 152.17C114.384 152.209 114.38 152.24 114.376 152.261C114.833 153.131 114.993 154.01 115.121 154.724C115.163 154.959 115.206 155.196 115.26 155.427C115.37 155.891 115.471 156.355 115.57 156.819C115.734 157.588 115.889 158.312 116.09 159.015L116.247 159.55C116.485 160.349 116.756 161.255 116.85 162.255C116.903 162.806 117.139 163.433 117.377 164.028C117.757 164.975 118.151 166.243 117.848 167.684C118.143 169.784 117.814 171.721 117.496 173.596L117.359 174.42C117.238 175.163 117.097 175.903 116.955 176.642C116.739 177.77 116.533 178.836 116.41 179.907C116.24 181.374 116.067 182.569 115.869 183.667C115.871 183.693 115.904 183.881 115.93 184.017C115.956 184.168 115.983 184.32 116.004 184.472C116.122 185.36 116.074 186.199 116.03 186.941C116.01 187.307 115.987 187.672 115.991 188.039C116 189.14 116.089 190.234 116.183 191.394C116.246 192.159 116.308 192.924 116.346 193.692L116.382 194.393C116.427 195.216 116.47 196.046 116.49 196.869C116.513 197.712 116.485 198.545 116.461 199.35C116.418 200.719 116.377 202.009 116.568 203.244C116.68 203.975 116.623 204.621 116.573 205.191C116.549 205.458 116.521 205.724 116.531 205.992L116.547 206.586C116.565 207.231 116.58 207.84 116.682 208.381C116.749 208.734 116.747 209.039 116.747 209.261V209.364C116.759 210.613 116.894 211.509 117.185 212.267C117.261 212.471 117.411 212.865 117.405 213.363C117.395 214.086 117.538 214.874 117.688 215.705C117.745 216.027 117.804 216.347 117.854 216.668L117.907 216.996C118.146 218.517 118.372 219.951 118.794 221.314C118.969 221.883 119.105 222.474 119.235 223.235C119.289 223.543 119.33 223.857 119.371 224.171C119.46 224.851 119.538 225.441 119.747 225.908C120.039 226.564 120.024 227.221 120.018 227.572C120.006 228.136 120.162 228.695 120.492 229.276C120.935 230.057 121.106 230.848 121.231 231.528C121.383 232.359 121.748 233.176 122.208 234.157C122.773 235.355 123.13 236.452 123.297 237.51C123.548 239.095 123.107 240.534 122.09 241.456C121.512 241.979 120.235 242.773 118.175 242.239C116.547 241.815 115.039 241.009 113.693 239.838C113.248 239.453 112.926 239.036 112.645 238.67C112.47 238.444 112.306 238.231 112.161 238.094C112.083 238.019 112.009 237.941 111.942 237.857C111.332 237.467 110.828 237.019 110.379 236.619C110.015 236.296 109.674 235.992 109.341 235.776C108.746 235.39 108.383 234.91 108.118 234.562C108.044 234.464 107.975 234.361 107.887 234.274C106.989 233.392 106.242 232.359 105.599 231.118C104.746 229.47 104.364 227.812 103.994 226.209L103.876 225.701C103.653 224.749 103.541 223.821 103.432 222.924C103.328 222.066 103.23 221.256 103.046 220.492C102.734 219.209 102.697 217.95 102.663 216.731L102.655 216.506C102.64 215.97 102.617 215.454 102.519 215.016C102.418 214.569 102.342 214.119 102.264 213.669C102.126 212.857 101.995 212.091 101.714 211.461C101.481 210.942 101.473 210.453 101.47 210.189C101.467 210.151 101.466 210.116 101.464 210.089C100.866 209.394 100.555 208.614 100.349 207.989C100.204 207.548 99.8951 207.105 99.5382 206.593L99.355 206.328C98.9407 205.724 98.7299 205.136 98.5599 204.665C98.094 203.377 98.1108 202.179 98.1874 201.179C98.2593 200.257 98.2437 199.289 98.1443 198.302C98.0521 197.416 98.1659 196.578 98.2677 195.84C98.2928 195.655 98.318 195.468 98.3395 195.284C98.3551 195.164 98.3719 195.049 98.391 194.932C98.3994 194.88 98.4102 194.827 98.4162 194.774C98.2389 193.601 98.403 192.528 98.591 191.63C98.864 190.324 98.8245 188.942 98.7515 187.4C98.7311 186.964 98.7263 186.525 98.7263 186.086C98.7203 185.43 98.7167 184.812 98.6461 184.234C98.4593 182.734 98.3024 181.231 98.1803 179.767C98.0869 178.625 97.9599 177.486 97.8354 176.347C97.6977 175.081 97.5588 173.816 97.4594 172.549C97.3696 171.385 97.1672 170.234 96.9516 169.014C96.8187 168.251 96.6834 167.487 96.5768 166.718L96.3517 165.153C96.1086 163.487 95.8571 161.767 95.7002 160.033C95.6859 159.958 95.6488 159.87 95.6176 159.779C95.5122 159.469 95.3685 159.046 95.329 158.524C95.2715 157.752 95.1781 156.984 95.0871 156.216C94.9458 155.026 94.7997 153.798 94.765 152.529C94.747 151.862 94.6704 151.357 94.5207 150.937C94.3339 150.409 94.2429 149.846 94.2513 149.265C94.2585 148.748 94.2153 148.339 94.11 147.976C94.0681 147.843 93.9411 147.446 94.0225 146.934C94.0704 146.647 94.001 146.252 93.922 145.794C93.8286 145.262 93.7232 144.657 93.7471 143.973C93.7651 143.527 93.6405 143 93.5136 142.497C93.3735 141.945 93.2669 141.398 93.1819 140.855C93.1987 141.805 93.0023 142.664 92.8262 143.43C92.7328 143.839 92.6442 144.227 92.6011 144.58C92.5484 145.007 92.4598 145.427 92.3688 145.846C92.2826 146.244 92.1988 146.618 92.1796 146.944C92.0754 148.573 91.9173 150.469 91.3689 152.34C91.2036 152.904 91.0743 153.473 90.9438 154.045C90.763 154.836 90.5738 155.654 90.3007 156.488C89.9403 157.579 89.7235 158.8 89.6517 160.116C89.6325 160.451 89.6193 160.788 89.605 161.126C89.5547 162.327 89.5044 163.568 89.2745 164.841C89.1044 165.781 88.8098 166.619 88.526 167.43C88.4087 167.762 88.2925 168.095 88.1883 168.43C88.15 168.554 88.1045 168.663 88.0602 168.754C87.8806 169.816 87.5022 170.756 87.1657 171.594L87.0819 171.803C86.8388 172.416 86.7454 173.118 86.7801 174.078L86.8064 174.639C86.8507 175.505 86.901 176.474 86.6975 177.503C87.0615 178.767 87.0136 179.973 86.9717 181.053C86.9501 181.573 86.9322 182.065 86.9609 182.514C87.01 183.267 86.9717 183.98 86.9358 184.668C86.9106 185.12 86.8867 185.571 86.895 186.016C86.931 187.914 86.6927 189.804 86.1682 191.797C85.5383 194.19 84.7934 196.475 83.9552 198.587C83.8091 198.958 83.6307 199.269 83.4882 199.517L83.4271 199.628C83.3636 199.74 83.3301 199.809 83.3133 199.849C83.4235 200.6 83.2798 201.237 83.1349 201.776L82.8595 202.804C82.5661 203.895 82.2739 204.984 81.9985 206.081C81.7602 207.034 81.4871 207.877 81.165 208.658C81.0225 209.005 80.9183 209.435 80.807 209.89C80.71 210.296 80.6106 210.7 80.4836 211.095C79.9531 212.758 79.9436 214.508 80.0022 216.002C80.0286 216.661 79.9939 217.243 79.8981 217.781C79.7819 218.425 79.7915 218.871 79.9268 219.272C80.1196 219.845 80.1136 220.377 80.1088 220.73C80.104 221.477 80.0897 222.134 80.0765 222.791L80.0669 223.286C80.2873 223.888 80.3687 224.45 80.4357 224.921C80.4848 225.262 80.5327 225.584 80.613 225.785C81.4321 227.804 81.9338 229.672 82.1494 231.5C82.3062 232.814 82.4667 234.173 82.7433 235.479C82.9637 236.517 82.8415 237.449 82.7337 238.273C82.6966 238.56 82.6583 238.847 82.6415 239.136C82.5637 240.644 81.4129 241.399 80.9207 241.721C80.5387 241.97 80.1723 242.107 79.9041 242.208C79.8202 242.239 79.734 242.265 79.6574 242.307C79.3017 242.601 78.9185 242.715 78.4515 242.715ZM77.7138 238.703H77.8923C78.1186 238.59 78.3269 238.512 78.4934 238.45C78.5545 238.426 78.6179 238.407 78.6778 238.381C78.6994 238.17 78.7269 237.962 78.7533 237.753C78.8287 237.175 78.8934 236.676 78.8155 236.308C78.5018 234.827 78.3293 233.374 78.1629 231.97C77.9881 230.501 77.5737 228.971 76.8923 227.291C76.6265 226.638 76.5343 226.003 76.4612 225.492C76.4074 225.119 76.3583 224.77 76.2613 224.576C76.0014 224.078 76.0277 223.602 76.0481 223.387L76.0625 222.706C76.0756 222.068 76.0888 221.431 76.0924 220.792L76.0936 220.682C76.0948 220.61 76.0984 220.54 76.0948 220.47C75.7619 219.443 75.714 218.358 75.9439 217.073C75.9882 216.824 76.0038 216.524 75.9894 216.158C75.9188 214.424 75.9331 212.143 76.6576 209.872C76.7546 209.567 76.8289 209.255 76.9043 208.945C77.0384 208.389 77.1905 207.761 77.4504 207.131C77.6983 206.528 77.9114 205.864 78.103 205.103C78.382 203.986 78.6802 202.874 78.9796 201.762L79.2538 200.736C79.2754 200.661 79.3316 200.445 79.3352 200.373C79.1053 199.113 79.7005 198.056 79.9244 197.656L79.9951 197.534C80.0741 197.394 80.1591 197.258 80.2202 197.105C80.9986 195.14 81.6931 193.009 82.2835 190.77C82.7134 189.141 82.9074 187.609 82.8786 186.089C82.8691 185.549 82.8966 185.001 82.9241 184.452C82.9565 183.854 82.9876 183.288 82.9529 182.772C82.9098 182.113 82.9337 181.493 82.9577 180.893C82.996 179.937 83.0283 179.113 82.7768 178.424C82.5553 177.814 82.626 177.244 82.723 176.872C82.8703 176.301 82.8367 175.628 82.796 174.847L82.7661 174.224C82.711 172.701 82.8966 171.457 83.3528 170.315L83.4391 170.099C83.7492 169.326 84.0426 168.595 84.1264 167.908C84.1731 167.524 84.3108 167.233 84.4126 167.051C84.5144 166.734 84.6258 166.418 84.7372 166.1C84.9802 165.406 85.2102 164.751 85.3239 164.125C85.5036 163.123 85.5479 162.069 85.5946 160.956C85.6101 160.603 85.6233 160.25 85.6425 159.897C85.7323 158.227 86.0173 156.659 86.4867 155.232C86.7034 154.575 86.8627 153.88 87.0316 153.145C87.1801 152.497 87.3297 151.849 87.5177 151.21C87.95 149.736 88.083 148.101 88.1728 146.685C88.2135 146.057 88.338 145.49 88.447 144.99C88.5129 144.691 88.5799 144.392 88.6182 144.087C88.6877 143.531 88.8039 143.024 88.9152 142.534C89.0697 141.862 89.2026 141.281 89.1631 140.772C89.1344 140.357 89.2242 140.029 89.2864 139.85C89.593 138.23 89.5595 136.567 89.4757 135.007L89.4541 134.665C89.4134 134.048 89.3679 133.349 89.52 132.563C89.6936 131.658 89.6313 130.695 89.5307 129.533C89.5056 129.229 89.4673 128.928 89.4301 128.628C89.3415 127.909 89.2421 127.095 89.2781 126.232C89.29 125.95 89.3152 125.665 89.3403 125.382C89.393 124.819 89.4373 124.333 89.3272 124.001C89.1344 123.419 89.2158 122.905 89.2541 122.66C89.3092 121.323 90.2025 120.311 91.5329 120.092C92.764 119.893 93.8968 120.428 94.4704 121.502C94.7003 121.931 94.874 122.372 95.0009 122.851C95.2536 123.796 95.353 124.706 95.45 125.586C95.517 126.196 95.5805 126.771 95.6907 127.313C95.8691 128.19 95.9673 129.211 95.99 130.432C96.0068 131.248 96.1852 132.096 96.3756 132.994C96.4331 133.263 96.4894 133.53 96.5421 133.797C96.754 134.867 96.8055 135.876 96.857 136.854L96.8798 137.276C96.9576 138.663 97.0642 140.135 97.4127 141.513C97.6031 142.263 97.803 143.147 97.7671 144.123C97.7575 144.384 97.8186 144.735 97.8845 145.106C97.9851 145.679 98.106 146.373 98.0461 147.144C98.2174 147.853 98.2856 148.552 98.2737 149.327C98.2713 149.43 98.2844 149.518 98.312 149.598C98.6054 150.427 98.7563 151.325 98.7862 152.426C98.8137 153.509 98.9443 154.594 99.0808 155.742C99.1802 156.569 99.2784 157.396 99.3406 158.226C99.355 158.302 99.3945 158.394 99.4257 158.487C99.5263 158.781 99.6628 159.184 99.7071 159.675C99.8532 161.298 100.096 162.964 100.331 164.576L100.56 166.164C100.66 166.887 100.786 167.605 100.913 168.322C101.134 169.582 101.363 170.884 101.469 172.237C101.564 173.46 101.699 174.685 101.834 175.909C101.962 177.084 102.092 178.259 102.189 179.436C102.307 180.846 102.458 182.294 102.636 183.739C102.738 184.551 102.744 185.318 102.749 186.061C102.751 186.443 102.752 186.827 102.771 187.21C102.854 188.965 102.898 190.684 102.531 192.451C102.407 193.035 102.307 193.651 102.4 194.207C102.492 194.772 102.416 195.252 102.364 195.569L102.339 195.747C102.314 195.956 102.285 196.169 102.257 196.382C102.181 196.948 102.108 197.48 102.15 197.893C102.275 199.119 102.292 200.329 102.203 201.489C102.139 202.314 102.181 202.842 102.348 203.305C102.477 203.663 102.564 203.892 102.678 204.06L102.845 204.3C103.314 204.974 103.846 205.736 104.174 206.732C104.265 207.007 104.389 207.346 104.545 207.498C105.337 208.283 105.434 209.302 105.477 209.735C105.487 209.846 105.492 209.956 105.495 210.065C105.909 211.079 106.08 212.093 106.233 212.996C106.298 213.376 106.362 213.758 106.447 214.132C106.624 214.916 106.66 215.676 106.68 216.385L106.686 216.61C106.717 217.669 106.747 218.669 106.96 219.544C107.201 220.538 107.318 221.505 107.431 222.439C107.532 223.266 107.626 224.048 107.799 224.786L107.92 225.305C108.248 226.729 108.559 228.074 109.178 229.272C109.631 230.144 110.118 230.823 110.713 231.409C110.976 231.665 111.173 231.926 111.332 232.134C111.413 232.24 111.523 232.386 111.568 232.426C112.131 232.789 112.626 233.23 113.062 233.618C113.478 233.988 113.871 234.337 114.255 234.556C114.67 234.791 114.918 235.108 115.042 235.28C115.358 235.597 115.612 235.922 115.836 236.214C116.022 236.454 116.198 236.682 116.342 236.806C117.226 237.577 118.162 238.082 119.198 238.35C119.261 238.366 119.315 238.377 119.359 238.384C119.36 238.317 119.356 238.234 119.34 238.132C119.232 237.456 118.984 236.711 118.583 235.858C118.121 234.876 117.547 233.653 117.29 232.247C117.222 231.873 117.144 231.49 117.009 231.252C116.32 230.039 115.986 228.771 116.011 227.482C116.012 227.444 116.015 227.406 116.015 227.368C115.627 226.426 115.504 225.505 115.398 224.689C115.364 224.427 115.328 224.167 115.285 223.908C115.185 223.322 115.085 222.887 114.964 222.493C114.457 220.857 114.197 219.208 113.947 217.615L113.894 217.289C113.848 216.997 113.794 216.706 113.742 216.415C113.58 215.514 113.412 214.586 113.396 213.576C112.834 212.016 112.749 210.533 112.738 209.397V209.252C112.738 209.193 112.741 209.134 112.736 209.077C112.579 208.261 112.561 207.458 112.541 206.683L112.523 206.134C112.506 205.656 112.545 205.218 112.579 204.834C112.614 204.44 112.645 204.1 112.605 203.849C112.359 202.25 112.408 200.71 112.453 199.221C112.478 198.437 112.501 197.698 112.482 196.965C112.462 196.175 112.42 195.384 112.379 194.597L112.343 193.889C112.306 193.165 112.246 192.438 112.187 191.714C112.09 190.535 111.992 189.314 111.981 188.069C111.977 187.615 112.002 187.16 112.028 186.705C112.063 186.088 112.098 185.504 112.029 184.996C112.016 184.903 111.999 184.809 111.983 184.718C111.904 184.273 111.795 183.665 111.923 182.948C112.107 181.934 112.266 180.82 112.428 179.438C112.569 178.22 112.798 177.031 113.018 175.88C113.153 175.179 113.288 174.478 113.4 173.774L113.543 172.917C113.827 171.244 114.096 169.662 113.866 168.152C113.804 167.737 113.823 167.292 113.924 166.861C113.994 166.554 113.917 166.161 113.657 165.512C113.325 164.682 112.961 163.707 112.859 162.626C112.802 162.016 112.609 161.37 112.405 160.687L112.235 160.109C111.998 159.276 111.821 158.45 111.65 157.649C111.558 157.215 111.464 156.778 111.361 156.348C111.289 156.047 111.233 155.74 111.178 155.433C111.08 154.887 110.993 154.416 110.814 154.092C110.389 153.327 110.265 152.433 110.447 151.436C110.48 151.258 110.481 151.051 110.449 150.781L110.417 150.511C110.34 149.87 110.258 149.206 110.253 148.495C110.246 147.22 110.189 145.904 110.132 144.633C110.058 142.916 109.982 141.142 110.016 139.362C110.022 139.038 110.045 138.709 110.08 138.384C110.196 137.24 111.156 136.368 112.314 136.368C112.319 136.368 112.324 136.368 112.329 136.368C113.457 136.368 114.384 137.213 114.521 138.386C114.534 138.495 114.545 138.607 114.551 138.721C114.552 138.733 114.554 138.745 114.555 138.755C114.937 139.32 115.198 139.946 115.348 140.659C116.398 141.375 117.513 142.165 118.442 143.245C119.419 143.583 120.145 144.168 120.736 144.649C120.893 144.775 121.051 144.903 121.212 145.024C121.945 145.568 122.54 146.202 123.065 146.762C123.232 146.939 123.397 147.116 123.567 147.29C124.231 147.963 124.958 148.658 125.796 149.176C125.911 149.247 126.032 149.308 126.154 149.372C126.503 149.553 126.938 149.78 127.356 150.141C127.854 150.571 128.496 150.881 129.239 151.241L129.641 151.437C131.331 152.267 133.247 153.209 134.955 154.629C135.467 155.053 136.048 155.421 136.731 155.751C137.355 156.053 137.849 156.384 138.278 156.795C139.112 157.586 140.035 158.374 141.125 158.775C141.743 159 142.218 159.389 142.522 159.66C142.922 160.019 143.381 160.358 143.867 160.715C144.619 161.269 145.396 161.842 146.115 162.597C146.208 162.694 146.439 162.831 146.663 162.964C147.006 163.168 147.433 163.419 147.838 163.79C148.176 164.098 148.603 164.363 149.097 164.667L149.383 164.842C149.759 165.079 150.144 165.303 150.53 165.525C151.12 165.868 151.71 166.211 152.272 166.589C152.787 166.932 153.314 167.262 153.84 167.594C154.399 167.946 154.958 168.297 155.506 168.663C155.708 168.797 155.982 168.931 156.273 169.07C156.71 169.278 157.205 169.515 157.692 169.868C159.463 171.15 161.072 172.227 162.614 173.155C162.818 173.278 163.127 173.479 163.412 173.789C163.633 174.031 163.996 174.247 164.419 174.499C164.912 174.791 165.504 175.141 166.048 175.654C166.065 175.66 166.078 175.666 166.094 175.672C166.518 175.835 167.01 176.041 167.479 176.445C167.748 176.675 168.118 176.879 168.607 177.068C169.416 177.377 170.133 177.759 170.826 178.129C171.062 178.255 171.299 178.382 171.538 178.504C171.835 178.656 172.116 178.73 172.453 178.749C173.848 178.824 174.939 179.004 175.885 179.316C176.434 179.497 177.073 179.574 177.749 179.656C178.478 179.744 179.307 179.845 180.145 180.096C180.557 180.219 181.057 180.277 181.586 180.338C182.364 180.426 183.249 180.527 184.153 180.868C185.554 181.393 187.117 181.48 188.77 181.571L189.609 181.62C190.064 181.65 190.519 181.639 190.976 181.632C191.935 181.609 193.023 181.596 194.159 181.861C194.36 181.906 194.57 181.924 194.735 181.905C195.67 181.802 196.562 181.811 197.423 181.825C198.058 181.833 198.654 181.839 199.23 181.801L199.366 181.791C199.442 181.788 199.516 181.786 199.589 181.778C200.508 181.331 201.395 181.341 201.99 181.395C202.147 181.41 202.382 181.425 202.571 181.412C203.203 181.365 203.873 181.229 204.579 181.084C205.597 180.875 206.766 180.645 207.955 180.658C208.534 180.456 209.045 180.464 209.339 180.456L209.48 180.455C210.062 180.444 210.643 180.396 211.222 180.35C211.828 180.301 212.432 180.253 213.041 180.235L213.546 180.224C214.242 180.214 214.843 180.205 215.296 180.027C215.983 179.75 216.591 179.887 216.885 179.951C218.887 180.159 220.657 179.918 222.277 179.21C222.458 179.132 222.624 179.027 222.795 178.925C223.112 178.738 223.48 178.517 223.924 178.342C224.007 178.14 223.938 177.988 223.791 177.812C222.983 176.857 222.12 176.196 221.073 175.737C219.344 174.976 217.677 174.377 215.977 173.909C215.675 173.825 215.377 173.722 215.08 173.618C214.669 173.476 214.281 173.34 214.006 173.33C213.207 173.299 212.475 173.134 211.83 172.989C211.107 172.826 210.485 172.683 209.957 172.764C209.525 172.823 209.169 172.749 209.017 172.715C208.507 172.613 208.01 172.502 207.512 172.391C206.341 172.129 205.237 171.882 204.141 171.801C203.704 171.768 203.383 171.62 203.228 171.55C202.106 171.146 200.778 170.902 198.965 170.771C197.994 170.701 197.023 170.663 196.049 170.624C195.54 170.605 195.031 170.584 194.523 170.561C194.227 170.547 193.917 170.489 193.616 170.386C192.774 170.101 191.77 170.089 190.706 170.076L190.241 170.07C189.264 170.053 187.97 169.974 186.624 169.508C186.013 169.296 185.252 169.249 184.444 169.202C184.212 169.187 183.979 169.174 183.749 169.156C182.787 169.084 181.936 168.842 181.144 168.413C180.761 168.205 180.199 167.93 179.766 167.922C178.598 167.9 177.477 167.597 176.234 166.972C176 166.852 175.64 166.672 175.44 166.645C174.171 166.475 173.099 165.984 172.154 165.551L172.008 165.484C171.302 165.159 170.692 164.768 170.104 164.39C169.793 164.19 169.482 163.991 169.162 163.81C168.293 163.318 167.766 162.642 167.343 162.101C167.138 161.84 166.947 161.595 166.785 161.465C166.337 161.11 165.956 160.721 165.619 160.377C165.21 159.959 164.857 159.599 164.498 159.401L164.027 159.14C163.249 158.712 162.445 158.269 161.66 157.723C160.9 157.464 160.387 157.05 160.003 156.74L159.902 156.66C159.051 155.977 158.301 155.374 157.555 155.113C155.883 154.531 154.436 153.691 153.036 152.876L152.652 152.655C152.078 152.329 151.428 151.959 150.832 151.423C150.191 150.844 149.505 150.251 148.748 149.921C147.821 149.516 147.005 149.017 146.215 148.536C145.792 148.278 145.368 148.017 144.933 147.78C144.46 147.525 144.077 147.209 143.77 146.958C143.546 146.775 143.27 146.547 143.142 146.512C142.758 146.407 142.378 146.155 142.112 145.849C142.004 145.745 141.731 145.605 141.488 145.478L141.148 145.301C139.248 144.298 137.283 143.259 135.624 141.55C135.56 141.485 135.493 141.425 135.427 141.364C135.185 141.141 134.87 140.854 134.591 140.442C134.067 140.169 133.631 139.854 133.241 139.57C132.902 139.324 132.608 139.111 132.332 138.98C130.842 138.268 129.654 137.291 128.504 136.347C128.053 135.975 127.6 135.603 127.132 135.255C126.748 134.968 126.305 134.706 125.835 134.43C125.096 133.993 124.261 133.499 123.492 132.801C122.573 131.97 121.832 131.137 121.225 130.259C120.692 129.489 120.276 128.695 119.874 127.927C119.732 127.654 119.589 127.382 119.442 127.112C118.911 126.143 118.759 125.179 118.637 124.401L118.583 124.069C118.43 123.163 118.745 122.315 119.423 121.802C120.102 121.285 121.009 121.216 121.844 121.607C121.987 121.676 122.121 121.749 122.255 121.827C122.303 121.852 122.347 121.881 122.397 121.905C123.352 122.155 124.419 122.52 125.36 123.305C125.86 123.374 126.256 123.551 126.515 123.667C127.265 123.996 128.035 124.191 128.847 124.398C129.441 124.55 130.036 124.703 130.619 124.893C130.992 125.015 131.378 125.114 131.766 125.216C132.147 125.315 132.532 125.416 132.907 125.532C133.145 125.605 133.376 125.706 133.603 125.814C133.657 125.839 133.709 125.867 133.764 125.888C134.46 126.057 135.136 126.305 135.79 126.545C136.254 126.716 136.715 126.886 137.189 127.02C137.993 127.245 138.845 127.469 139.614 127.498C142.928 127.628 145.648 127.492 148.171 127.061C148.69 126.971 149.208 126.896 149.729 126.819C150.873 126.654 151.954 126.496 152.974 126.197C153.118 126.155 153.263 126.107 153.409 126.059C153.96 125.879 154.586 125.674 155.313 125.625C155.697 125.599 156.066 125.46 156.586 125.149C157.258 124.742 157.932 124.442 158.582 124.151L159.044 123.943C159.75 123.62 160.551 123.255 161.038 122.833L161.181 122.709C162.002 121.998 162.85 121.263 163.549 120.509L164.117 119.885C164.726 119.215 165.355 118.523 166.054 117.873C167.185 116.822 168.111 115.555 169.09 114.213L169.549 113.588C169.727 113.344 169.924 113.111 170.122 112.878C170.4 112.551 170.641 112.268 170.728 112.038C170.943 111.474 171.332 111.161 171.552 111.01C172.038 110.529 172.351 109.807 172.592 109.157C173.01 108.042 173.545 107 174.232 105.97C174.54 105.509 174.812 105.036 175.085 104.556C175.377 104.043 175.609 103.449 175.857 102.821C176.195 101.959 176.578 100.983 177.184 100.061C177.376 99.7713 177.589 99.4303 177.728 99.1145C177.943 98.624 178.166 98.1419 178.39 97.6599C178.938 96.472 179.459 95.3487 179.824 94.1907C179.967 93.7337 180.209 92.9645 180.877 92.3209C180.973 92.2288 181.102 91.8496 181.182 91.6223C181.418 90.9356 181.689 90.1341 181.902 89.3529C182.103 88.616 182.362 87.9378 182.611 87.2822C182.957 86.3742 183.284 85.5165 183.381 84.6827C183.443 84.1492 183.58 83.685 183.701 83.2747C183.75 83.1132 183.798 82.9505 183.837 82.7878C183.874 82.6347 183.913 82.4852 183.955 82.3368C184.035 82.0294 184.114 81.7387 184.128 81.5329C184.205 80.467 184.344 79.455 184.551 78.437C184.904 76.6976 185.405 75.0192 185.891 73.3959C186.043 72.8875 186.195 72.3791 186.341 71.8683C186.72 70.5571 187.214 69.325 187.692 68.1323C187.845 67.7519 187.997 67.3703 188.146 66.9875C188.364 66.4276 188.557 65.8582 188.751 65.2888C189.122 64.199 189.505 63.0733 190.051 61.9607C190.226 61.609 190.372 61.1939 190.525 60.7525C190.71 60.2285 190.9 59.6878 191.171 59.134C191.359 58.7488 191.561 58.3731 191.764 57.9963C192.216 57.1505 192.644 56.3514 192.842 55.5499C192.991 54.9566 193.331 54.4171 193.808 54.0163C193.841 53.9409 193.865 53.8608 193.893 53.7818L193.932 53.6694C194.003 53.4624 194.1 53.1813 194.272 52.8775C194.64 52.2327 195.053 51.6752 195.454 51.1357C195.9 50.5352 196.322 49.9657 196.581 49.3915C196.858 48.7778 197.323 48.4453 197.551 48.285C197.786 47.7921 198.08 47.4105 198.325 47.0899C198.424 46.9607 198.527 46.8327 198.613 46.6927L198.774 46.432C199.119 45.8625 199.548 45.1531 200.208 44.5777C200.548 44.2811 200.827 43.8995 201.079 43.531C201.367 43.1039 201.681 42.769 201.957 42.4747L202.171 42.2426C202.475 41.9077 202.788 41.6648 203.037 41.4698C203.167 41.3693 203.346 41.2294 203.39 41.1708C204.077 40.2819 204.91 39.6922 205.641 39.1706C205.901 38.9864 206.162 38.8033 206.41 38.6048C206.883 38.2267 207.372 37.9468 207.802 37.7004C208.241 37.4492 208.623 37.2302 208.859 36.985C209.189 36.6417 209.544 36.4838 209.743 36.4024C210.744 35.7875 211.861 35.1128 213.208 34.7157C213.769 34.2144 214.375 33.9644 214.83 33.7766L215.066 33.6797C215.299 33.5852 215.503 33.5051 215.648 33.4201C217.525 32.3219 219.511 31.8171 221.429 31.329C221.976 31.1903 222.43 31.1484 222.831 31.1101C223.158 31.0802 223.468 31.0515 223.646 30.9845C224.22 30.7668 224.759 30.689 225.189 30.628L225.296 30.6125C225.644 30.5622 225.995 30.5275 226.347 30.494C227.114 30.4187 227.773 30.3553 228.267 30.1005C228.536 29.9617 228.805 29.8182 229.072 29.677C229.796 29.2918 230.543 28.8946 231.34 28.5429C231.524 28.4616 231.706 28.3671 231.886 28.2738C232.47 27.9723 233.197 27.5955 234.135 27.4471C234.666 27.3634 235.289 27.1277 235.934 26.8741C236.344 26.7114 236.423 26.6229 236.452 26.4853V24.8752C236.113 24.35 235.938 24.1239 235.785 24.0976C235.782 24.0976 235.78 24.0964 235.78 24.0964L235.596 24.0641C235.239 24.0019 234.903 23.9433 234.626 23.9337C233.142 23.8823 231.621 23.9134 229.979 24.0234C229.634 24.0473 229.292 24.0653 228.948 24.0832C227.93 24.1371 226.969 24.1873 226.056 24.3763C225.238 24.5462 224.437 24.6479 223.662 24.7472C222.726 24.8668 221.842 24.9792 221.01 25.1958L220.689 25.2819C220.103 25.4422 219.439 25.624 218.699 25.6324C217.892 25.6408 217.062 25.7652 216.182 25.8968C215.657 25.9757 215.131 26.0535 214.603 26.1109C214.201 26.154 213.751 26.2784 213.275 26.4088C212.794 26.5404 212.255 26.6887 211.673 26.7796C211.607 26.8143 211.55 26.843 211.493 26.8693C211.078 27.0572 210.661 27.2282 210.241 27.3981C209.666 27.6326 209.122 27.8527 208.622 28.1111C207.962 28.4532 207.301 28.7176 206.663 28.9736C206.245 29.1423 205.828 29.3085 205.42 29.4975C205.26 29.5717 205.104 29.6495 204.946 29.7284C204.388 30.0048 203.718 30.3397 202.923 30.5228C202.424 30.9522 201.896 31.1915 201.512 31.3625C201.39 31.4176 201.268 31.4702 201.152 31.5348C200.635 31.8195 200.129 32.1198 199.62 32.42C198.846 32.877 198.043 33.3519 197.197 33.7838C196.18 34.3042 195.182 34.986 194.25 35.6416C193.699 36.0304 193.162 36.461 192.595 36.918C192.229 37.2111 191.866 37.5042 191.494 37.7889C191.255 37.9731 191 38.1394 190.742 38.3045C190.498 38.4612 190.245 38.6239 190.129 38.7423C189.654 39.2412 189.16 39.6814 188.685 40.1061C188.165 40.569 187.675 41.0069 187.265 41.4686C186.946 41.8239 186.62 42.1074 186.332 42.3563C186.063 42.5871 185.812 42.8049 185.683 42.9891C185.442 43.3288 185.025 43.9186 184.298 44.3409C183.976 44.872 183.54 45.3314 182.974 45.7357C182.404 46.9212 181.576 47.8005 180.842 48.5781L180.432 49.0183C180.038 49.4466 179.68 49.9418 179.299 50.4646C179.135 50.6907 178.972 50.9156 178.803 51.1393C178.482 51.5628 178.196 52.0114 177.908 52.4588C177.576 52.9756 177.229 53.5103 176.83 54.0402C175.434 55.8825 174.215 57.8755 172.883 60.1017C172.752 60.3207 172.606 60.5348 172.459 60.7489C172.284 61.0013 172.086 61.2872 172.05 61.4296C171.826 62.316 171.412 63.0194 171.078 63.5829L170.935 63.8186C170.871 63.9226 170.799 64.0207 170.755 64.132C170.369 65.1691 169.94 66.2757 169.336 67.3464C168.791 68.3141 168.421 69.4207 168.03 70.5918C167.741 71.4627 167.441 72.3611 167.051 73.2559C166.803 73.823 166.624 74.4618 166.433 75.1389C166.201 75.9655 165.96 76.8184 165.567 77.6809C165.547 77.7707 165.523 77.8556 165.494 77.9381C165.183 78.803 164.962 79.522 164.795 80.2206C164.582 81.1059 164.281 81.9241 163.99 82.716L163.737 83.4075C163.675 83.5833 163.616 83.7616 163.56 83.9386C163.306 84.7126 162.997 85.6577 162.341 86.5297C162.297 86.6542 162.238 86.8001 162.154 86.952C161.868 87.4712 161.676 88.1196 161.473 88.8051C161.308 89.3637 161.137 89.9403 160.896 90.5349C160.613 91.2299 160.369 91.9118 160.17 92.5661C159.706 94.0758 159.105 95.6382 158.218 97.6311C157.594 99.032 157.059 100.168 156.536 101.206C156.01 102.244 155.491 103.166 154.949 104.023C154.272 105.098 153.441 105.921 152.64 106.717C152.222 107.132 151.827 107.522 151.481 107.925C151.407 108.012 151.261 108.155 151.172 108.228L150.435 108.826C149.601 109.501 148.766 110.176 147.927 110.845C147.573 111.124 147.217 111.319 146.885 111.484C146.532 111.659 146.182 111.828 145.832 111.998C145.328 112.241 144.823 112.484 144.327 112.741C142.762 113.557 141.285 113.917 139.777 113.833C139.296 113.806 138.814 113.82 138.334 113.836L137.759 113.85C135.664 113.881 133.53 113.538 131.192 112.79C130.594 112.6 130.133 112.311 129.763 112.077C129.579 111.962 129.404 111.854 129.284 111.803C128.079 111.297 127.052 110.602 126.227 109.737C126.212 109.721 126.201 109.707 126.186 109.693C124.889 109.114 124.011 108.145 123.299 107.36L123.165 107.212C122.527 106.512 121.816 105.842 121.205 105.28C120.205 104.358 119.219 103.735 118.193 103.372C118.085 103.334 117.984 103.294 117.883 103.254C117.824 103.23 117.765 103.203 117.707 103.184C117.406 103.177 117.109 103.176 116.812 103.173C116.039 103.169 115.24 103.164 114.417 103.092C114.227 103.075 113.947 103.106 113.651 103.141C113.138 103.2 112.498 103.273 111.785 103.163C111.176 103.065 110.495 103.16 109.709 103.268C109.277 103.327 108.846 103.385 108.414 103.417C107.304 103.502 106.32 103.58 105.353 103.729C104.805 103.813 104.248 103.866 103.692 103.918C103.072 103.975 102.488 104.029 101.955 104.134C100.976 104.327 100.064 104.357 99.1826 104.384C98.7814 104.397 98.3814 104.409 97.9815 104.442C96.4511 104.562 95.1638 104.597 93.9627 104.613C93.5088 104.614 93.0897 104.641 92.6562 104.671C92.2754 104.698 91.8946 104.723 91.515 104.733C91.0959 104.748 90.6791 104.732 90.2576 104.717C89.6553 104.698 89.0841 104.677 88.6015 104.764C87.956 104.885 87.3453 104.904 86.7873 104.827C86.0724 104.723 85.3012 104.712 84.3635 104.79C83.7085 104.845 83.0918 104.837 82.4918 104.828C81.5075 104.821 80.6489 104.805 79.8897 105.072C79.5771 105.182 79.2634 105.282 78.9496 105.383C77.8527 105.735 76.9055 106.039 76.2972 106.683C75.7392 107.275 75.1296 107.725 74.5943 108.122C74.5931 108.124 74.5141 108.182 74.5117 108.183C74.2722 108.359 74.1153 108.515 74.0028 108.687C73.707 109.138 73.3921 109.524 73.0867 109.9C72.6221 110.473 72.2197 110.968 72.0808 111.471C71.9096 112.093 71.5228 112.473 71.336 112.656C70.5923 113.519 69.9037 114.526 69.2284 115.734C68.7541 116.584 68.2213 117.353 67.7051 118.098C67.2932 118.693 66.904 119.255 66.5615 119.833C65.6634 121.342 64.8946 122.894 64.0803 124.536L64.0013 124.696C63.5091 125.691 63.0074 126.775 62.423 128.109C62.1607 128.71 61.853 129.308 61.5452 129.907C61.4123 130.164 61.2782 130.423 61.15 130.681C60.5932 131.799 60.1262 132.955 59.6292 134.182C59.3227 134.94 59.0149 135.699 58.6868 136.449C58.6317 136.573 58.603 136.711 58.5658 136.845C58.4784 137.167 58.3694 137.566 58.1611 137.985C57.7779 138.753 57.4498 139.557 57.1049 140.409C56.9564 140.773 56.8079 141.138 56.6546 141.503C56.5516 141.746 56.4702 142.07 56.3816 142.411C56.1864 143.178 55.9289 144.188 55.2116 145.094C54.9063 146.212 54.4716 147.221 54.0501 148.2L53.9219 148.499C53.8213 148.735 53.71 148.967 53.5986 149.196C53.516 149.367 53.4322 149.537 53.3567 149.713C53.1507 150.187 52.9819 150.704 52.8023 151.249C52.6203 151.805 52.4311 152.38 52.1868 152.969C51.6419 154.277 51.1485 155.674 50.6719 157.026L50.6013 157.222C50.527 157.436 50.4588 157.654 50.3893 157.872C50.1079 158.763 49.7894 159.773 49.0577 160.733C49.0134 160.792 48.926 160.952 48.8577 161.349C48.7943 161.734 48.7176 162.201 48.4649 162.699C48.1692 163.286 47.8398 163.827 47.5201 164.351C47.0255 165.162 46.5573 165.926 46.337 166.7C46.2568 166.983 46.0652 167.322 45.8724 167.542C45.6844 167.764 45.5239 168.15 45.3383 168.599C45.1551 169.043 44.9467 169.545 44.6377 170.051C44.5252 170.234 44.4174 170.522 44.3024 170.825C44.1144 171.325 43.8845 171.928 43.4822 172.52C43.4606 172.63 43.4402 172.72 43.4163 172.806L43.3899 172.915C43.3396 173.118 43.2654 173.426 43.099 173.759C42.7481 174.457 42.3697 175.137 41.9889 175.819C41.4596 176.768 40.959 177.664 40.5531 178.589C40.3591 179.031 40.0837 179.356 39.8681 179.588C39.4945 179.987 39.1568 180.498 38.7987 181.039C38.2874 181.809 37.715 182.674 36.8983 183.429C36.0134 184.852 34.8889 185.951 33.8016 187.014L33.2938 187.513C32.2424 188.556 31.0665 189.398 29.9265 190.213C29.6523 190.409 29.3756 190.606 29.1038 190.805C27.5506 191.943 25.934 192.918 24.6994 193.639L24.3545 193.85C23.7785 194.207 23.06 194.652 22.1727 194.828C21.3117 195 20.4686 195.447 19.5765 195.92C18.6748 196.398 17.7671 196.762 16.8881 197.115C15.8415 197.536 14.8548 197.934 13.9902 198.476C13.4824 198.795 12.9807 199.049 12.4945 199.293C11.9197 199.582 11.3748 199.856 10.9473 200.185C10.4899 200.536 9.97377 200.879 9.32592 201.264L8.56072 201.711C7.31293 202.434 6.13579 203.115 5.28557 204.076C5.04607 204.349 5.03409 204.446 5.03289 204.451C4.94188 205.345 4.9802 206.01 5.15743 206.58C5.63164 206.888 6.15615 207.032 6.79441 207.032C7.00517 207.034 7.30814 207.025 7.5656 207.02C8.39427 207 9.25168 206.982 10.1582 207.11C10.4803 207.16 10.8072 207.08 11.3976 206.817C13.1699 206.028 15.2595 205.182 17.6066 205.153C17.8725 205.15 18.1383 205.135 18.4042 205.121C19.058 205.086 19.7968 205.045 20.5752 205.145C21.7284 205.291 22.8852 205.203 23.8623 205.099C25.1161 204.965 26.3579 204.488 27.674 203.981C28.4356 203.689 29.22 203.386 30.045 203.136L30.5887 202.786C31.4844 202.204 32.4101 201.605 33.428 201.089C33.8746 200.588 34.3512 200.222 34.7763 199.898C34.9045 199.8 35.0326 199.702 35.1571 199.601C35.8553 199.034 36.5846 198.589 37.2899 198.16C37.6252 197.955 37.9617 197.752 38.2874 197.535C39.1616 196.955 40.2513 196.157 40.9279 195.124C41.5578 194.161 42.2942 193.406 43.0055 192.676C43.3528 192.318 43.7025 191.962 44.0282 191.583C44.2366 191.339 44.4521 191.098 44.6665 190.86C45.2449 190.216 45.7909 189.609 46.1262 188.958C46.2544 188.707 46.4148 188.465 46.5813 188.227L46.7118 188.034C46.8699 187.789 47.0327 187.552 47.1944 187.316C47.6363 186.67 48.0183 186.112 48.2398 185.515C48.5512 184.678 48.9835 183.894 49.4912 183.248C49.8684 182.77 50.2061 182.223 50.5642 181.643C50.745 181.351 50.9258 181.058 51.1126 180.771C51.1857 180.658 51.2348 180.537 51.2886 180.417C51.4287 180.112 51.6048 179.732 51.8946 179.339L52.0946 179.065C52.9951 177.842 53.8453 176.685 54.2225 175.402C54.286 175.188 54.4333 174.685 54.8644 174.244C55.2931 173.811 55.5445 173.134 55.8355 172.35C56.0427 171.792 56.299 171.295 56.6391 170.779C56.7887 170.551 56.9468 170.331 57.1037 170.108C57.3851 169.711 57.6521 169.337 57.809 169.005C58.1719 168.239 58.6125 167.359 59.2783 166.621C60.4842 165.283 61.3153 163.485 62.3679 161.207L62.4553 161.017C62.5379 160.838 62.6433 160.661 62.7559 160.493C63.0157 160.073 63.2373 159.724 63.4588 159.374C63.9378 158.622 64.3893 157.912 64.7725 157.187C65.0419 156.675 65.303 156.159 65.5664 155.642C65.9029 154.977 66.2406 154.314 66.5903 153.662C67.2429 152.445 67.7854 151.187 68.3602 149.851C68.5422 149.43 68.7242 149.009 68.9074 148.587C69.093 148.168 69.2104 147.773 69.2475 147.445C69.3409 146.62 69.5026 145.84 69.6571 145.086C69.8032 144.375 69.9409 143.704 70.0163 143.044C70.081 142.469 70.184 141.896 70.2881 141.324C70.4558 140.404 70.6139 139.535 70.5504 138.739C70.5133 138.261 70.6127 137.862 70.6654 137.649C70.7348 137.375 70.7528 137.116 70.7216 136.859C70.5456 135.401 70.8773 134.12 71.1707 132.988C71.2449 132.7 71.3204 132.412 71.3839 132.121C71.482 131.677 71.6449 131.3 71.7766 130.999C71.8353 130.865 71.9 130.732 71.9383 130.592C72.2209 129.568 72.9298 128.784 73.883 128.453C74.8889 128.101 75.9894 128.594 76.399 129.575C76.6936 130.281 76.66 130.895 76.6397 131.259L76.6337 131.39C76.6301 131.679 76.6181 131.972 76.6061 132.266C76.5894 132.662 76.5726 133.059 76.5834 133.456C76.6061 134.168 76.5846 134.879 76.563 135.594C76.5487 136.035 76.5355 136.475 76.5343 136.918V137.079C76.5331 137.78 76.5319 138.384 76.6373 138.938C76.8313 139.947 76.8385 140.904 76.8169 141.787L76.7929 142.61C76.7714 143.292 76.7498 143.975 76.7642 144.657L76.7762 144.939C76.7953 145.35 76.8193 145.862 76.6983 146.449C76.6492 146.679 76.666 146.78 76.6696 146.798C76.969 148.241 76.7091 149.521 76.4804 150.65L76.4145 150.974C76.3259 151.429 76.2134 151.881 76.102 152.334C75.9128 153.094 75.7344 153.81 75.6972 154.485C75.6709 154.973 75.5356 155.468 75.2877 155.997C75.1428 156.309 75.0566 156.72 74.9584 157.193L74.8027 157.945C74.55 159.186 74.289 160.469 73.8016 161.758C73.6495 162.16 73.4867 162.629 73.4304 163.047C73.2675 164.244 73.0867 165.596 72.3347 166.902C72.3275 166.933 72.3215 166.96 72.3215 166.961C72.2341 167.369 72.1491 167.778 72.064 168.187C71.8904 169.026 71.7168 169.866 71.5096 170.697C71.3707 171.254 71.2749 171.845 71.1743 172.471C71.0641 173.154 70.9504 173.86 70.7695 174.582C70.5839 175.323 70.5193 176.132 70.451 176.988C70.3851 177.814 70.3181 178.668 70.1361 179.558C70.0115 180.164 69.9864 180.845 69.96 181.566C69.9313 182.367 69.9001 183.192 69.7409 184.071C69.475 185.518 69.475 187.039 69.475 188.651L69.4738 190.173C69.4762 191.638 69.4774 193.15 69.2595 194.702C69.4092 195.488 69.3505 196.199 69.3014 196.782C69.281 197.028 69.2571 197.273 69.2631 197.52C69.2798 198.151 69.2751 198.787 69.2703 199.421C69.2583 200.922 69.2463 202.338 69.5337 203.676C69.6211 204.082 69.6247 204.457 69.6175 204.77C69.6127 204.994 69.6487 205.207 69.7277 205.406C70.1121 206.394 70.1612 207.33 70.178 208.129L70.1804 208.357C70.1816 208.463 70.178 208.57 70.1899 208.675C70.3612 210.262 70.366 211.831 70.372 213.345C70.3744 213.968 70.3768 214.592 70.3911 215.215L70.3971 215.458C70.4211 216.581 70.4426 217.643 70.6366 218.634C70.8869 219.904 70.9037 220.979 70.6893 222.012C70.6737 222.084 70.6618 222.207 70.7144 222.487L70.8306 223.094C70.9791 223.851 71.1324 224.634 71.1887 225.473C71.233 226.144 71.4461 226.831 71.8413 227.574C72.2736 228.387 72.5023 229.202 72.7035 229.923C72.8496 230.451 72.9885 230.95 73.1849 231.355C73.3022 231.595 73.404 231.849 73.5058 232.104C73.61 232.366 73.7178 232.636 73.8112 232.77C74.5979 233.89 75.0985 235.006 75.3356 236.178C75.6445 236.565 75.8397 236.958 75.9894 237.257C76.0421 237.364 76.1116 237.501 76.1595 237.582C76.5091 237.783 76.7858 238.083 76.9606 238.442C77.0217 238.458 77.0851 238.474 77.1354 238.487C77.3582 238.541 77.5522 238.622 77.7138 238.703ZM112.254 238.039C112.258 238.041 112.262 238.042 112.265 238.045C112.26 238.042 112.258 238.041 112.254 238.039ZM79.8394 222.751C79.855 222.781 79.8693 222.811 79.8837 222.841C79.8705 222.811 79.855 222.781 79.8394 222.751ZM29.8702 203.244C29.8678 203.245 29.8654 203.246 29.8642 203.247L29.8702 203.244ZM30.2857 203.061C30.2738 203.063 30.2618 203.068 30.251 203.07C30.263 203.068 30.2749 203.063 30.2857 203.061ZM36.6684 183.627C36.6672 183.627 36.666 183.629 36.6648 183.63C36.6672 183.629 36.6672 183.627 36.6684 183.627ZM37.024 183.204L37.0133 183.224C37.0169 183.216 37.0217 183.209 37.024 183.204ZM208.297 180.67C208.306 180.67 208.314 180.671 208.323 180.671C208.313 180.671 208.306 180.67 208.297 180.67ZM166.393 176.011C166.395 176.012 166.397 176.014 166.398 176.017C166.396 176.014 166.395 176.012 166.393 176.011ZM43.2582 172.818C43.2546 172.823 43.2522 172.826 43.2486 172.83C43.2534 172.825 43.2546 172.823 43.2582 172.818ZM161.448 157.571C161.454 157.575 161.46 157.579 161.464 157.583C161.458 157.577 161.454 157.574 161.448 157.571ZM97.9479 146.775C97.9551 146.795 97.9611 146.813 97.9659 146.834C97.9599 146.81 97.9539 146.791 97.9479 146.775ZM134.849 140.569C134.86 140.574 134.869 140.577 134.876 140.581C134.867 140.576 134.858 140.572 134.849 140.569ZM114.392 138.53C114.393 138.532 114.394 138.534 114.396 138.535C114.394 138.533 114.393 138.53 114.392 138.53ZM122.548 123.406L122.549 123.424C122.549 123.418 122.548 123.412 122.548 123.406ZM165.472 77.8807C165.47 77.8843 165.468 77.8879 165.468 77.8915C165.468 77.8879 165.47 77.8855 165.472 77.8807ZM200.243 51.0436C200.242 51.0448 200.242 51.046 200.241 51.0472C200.242 51.0472 200.242 51.0448 200.243 51.0436ZM183.037 45.5958C183.037 45.597 183.036 45.5982 183.035 45.5993C183.036 45.5993 183.037 45.5982 183.037 45.5958ZM184.501 43.9629C184.498 43.9652 184.497 43.9688 184.495 43.9736C184.497 43.97 184.498 43.9664 184.501 43.9629ZM211.752 39.7699C211.751 39.7723 211.75 39.7723 211.749 39.7735C211.751 39.7735 211.751 39.7723 211.752 39.7699ZM203.413 30.0143C203.408 30.0203 203.403 30.0263 203.398 30.0323C203.403 30.0251 203.408 30.0191 203.413 30.0143Z" fill="#FCDA84"/>
<path d="M79.5757 105.037C79.1817 105.037 78.7794 105.026 78.371 104.999C76.8694 104.897 75.5306 104.613 74.2804 104.128C73.4254 103.799 72.7727 103.525 72.1668 103.244C70.3993 102.426 69.5491 100.897 69.8353 99.0511C69.8712 98.8202 69.8628 98.5128 69.8544 98.1874C69.8436 97.8082 69.8365 97.4337 69.8676 97.0629C69.8939 96.722 69.8892 96.3798 69.8856 96.0365C69.8772 95.15 69.8664 94.1452 70.2221 93.0494C70.4855 92.2347 70.6388 91.2502 70.6903 90.0408C70.713 89.4989 70.8531 89.0539 70.9561 88.7285C70.9861 88.6328 71.0244 88.5383 71.0387 88.439C71.1106 87.7033 71.2232 86.9652 71.3381 86.2283C71.4363 85.6014 71.5345 84.9746 71.6004 84.3417C71.8974 81.4563 72.2446 78.5422 72.5787 75.7238C73.102 71.3347 73.6433 66.7948 74.0014 62.2993C74.9486 50.4394 76.9616 38.57 79.9829 27.0224C80.2092 26.1504 80.4343 25.2603 80.6606 24.3595C81.4067 21.3964 82.1767 18.3327 83.2221 15.3863C83.8867 13.5118 84.592 11.8836 85.3764 10.4098C85.6015 9.98396 85.9033 9.28773 86.2218 8.54963C87.6433 5.2551 89.4096 1.15668 92.5207 0.752339C94.1085 0.544187 95.4282 0.80976 96.6688 1.58135C97.4867 2.08977 98.3345 2.66876 98.9656 3.67243C98.9991 3.69995 99.0374 3.72627 99.071 3.75139C101.765 5.73481 103.153 9.43607 104.378 12.7007C104.815 13.8671 105.23 14.9688 105.651 15.8457C107.977 20.681 109.907 25.9542 111.554 31.9642C114.079 41.1875 115.675 50.7648 117.219 60.0275C118.059 65.0626 118.928 70.2688 119.928 75.2991C120.016 75.7453 120.133 76.1856 120.249 76.627C120.519 77.6582 120.824 78.8245 120.838 80.101C120.862 80.1931 120.904 80.2828 120.938 80.3749C121.018 80.5795 121.094 80.7852 121.154 80.991C121.367 81.7183 121.592 82.5868 121.663 83.5247C121.677 83.5594 121.691 83.5929 121.706 83.6264C121.809 83.874 121.966 84.2472 122.021 84.7162C122.058 85.032 122.147 85.3933 122.243 85.7737C122.402 86.4256 122.584 87.1637 122.596 88.0011C122.599 88.2153 122.694 88.5347 122.795 88.8732L122.845 89.0431C123.171 90.1604 123.311 91.2813 123.422 92.1833L123.494 92.803C123.575 93.5602 123.654 94.2756 123.884 94.8462C124.228 95.6896 124.313 96.5329 124.381 97.21L124.402 97.411C124.603 99.3203 123.544 100.743 121.568 101.215C121.051 101.34 120.559 101.39 120.127 101.434C119.885 101.459 119.642 101.481 119.402 101.523C118.201 101.733 117.02 102.061 115.77 102.411L115.076 102.604C114.861 102.683 114.51 102.81 114.067 102.821C113.562 102.832 112.995 102.95 112.396 103.077C111.713 103.22 110.936 103.383 110.102 103.414C108.358 103.968 106.609 103.987 104.973 103.912C103.293 104.095 101.563 104.108 99.8889 104.121C98.3836 104.133 96.8269 104.145 95.3324 104.281C94.6163 104.349 93.9648 104.28 93.3948 104.219C93.105 104.189 92.8164 104.156 92.5243 104.152C92.3303 104.15 92.1003 104.147 92.0441 104.165C91.4154 104.348 90.8022 104.439 90.2191 104.434C90.1975 104.434 90.1796 104.434 90.1592 104.434C89.3473 104.434 88.4947 104.599 87.5918 104.773L87.2289 104.843C86.0482 105.07 84.9944 105.081 84.01 104.886C83.9454 104.894 83.8843 104.908 83.8208 104.918C83.5466 104.967 83.1634 105.034 82.7239 105.009C82.1216 104.979 81.4977 104.994 80.8367 105.013C80.4199 105.026 80.002 105.037 79.5757 105.037ZM73.8169 99.5846C73.8301 99.5906 73.8433 99.5978 73.8589 99.605C74.3834 99.849 74.9594 100.089 75.7293 100.387C76.5987 100.721 77.5507 100.921 78.6453 100.996C79.3087 101.043 79.996 101.023 80.7241 101.003C81.4318 100.984 82.1623 100.965 82.9263 101.005C82.9706 101 83.0473 100.982 83.1227 100.969C83.4999 100.902 84.0759 100.8 84.7609 100.946C85.2339 101.048 85.7919 101.033 86.4685 100.904L86.823 100.836C87.9031 100.628 89.018 100.436 90.2514 100.423C90.4191 100.423 90.6657 100.386 90.91 100.314C91.5447 100.129 92.1123 100.134 92.5243 100.141C92.9793 100.144 93.3948 100.185 93.8092 100.229C94.2522 100.276 94.6342 100.313 94.9588 100.287C96.6233 100.134 98.2651 100.121 99.8529 100.11C101.55 100.097 103.154 100.085 104.672 99.9076C104.782 99.8945 104.893 99.8885 105.006 99.8968C106.504 99.9722 107.737 99.9495 108.87 99.581C109.195 99.4758 109.55 99.4171 109.956 99.404C110.44 99.386 110.986 99.2724 111.566 99.1504C112.22 99.0128 112.955 98.8597 113.745 98.8178C113.846 98.7843 113.926 98.7568 114.009 98.7353L114.683 98.5475C115.972 98.1874 117.306 97.8153 118.704 97.5713C119.038 97.5139 119.377 97.4768 119.716 97.4433C119.941 97.4194 120.159 97.3978 120.354 97.3667C120.312 96.9744 120.263 96.6143 120.158 96.3559C119.716 95.2661 119.598 94.1906 119.496 93.2408L119.43 92.6786C119.31 91.7156 119.202 90.9176 118.984 90.1724L118.939 90.0192C118.781 89.4869 118.584 88.8254 118.573 88.055C118.569 87.6793 118.461 87.2415 118.335 86.7343C118.229 86.3 118.109 85.8084 118.038 85.2784C118.025 85.2449 118.011 85.2114 117.996 85.1791C117.873 84.8872 117.69 84.447 117.655 83.8716C117.62 83.2962 117.461 82.6861 117.293 82.1143C117.265 82.0138 117.223 81.9145 117.186 81.8164C117.03 81.4145 116.817 80.8618 116.815 80.1859C116.814 79.3904 116.592 78.541 116.358 77.6426C116.222 77.1234 116.086 76.6055 115.983 76.0815C114.971 70.9914 114.097 65.7529 113.253 60.6867C111.726 51.5245 110.147 42.05 107.676 33.0229C106.094 27.2497 104.248 22.2003 102.028 17.5851C101.528 16.5467 101.084 15.3624 100.613 14.1099C99.5859 11.368 98.4195 8.25894 96.6868 6.98371C96.3131 6.70977 95.8904 6.35806 95.5767 5.8329C95.4126 5.56015 95.1144 5.34362 94.5444 4.98833C94.1073 4.71678 93.6966 4.64859 93.0368 4.73353C92.1003 5.05891 90.5089 8.74941 89.9101 10.1383C89.5425 10.99 89.2263 11.7245 88.921 12.2952C88.2312 13.5919 87.6049 15.0418 87.0086 16.7261C86.0278 19.4955 85.2794 22.4658 84.5549 25.3381C84.3262 26.252 84.0987 27.154 83.8675 28.0381C80.9049 39.3584 78.9327 50.9933 78.0058 62.6199C77.6394 67.192 77.0945 71.7713 76.5676 76.1999C76.2347 79.0028 75.8898 81.9002 75.594 84.7533C75.5222 85.4543 75.4156 86.1505 75.3066 86.8467C75.2036 87.5059 75.0995 88.1674 75.0348 88.8325C74.9917 89.2799 74.8719 89.658 74.7845 89.9343C74.7546 90.0324 74.7151 90.1281 74.7007 90.231C74.6348 91.7873 74.4193 93.12 74.0421 94.2839C73.8888 94.7577 73.8948 95.3307 73.9008 95.9958C73.9056 96.4588 73.908 96.9205 73.872 97.3823C73.8529 97.6108 73.8625 97.8417 73.8696 98.0749C73.8828 98.5223 73.896 99.026 73.8169 99.5846Z" fill="#FCDA84"/>
<path d="M120.401 65.3127C119.217 65.3127 117.957 64.9144 116.788 63.6631C115.437 62.2144 114.964 60.3518 114.582 58.8565C111.846 48.1032 108.525 37.3607 104.716 26.928C104.368 25.9722 104.013 25.02 103.659 24.0701C102.483 20.9072 101.265 17.6378 100.275 14.2966C100.199 14.0418 100.077 13.732 99.9465 13.3898C99.7764 12.9448 99.5908 12.4591 99.4339 11.9687C99.1741 11.1588 98.3813 8.69207 99.9465 7.02926C102.312 4.5135 107.108 7.1118 107.955 7.72788C108.157 7.87382 108.477 7.9767 108.909 8.1071C109.998 8.43487 110.869 9.0043 111.669 9.56057C111.836 9.6778 112.076 9.79623 112.33 9.92423C112.941 10.2305 113.701 10.6109 114.361 11.349C114.376 11.361 114.507 11.4602 114.971 11.6421C115.58 11.8789 116.047 12.2151 116.424 12.4843C116.653 12.6493 116.913 12.8348 117.037 12.8647C117.776 13.0369 118.253 13.4999 118.509 13.7487L118.606 13.8408C119.351 14.3361 120.16 14.8565 120.972 15.3768L121.073 15.4426C121.767 15.8876 122.347 16.365 122.844 16.9045C122.94 17.0085 123.13 17.1473 123.332 17.2957C123.684 17.5528 124.123 17.8723 124.522 18.3328C124.874 18.7384 125.248 19.1236 125.624 19.5087L126.184 20.0889C126.24 20.1476 126.291 20.2074 126.343 20.2672C127.107 20.845 127.774 21.4802 128.422 22.0951C128.854 22.5078 129.289 22.9205 129.747 23.3045C130.135 23.6299 130.411 23.9744 130.63 24.2508L130.78 24.435C131.041 24.7496 131.296 25.0702 131.551 25.3896C132.124 26.111 132.668 26.7928 133.258 27.3742C134.181 28.2798 134.826 29.305 135.395 30.2106C135.536 30.4367 135.68 30.6628 135.827 30.8889C136.353 31.6952 136.914 32.4787 137.475 33.2623C137.737 33.6295 137.999 33.9956 138.257 34.364C138.321 34.4573 138.389 34.5435 138.456 34.632C138.763 35.0351 139.171 35.5723 139.398 36.314C140.011 37.076 140.503 37.8272 140.976 38.5534C141.463 39.2975 141.922 39.9985 142.442 40.6145C142.818 41.062 143.07 41.5129 143.291 41.9113C143.452 42.2008 143.59 42.4508 143.729 42.6075C144.055 42.9784 144.357 43.3779 144.657 43.7787C144.794 43.9605 144.93 44.1435 145.072 44.323C145.976 45.4726 146.646 46.6581 147.066 47.846C147.745 49.7648 147.294 51.8559 145.83 53.5785C145.757 53.6623 145.678 53.7436 145.594 53.8202C144.691 55.5584 143.098 56.3431 141.914 56.9269L141.27 57.2511C140.551 57.6159 139.747 58.0263 138.811 58.2763C138.796 58.2906 138.781 58.305 138.766 58.3205C138.046 59.024 137.256 59.4582 136.36 59.664C136.086 59.7274 135.764 59.8733 135.39 60.042C134.782 60.3159 134.027 60.6581 133.12 60.7729C132.67 60.8291 132.166 60.9858 131.534 61.2646L131.269 61.3746C131.198 61.4045 131.126 61.4297 131.056 61.4643C130.497 62.0421 129.843 62.2479 129.484 62.3615C129.432 62.3771 129.379 62.3915 129.328 62.4118C128.739 62.7228 128.114 62.998 127.509 63.2635L126.812 63.5734C126.695 63.6368 126.335 63.827 125.826 63.8509C125.284 63.876 124.587 64.156 123.849 64.4538C122.944 64.8199 121.719 65.3127 120.401 65.3127ZM103.06 9.99003C103.095 10.1719 103.156 10.4183 103.26 10.7437L103.261 10.7449C103.394 11.1624 103.553 11.5751 103.698 11.9543C103.872 12.4065 104.028 12.8204 104.127 13.1578C105.079 16.3661 106.272 19.5722 107.426 22.6729C107.782 23.6311 108.139 24.5905 108.492 25.5535C112.347 36.1142 115.707 46.9859 118.478 57.8684C118.772 59.0299 119.079 60.2322 119.728 60.9272C120.208 61.444 120.491 61.4811 122.349 60.7334C123.217 60.3841 124.189 59.9929 125.26 59.8745L125.891 59.5934C126.433 59.3553 126.974 59.1185 127.497 58.8445C127.8 58.6866 128.077 58.5993 128.28 58.5347C128.294 58.5311 128.306 58.5263 128.319 58.5227C128.818 58.0466 129.365 57.8217 129.741 57.6662L129.916 57.5932C130.911 57.1542 131.77 56.8994 132.614 56.7929C132.921 56.7534 133.297 56.5848 133.734 56.3874C134.228 56.1625 134.791 55.9101 135.455 55.7569C135.631 55.7163 135.766 55.6409 135.901 55.5081C136.275 55.1432 136.807 54.6241 137.665 54.4291C138.221 54.3023 138.812 53.9996 139.441 53.6802L140.137 53.3309C141.17 52.8201 141.817 52.478 142.076 51.875C142.292 51.363 142.65 51.0508 142.837 50.8989C143.564 49.9921 143.35 49.3856 143.278 49.1834C143.007 48.419 142.537 47.5972 141.913 46.804C141.751 46.6007 141.595 46.3913 141.439 46.1832C141.204 45.8686 140.969 45.5528 140.714 45.2609C140.288 44.7764 140.004 44.268 139.778 43.8588C139.633 43.5969 139.495 43.3504 139.369 43.2021C138.693 42.3994 138.144 41.5608 137.614 40.7509C137.153 40.0475 136.719 39.3824 136.234 38.7926C135.985 38.4876 135.686 38.0665 135.558 37.4959C135.531 37.4217 135.366 37.2064 135.256 37.0628C135.158 36.9324 135.06 36.802 134.966 36.6681C134.715 36.3116 134.46 35.9539 134.204 35.5974C133.612 34.7672 133.019 33.9382 132.462 33.084C132.302 32.84 132.147 32.5936 131.992 32.3471C131.496 31.5588 131.026 30.8123 130.44 30.2357C129.673 29.4833 129.029 28.6734 128.405 27.8898C128.168 27.5908 127.931 27.2917 127.687 26.9986L127.49 26.7558C127.369 26.605 127.245 26.4495 127.166 26.3837C126.641 25.9471 126.145 25.4769 125.648 25.0056C125.033 24.4194 124.451 23.8668 123.834 23.4086C123.567 23.2088 123.393 23.0043 123.289 22.8822L122.737 22.3056C122.311 21.8654 121.885 21.4264 121.483 20.9646C121.382 20.8474 121.176 20.6966 120.959 20.5387C120.642 20.3079 120.248 20.0208 119.886 19.6284C119.62 19.3401 119.306 19.0841 118.897 18.8221L118.794 18.7551C117.962 18.2204 117.128 17.6856 116.307 17.1354C116.068 16.9762 115.884 16.804 115.746 16.67C115.03 16.4331 114.489 16.0444 114.077 15.7489C113.861 15.5957 113.642 15.4366 113.505 15.384C112.845 15.1268 112 14.7404 111.365 14.0322C111.211 13.86 110.892 13.7009 110.524 13.5154C110.172 13.3396 109.774 13.141 109.37 12.8599C108.813 12.4723 108.27 12.1122 107.746 11.9531C107.157 11.7761 106.355 11.5332 105.587 10.9758C105.061 10.5858 103.826 10.1097 103.06 9.99003Z" fill="#FCDA84"/>
<path d="M60.5142 75.0192C59.9634 75.0192 59.4149 74.9941 58.8677 74.969C58.5444 74.9546 58.2198 74.939 57.8953 74.9295C54.9854 74.8553 54.5423 72.6183 54.3759 71.7773C54.2741 71.2617 54.1771 70.6432 54.213 69.9231C54.1663 69.1192 54.2777 68.3368 54.5423 67.5975C54.5675 66.5592 54.7447 65.6034 54.9159 64.6762C55.0608 63.8879 55.1985 63.1426 55.2237 62.4332C55.25 61.6545 55.45 60.9738 55.6272 60.3733C55.7099 60.0933 55.7973 59.8134 55.8464 59.5299C55.9673 58.8528 56.147 58.2367 56.3206 57.6398C56.5278 56.934 56.723 56.2677 56.7577 55.6576C56.7804 55.2592 56.893 54.8668 57.087 54.5247C57.4283 53.9242 57.5552 53.1621 57.7013 52.2817C57.7672 51.8929 57.8306 51.5041 57.9145 51.1201C58.1588 49.9789 58.5444 48.9154 58.8868 48.0086C59.1096 47.4188 59.3539 46.8387 59.5993 46.2573C59.9706 45.378 60.3226 44.5466 60.5777 43.7068C60.6663 43.4042 60.7933 42.9723 61.1178 42.5572C61.756 41.7449 62.0997 40.7149 62.4985 39.5235C62.7116 38.8858 62.9368 38.3918 63.1559 37.9145C63.2709 37.668 63.3834 37.4192 63.4864 37.1692C64.1343 35.5794 64.8204 34.2001 65.5856 32.9488C65.9748 32.3123 66.3317 31.658 66.6873 31.006C67.0777 30.2942 67.4669 29.5825 67.892 28.8886L68.4524 27.9806C69.2775 26.6492 70.0559 25.3919 70.7157 24.0772C71.639 22.2386 72.7622 20.6009 73.8364 19.1043C74.222 18.5648 74.6052 18.1473 75.0387 17.7944C75.2638 17.6102 75.4961 17.2381 75.7404 16.8434C75.8554 16.6603 75.9691 16.4773 76.0877 16.2979C77.0888 14.8049 78.1582 13.4842 79.2683 12.3705C80.2346 11.4027 81.3363 10.4649 82.6368 9.50066C82.7386 9.4253 82.8176 9.3272 82.9039 9.23629C83.1302 8.99584 83.414 8.69557 83.8151 8.42163C85.7659 7.08659 87.0628 7.50169 87.8076 8.08547C89.5488 9.44444 89.2877 12.1827 86.7706 18.9368L86.6281 19.3256C85.3767 22.8857 84.6989 26.9028 84.0439 30.7895C83.784 32.3327 83.5242 33.8639 83.2344 35.3569C80.9627 47.0444 78.915 58.9222 77.1475 70.6636C76.914 72.1924 76.914 72.1924 68.6476 73.7117C65.4371 74.3014 61.4615 75.006 60.7525 75.0168C60.6711 75.0192 60.5921 75.0192 60.5142 75.0192ZM58.3025 70.9279C58.5539 70.9375 58.8054 70.9495 59.0557 70.9614C59.6005 70.9866 60.1514 71.0141 60.6927 71.0057C61.5608 70.9387 70.1445 69.386 73.3754 68.7268C75.1022 57.3706 77.0912 45.8936 79.2886 34.5936C79.5712 33.133 79.8239 31.6341 80.079 30.1244C80.7615 26.0714 81.4681 21.8797 82.8344 17.9966L83.0044 17.5384C83.7289 15.5897 84.184 14.1745 84.4654 13.1517C83.5709 13.8443 82.7973 14.5202 82.1123 15.2057C81.1866 16.1352 80.2813 17.2537 79.4263 18.5313C79.3329 18.6713 79.2419 18.8172 79.1509 18.9632C78.7821 19.5577 78.3234 20.2958 77.5798 20.9035C77.4253 21.0291 77.278 21.1954 77.102 21.4442C76.12 22.8104 75.1034 24.2902 74.3046 25.8788C73.5658 27.3538 72.7024 28.7463 71.8689 30.0945L71.3193 30.9869C70.9289 31.6233 70.572 32.2777 70.2128 32.932C69.826 33.6426 69.4368 34.352 69.0129 35.0434C68.3638 36.1069 67.7723 37.2984 67.2047 38.6873C67.0813 38.9911 66.9436 39.2902 66.8071 39.5905C66.6251 39.9876 66.4526 40.3632 66.3353 40.7114C65.879 42.0763 65.3952 43.5286 64.4313 44.8349C64.4229 44.8624 64.4157 44.8851 64.4145 44.8887C64.1007 45.9187 63.6924 46.8841 63.2972 47.8208C63.0721 48.3519 62.847 48.8843 62.6434 49.425C62.3524 50.1978 62.0267 51.0926 61.8399 51.9623C61.7704 52.2853 61.7165 52.6131 61.6626 52.9396C61.495 53.9505 61.307 55.0845 60.7418 56.2055C60.6496 57.1481 60.3981 58.0046 60.1741 58.7703C60.0233 59.2847 59.8808 59.7691 59.8005 60.2285C59.7191 60.6951 59.591 61.1269 59.4784 61.5073C59.3575 61.9164 59.2449 62.3028 59.2353 62.5732C59.2018 63.5805 59.0293 64.51 58.8641 65.4072C58.7084 66.2434 58.5623 67.0317 58.5539 67.777C58.5479 68.1646 58.4737 68.5581 58.3348 68.9134C58.2366 69.1694 58.1983 69.453 58.2234 69.7532C58.2318 69.8597 58.2318 69.9673 58.2246 70.0726C58.2079 70.3394 58.2414 70.6097 58.3025 70.9279Z" fill="#FCDA84"/>
<path d="M101.934 78.523C100.793 77.9679 100.421 77.2215 100.854 76.3542C101.4 75.2632 102.363 74.7858 103.204 75.1878C104.102 75.6184 104.636 76.9714 104.235 77.8028C103.768 78.7778 102.97 79.0266 101.934 78.523Z" fill="black"/>
<path d="M89.9989 76.7203C90.4647 75.7345 91.5975 75.3601 92.6226 75.8554C93.5483 76.304 93.9434 77.1988 93.5686 78.0062C93.1423 78.925 91.8945 79.2599 90.7329 78.7683C89.8887 78.4106 89.5929 77.584 89.9989 76.7203Z" fill="black"/>
<path d="M86.9487 83.619C89.8048 85.0091 90.7328 86.8729 89.6503 89.0369C88.2851 91.768 85.8818 92.9595 83.7766 91.9534C81.5313 90.8768 80.1972 87.4961 81.1983 85.417C82.3683 82.9838 84.3621 82.3617 86.9487 83.619Z" fill="#FF9999"/>
<path d="M114.897 88.4627C113.737 90.9294 110.902 91.8637 108.339 90.6268C106.02 89.5071 105.036 87.2677 105.973 85.2496C107.04 82.9539 110.158 82.1141 113.061 83.3439C115.172 84.2375 115.912 86.3047 114.897 88.4627Z" fill="#FF9999"/>
</g>
<defs>
<clipPath id="clip0_341_451">
<rect width="239.5" height="242.029" fill="white" transform="translate(0.966309 0.685303)"/>
</clipPath>
</defs>
</svg>
