<svg width="163" height="165" viewBox="0 0 163 165" fill="none" xmlns="http://www.w3.org/2000/svg">
<path d="M97.3534 165C96.0575 165 94.9125 164.392 94.2572 163.344C94.1382 163.154 93.985 162.987 93.8383 162.813C93.4234 162.323 92.8733 161.672 92.5245 160.766C92.4463 160.665 92.3843 160.584 92.3273 160.502C92.1855 160.349 91.6793 159.767 91.5856 158.871C91.5465 158.498 91.2205 158.013 90.844 157.452C90.5701 157.048 90.3004 156.64 90.0697 156.215C89.9075 155.912 89.7372 155.615 89.5685 155.319C88.954 154.236 88.3199 153.117 87.8741 151.772C87.7258 151.321 87.4422 150.795 87.24 150.44C86.8505 149.751 86.3933 148.827 86.2074 147.679C85.7502 147.013 85.4911 146.344 85.2734 145.786C85.1822 145.551 85.0933 145.313 84.9809 145.089C84.5563 144.251 84.2686 143.389 84.0135 142.629L83.707 141.721C83.6793 141.636 83.6557 141.544 83.6223 141.462C82.9923 140.815 82.8064 140.073 82.716 139.708C82.7111 139.691 82.716 139.693 82.7258 139.713C82.3989 139.025 82.0542 138.346 81.7111 137.666L81.3957 137.041C81.2775 136.874 81.0387 136.507 80.8993 135.998C80.6385 135.062 80.2547 134.117 79.8472 133.115C79.5717 132.434 79.2962 131.756 79.0509 131.065C78.7388 130.191 78.3639 129.321 77.9653 128.403C77.7249 127.844 77.4829 127.286 77.2547 126.722L76.9564 126.004C76.5839 125.115 76.1976 124.194 75.9221 123.176C75.6499 122.161 75.2897 121.096 74.7868 119.82C74.1952 118.316 73.5847 116.763 73.1471 115.107C73.0264 114.645 72.8097 114.144 72.5831 113.616C72.3508 113.077 72.1104 112.518 71.914 111.891L71.7974 111.52C71.4877 110.516 71.2791 109.879 70.8781 109.472C70.5806 109.168 70.3638 108.792 70.2497 108.382C70.046 107.643 69.5937 106.913 69.0713 106.065C68.7273 105.511 68.3866 104.959 68.0916 104.38C67.6768 103.574 67.191 102.927 66.6458 102.462C66.5464 102.376 66.4779 102.332 66.4388 102.31C66.4217 102.322 66.3736 102.341 66.3076 102.375C64.7224 103.194 63.1568 103.867 61.6539 104.374L61.0647 104.569C60.3019 104.82 59.583 105.054 59.0076 105.375C58.1217 105.868 57.2301 106.269 56.3695 106.653C55.3124 107.128 54.3132 107.577 53.4453 108.145C52.9554 108.463 52.4534 108.63 52.0459 108.718C51.6229 109.232 50.953 109.766 49.8992 110.03C49.7566 110.067 49.5618 110.18 49.3034 110.375C48.8372 110.731 48.1143 111.218 47.1616 111.428C47.1119 111.463 47.0663 111.5 47.0182 111.534C46.9098 111.613 46.8006 111.688 46.6914 111.762C46.2146 112.08 45.7125 112.366 45.2105 112.653C44.6995 112.942 44.2186 113.215 43.8079 113.51C43.3221 113.863 42.8014 114.179 42.2789 114.495C42.0133 114.654 41.7468 114.813 41.49 114.98C40.5226 115.607 39.5479 116.089 38.6066 116.558C38.1021 116.808 37.5976 117.057 37.1029 117.329L36.8144 117.495C36.4427 117.718 35.9684 118 35.3702 118.194C34.4501 118.989 33.4313 119.367 32.6514 119.655C32.3017 119.785 31.9708 119.908 31.728 120.035C31.0556 120.391 30.3946 120.767 29.7361 121.144L29.4256 121.32C28.2878 121.97 27.1305 122.524 26.0099 123.057C25.4272 123.334 24.8436 123.611 24.2674 123.902C23.1264 124.478 21.992 124.865 20.895 125.24C20.2422 125.464 19.5893 125.686 18.952 125.95C17.8754 126.398 16.9161 126.256 16.3448 126.173C15.1329 126.003 14.1794 125.751 13.3424 125.388C11.8746 124.752 10.9634 123.446 10.6301 121.507C10.3913 120.118 10.7898 118.937 11.0807 118.078C11.6871 116.288 12.767 114.967 13.7213 113.801C14.0115 113.444 14.3041 113.089 14.5755 112.724C15.745 111.14 16.9952 109.719 18.2911 108.507C18.3823 108.417 18.4483 108.306 18.5217 108.203C18.6065 108.085 18.692 107.968 18.7809 107.853C19.1827 107.329 19.6823 106.675 20.4638 106.19C21.1158 105.401 21.8999 104.853 22.5511 104.398C23.0189 104.069 23.4247 103.785 23.666 103.496C24.3791 102.641 25.2055 101.947 25.9341 101.334C26.1688 101.138 26.4019 100.942 26.6301 100.74C28.4508 99.1379 30.3579 97.6365 32.2047 96.185L33.6799 95.021C34.6709 94.2351 35.7492 93.4069 36.9244 92.6652C37.1982 92.4936 37.4745 92.327 37.7508 92.1603C38.2488 91.8622 38.7207 91.5771 39.1428 91.2765C40.1844 90.0986 41.4159 89.3365 42.5112 88.6585C42.9815 88.3693 43.4534 88.0801 43.8951 87.7518C44.1575 87.559 44.3922 87.336 44.631 87.1179C45.1021 86.685 45.6359 86.1924 46.3344 85.7684C46.4281 85.7129 46.5186 85.6508 46.6107 85.5895C46.9293 85.3788 47.3197 85.1199 47.8218 84.9091C48.7183 84.0669 49.6938 83.4494 50.5634 82.8964C50.8805 82.6971 51.195 82.4969 51.5056 82.2862C51.6311 82.1996 51.7598 82.1146 51.8894 82.0313C50.8071 81.1336 49.7639 80.3903 48.6107 79.8348C47.6865 79.3904 46.8764 78.817 46.1632 78.313L46.0312 78.2199C45.4273 77.7927 44.8397 77.3867 44.248 77.1065C43.9676 76.9823 43.4672 76.7577 43.0263 76.2496C42.5699 75.726 41.9049 75.2571 41.1983 74.7605C40.6131 74.348 40.0059 73.9208 39.4085 73.3947C39.0092 73.0418 38.534 72.7077 38.0295 72.354C37.2903 71.8353 36.4566 71.2505 35.697 70.4818C34.1118 69.8732 32.9969 68.8522 32.0091 67.9446C31.7491 67.7078 31.4892 67.4684 31.2218 67.2421C31.1167 67.1531 31.0181 67.0616 30.9203 66.9693L30.8787 66.9309C29.6782 66.3371 28.6758 65.557 27.7858 64.8651L27.6114 64.7295C27.5706 64.7074 27.4973 64.6772 27.4248 64.6413C27.4215 64.6388 27.3082 64.5857 27.3058 64.5833C26.8591 64.3644 26.1851 64.036 25.6252 63.3523C25.2919 62.9471 24.6961 62.6204 24.0653 62.2928C23.397 61.9465 22.5796 61.4482 21.9357 60.5954C21.199 60.2074 20.5551 59.7516 19.9732 59.3391C19.7132 59.1553 19.4541 58.9723 19.1892 58.7983C18.9088 58.6137 18.6187 58.4503 18.3269 58.2837C17.4516 57.7838 16.3872 57.1777 15.5038 56.1574C14.6341 55.7318 14.0392 55.1298 13.5804 54.6642C13.4597 54.5433 13.3399 54.4191 13.2144 54.3064C13.1256 54.2247 12.9023 54.094 12.7075 53.9797C12.3163 53.7493 11.8297 53.4626 11.3521 53.0256C10.8705 52.5837 10.3065 52.1679 9.70747 51.7284C9.21929 51.3698 8.73355 51.0104 8.26655 50.6273C7.09703 49.6634 6.10028 48.5974 5.13614 47.5641C4.7482 47.1508 4.3627 46.7366 3.96661 46.3323C3.64713 46.0072 3.34803 45.6682 3.04974 45.3292L2.69195 44.9273C2.29423 44.487 1.67157 43.7984 1.34639 42.7945C0.484118 41.7856 0.296668 40.6404 0.176048 39.911C0.152413 39.7607 0.128778 39.6136 0.0953629 39.4674C-0.132837 38.457 0.0472779 37.4441 0.604738 36.6068L0.773443 36.3495C1.21599 35.669 1.85006 34.6896 3.01714 34.0655C3.19399 33.7805 3.4279 33.5305 3.70663 33.3344L4.01551 33.1172C4.41323 32.837 4.88349 32.6785 5.37004 32.663C5.57461 32.6565 5.78243 32.6344 5.98863 32.6148C6.45807 32.5691 6.99026 32.5192 7.57299 32.556C7.94952 32.5789 8.32849 32.5813 8.70747 32.5862C9.85336 32.5993 11.1525 32.6132 12.538 33.0543L12.9104 33.1735C13.705 33.4292 14.454 33.671 15.1386 33.7453C15.78 33.8139 16.3098 33.9953 16.7344 34.1407C16.9202 34.2044 17.1753 34.2926 17.2642 34.3C18.397 34.2616 19.19 34.8914 19.5258 35.1593C19.5404 35.1724 19.5323 35.1699 19.5054 35.1593C20.0237 35.4011 20.5437 35.6282 21.0629 35.8569C22.5405 36.5071 24.0678 37.1794 25.5421 38.1041C25.7157 38.2119 25.9325 38.3042 26.2023 38.381C26.8339 38.564 27.776 38.8915 28.6375 39.6218C28.8844 39.8325 29.2984 40.0163 29.7785 40.2279C30.3107 40.4648 30.9146 40.7311 31.5242 41.1362C31.9553 41.4246 32.402 41.6925 32.8461 41.9613C33.4843 42.346 34.1208 42.7307 34.7312 43.1588C35.0075 43.3524 35.3629 43.5435 35.7378 43.7453C35.9334 43.8507 36.1281 43.956 36.3221 44.0639C36.5422 44.1888 36.7622 44.304 36.9831 44.42C37.7679 44.8317 38.6579 45.2973 39.4933 46.0611C39.5422 46.0954 39.7565 46.1991 39.9146 46.2751C40.3718 46.4965 40.9986 46.8003 41.5837 47.3403C41.8144 47.5535 42.2089 47.7683 42.6237 47.9978C42.9578 48.1816 43.2904 48.3662 43.6098 48.5704C44.2569 48.9862 44.9228 49.3685 45.5895 49.7508L46.9326 50.5219C47.6473 50.9254 48.4575 51.3812 49.2309 51.9833C49.3295 52.0592 49.6759 52.1916 49.9285 52.288C50.2211 52.4007 50.5137 52.5142 50.7949 52.6457C52.5667 53.474 54.2562 54.5441 55.962 55.9197C56.0141 55.9614 56.0777 55.9957 56.1372 56.0136C57.1763 56.3379 58.0019 56.8926 58.6645 57.3378C59.0549 57.6016 59.2855 57.7225 59.4706 57.7748C60.5741 58.0909 61.3263 58.7313 61.8748 59.2002C62.0085 59.3137 62.1413 59.4297 62.2815 59.5343C63.1397 60.1665 63.7371 60.5047 64.3467 60.7016C65.6548 61.1231 66.7534 61.8011 67.7232 62.399C67.7909 62.4415 67.8626 62.4831 67.936 62.5232C68.2489 62.0126 68.5407 61.4711 68.8178 60.8886C69.2538 59.9697 69.6491 59.0336 70.0435 58.0958C70.2465 57.6171 70.4478 57.1401 70.654 56.663C70.852 56.2048 71.0867 55.7571 71.3223 55.3079C71.4413 55.0849 71.5578 54.8619 71.6695 54.6372C72.2766 53.4038 72.7355 52.3582 73.1145 51.3445C73.2123 51.0823 73.2872 50.8078 73.3655 50.5334C73.557 49.8578 73.795 49.0165 74.2783 48.2061C74.6581 47.569 74.9678 46.8338 75.2954 46.0562C75.4617 45.6608 75.6296 45.2646 75.808 44.8742C75.9971 44.4568 76.1829 44.0369 76.3688 43.617C76.7763 42.6981 77.1829 41.7783 77.6312 40.8748C77.9254 40.2794 78.1724 39.6112 78.4323 38.9021C78.6736 38.2478 78.9165 37.5944 79.2009 36.9572C79.2962 36.7465 79.3794 36.432 79.4682 36.0987C79.5905 35.6421 79.7274 35.1283 79.9597 34.5842C80.0257 34.3392 80.1447 33.9561 80.4112 33.5583C81.1007 32.5429 81.5742 31.325 82.0762 30.0352L82.1993 29.719C82.3908 29.2273 82.619 28.7486 82.8472 28.2708C83.1007 27.7447 83.3386 27.2497 83.4666 26.8159C83.8333 25.5768 84.3427 24.4863 84.8366 23.4333C85.1561 22.7513 85.4576 22.1059 85.6981 21.4655C85.7184 21.4116 85.7747 21.2687 85.7983 21.2156C86.055 20.6307 86.3664 20.0352 86.6818 19.4381C87.0143 18.8083 87.3281 18.2112 87.5628 17.619C87.7543 17.1354 87.9572 16.6543 88.1602 16.1723C88.4136 15.5736 88.6671 14.9732 88.8953 14.3662C89.1871 13.5968 89.5807 12.7146 90.2996 11.9647C90.5302 11.7237 90.7014 11.4934 90.8236 11.2581C91.1952 10.5385 91.6402 9.91274 92.0322 9.36136C92.3224 8.94967 92.5987 8.56166 92.7975 8.20061C93.5962 6.75232 94.6891 5.777 95.6533 4.91603C96.0282 4.58194 96.4063 4.24866 96.7519 3.88189C97.4797 3.11323 98.2703 2.60025 98.9712 2.14526C99.1888 2.00476 99.4056 1.86508 99.6175 1.71559C100.092 1.3815 100.656 1.12664 101.339 0.939577C101.556 0.879947 101.745 0.799895 101.93 0.689619C103.653 -0.334718 105.613 -0.21219 107.305 1.03107C109.085 2.33558 109.696 4.07794 110.031 5.44944C110.3 6.56526 110.305 7.59859 110.309 8.50938C110.312 9.0289 110.313 9.5182 110.366 9.94868C110.441 10.5613 110.381 11.0857 110.333 11.5048C110.317 11.651 110.288 11.7948 110.296 11.941C110.525 12.6353 110.396 13.4889 109.958 14.1718C109.961 14.3229 109.963 14.4732 109.958 14.6227C109.937 15.3849 109.828 16.08 109.626 16.7506C109.566 16.9491 109.573 17.3567 109.578 17.7505C109.583 18.0552 109.587 18.3598 109.573 18.6621C109.551 19.1898 109.473 19.6586 109.403 20.072C109.339 20.4665 109.276 20.8398 109.303 21.0571C109.393 21.749 109.211 22.485 108.785 23.1197C108.601 23.3933 108.617 23.4783 108.622 23.515C108.755 24.2674 108.6 25.0336 108.181 25.7075C108.181 26.5488 107.904 27.2007 107.733 27.6042C107.705 27.6704 107.675 27.7357 107.652 27.8027C107.565 28.0927 107.494 28.3892 107.425 28.6841C107.27 29.3359 107.095 30.0654 106.768 30.8202L106.767 30.8463C106.724 32.1165 106.311 33.1817 105.913 34.0582C105.561 34.8383 105.395 35.4068 105.378 35.9002C105.365 36.2939 105.334 37.2284 104.648 38.091C104.359 38.4553 104.261 39.0524 104.121 39.9951L104.05 40.4705C104.027 40.7572 103.973 41.3641 103.569 41.9907C103.45 42.1753 103.349 42.5527 103.243 42.9537C103.108 43.4586 102.941 44.0843 102.634 44.7222C102.594 44.8178 102.537 45.1478 102.498 45.3676C102.441 45.7 102.379 46.0349 102.296 46.3584C102.005 47.4726 101.604 48.4781 101.217 49.4494L100.679 50.8111C100.492 51.2702 100.316 51.7039 100.298 51.989C100.269 52.4865 100.133 52.9717 99.9076 53.3899C99.496 54.1439 99.0584 55.022 98.8913 55.8936C98.7014 56.8787 98.3297 57.6841 98.0029 58.3948L97.8497 58.7281C97.5571 59.3815 97.3542 60.0677 97.2491 60.7628C97.117 61.6434 96.8033 62.3712 96.5506 62.9553C96.4137 63.273 96.2841 63.5712 96.2303 63.7942C96.1749 64.0237 96.1056 64.2508 96.0331 64.4771C95.9956 64.5931 95.9499 64.705 95.9304 64.8251C95.932 65.7645 95.509 66.4947 95.2817 66.8868L95.1993 67.0322C95.126 67.2666 95.0298 67.595 94.932 67.925C94.7405 68.5753 94.5416 69.2459 94.2556 69.9484C94.258 69.9255 94.3085 70.1551 94.5522 70.2253C96.3982 70.7473 98.0624 71.1573 99.6386 71.4792C100.525 71.6605 101.504 71.6172 102.538 71.5731C103.174 71.5462 103.812 71.5225 104.45 71.5339C104.633 71.5094 104.897 71.4882 105.208 71.5274C105.747 71.5927 106.364 71.5731 107.018 71.5519C107.923 71.5241 108.948 71.4906 110.023 71.6752C110.773 71.8051 111.588 71.8247 112.453 71.8443C112.781 71.8533 113.109 71.8606 113.437 71.8737C113.861 71.8909 114.29 71.9333 114.718 71.9791C115.446 72.0551 116.073 72.1188 116.539 71.9995C117.225 71.819 117.818 71.9039 118.172 71.9538C120.244 72.2372 121.755 72.2854 123.155 72.118C123.853 72.0338 124.589 72.0575 125.415 72.1817C125.949 72.2609 126.409 72.3312 126.641 72.2756C127.116 72.1686 127.617 72.1662 128.095 72.2683C128.716 72.3998 129.432 72.4316 130.189 72.4635C131.05 72.5019 132.022 72.5435 133.024 72.7469C133.094 72.7429 133.164 72.7314 133.235 72.7249C133.516 72.693 133.899 72.6514 134.338 72.6742C136.167 72.7796 137.905 73.1064 139.585 73.4241C140.098 73.5205 140.612 73.6169 141.126 73.7067L141.236 73.7059C141.363 73.7092 141.491 73.7133 141.618 73.7223C142.787 73.8048 143.866 74.022 144.909 74.2312L145.623 74.3741C147.428 74.7245 149.235 75.0537 151.042 75.3772L151.201 75.4042C151.651 75.481 152.244 75.5831 152.877 75.8763C153.92 75.8959 154.896 76.2553 155.782 76.9472C155.852 76.9979 156.091 77.1008 156.266 77.1743C156.623 77.327 157.067 77.5166 157.526 77.8147L157.934 78.0794C158.844 78.6683 159.785 79.2769 160.695 80.0341C161.247 80.4915 161.681 81.0454 162.021 81.7266C162.993 83.6765 163.243 85.6386 162.764 87.5614C162.406 88.9967 161.498 90.0055 160.836 90.7431C158.553 93.2851 155.56 93.9076 153.508 94.1526C152.771 94.2409 152.015 94.3119 151.287 94.3487C150.302 94.3953 149.437 94.3879 148.633 94.3242C147.064 94.2 145.459 94.1976 143.85 94.3119L143.544 94.3364C142.649 94.41 141.449 94.5072 140.187 94.0881C139.4 94.1396 138.664 94.1102 137.949 94.0808C137.241 94.0538 136.576 94.0277 135.976 94.0881C135.287 94.1592 134.668 94.1355 134.085 94.0121C133.251 94.2499 132.486 94.1739 131.969 94.0938C131.362 94.0007 130.64 94.0465 129.874 94.0938C129.399 94.1224 128.922 94.1518 128.446 94.1567C128.211 94.1592 127.976 94.1723 127.741 94.1837C126.931 94.2254 125.925 94.2744 124.848 94.0121C124.787 94.0195 124.645 94.0514 124.502 94.0685C124.164 94.1126 123.824 94.1494 123.485 94.1518C123.399 94.1518 123.314 94.1649 123.23 94.1714C122.944 94.1959 122.548 94.2302 122.102 94.1861C121.56 94.133 120.953 94.1673 120.305 94.2017C119.622 94.2384 118.847 94.2776 118.041 94.2204C117.085 94.1518 116.084 94.1968 115.024 94.245C113.566 94.3087 112.058 94.3797 110.467 94.1641C108.9 93.9558 107.499 93.897 106.184 93.9876C105.192 94.053 104.231 94.0432 103.302 94.0342C102.043 94.0187 100.862 94.0072 99.7658 94.1861C98.6753 94.365 97.5767 94.5096 96.483 94.6542L95.8831 94.7351C95.509 94.7841 95.1015 94.9042 94.628 95.0414C94.2067 95.1631 93.7413 95.2979 93.2319 95.4008C93.2058 95.5135 93.1757 95.6263 93.1455 95.7365C93.1415 95.7512 93.1366 95.7684 93.1325 95.7831C93.214 96.3933 93.1048 97.0255 92.8195 97.5687C92.8399 97.7084 92.8929 97.929 92.9312 98.0883L92.9613 98.223C93.0339 98.5318 93.095 98.8406 93.1561 99.1518C93.2825 99.8004 93.3925 100.362 93.5979 100.783C93.8627 101.324 93.9263 101.826 93.9654 102.128C94.1382 103.413 94.5009 104.638 94.8595 105.792C95.0143 106.291 95.086 106.767 95.1439 107.146L92.6891 107.648L95.1659 107.285C95.2735 107.979 95.3664 108.577 95.5791 109.019C95.9834 109.862 96.0404 110.666 96.0836 111.25C96.0958 111.412 96.1007 111.574 96.1325 111.733C96.4161 113.117 96.7715 114.75 97.2605 116.333C97.5066 117.129 97.6598 117.895 97.809 118.635C97.9516 119.335 98.0844 119.999 98.2808 120.593C98.5726 121.481 98.7739 122.35 98.9687 123.19C99.1505 123.969 99.32 124.704 99.5465 125.387C99.7519 125.997 99.8359 126.57 99.9092 127.077C99.9589 127.414 100.005 127.733 100.073 127.931C100.388 128.835 100.593 129.714 100.79 130.567C100.909 131.071 101.025 131.576 101.167 132.074C101.37 132.784 101.456 133.47 101.532 134.075C101.584 134.494 101.635 134.893 101.717 135.223C101.751 135.365 101.779 135.505 101.807 135.645C101.818 135.703 101.828 135.762 101.842 135.819C102.254 136.641 102.411 137.565 102.3 138.496C102.278 138.677 102.32 138.931 102.438 139.318C102.659 140.049 102.761 140.744 102.829 141.327C102.95 142.333 103.095 143.034 103.31 143.658C103.613 144.532 103.666 145.37 103.708 146.043C103.731 146.406 103.754 146.752 103.81 146.999C104.013 147.896 104.098 148.862 104.062 149.874C104.075 149.917 104.087 149.959 104.1 149.999C104.177 150.264 104.247 150.53 104.288 150.8L104.381 151.391C104.712 153.465 105.054 155.608 104.732 157.906C104.322 160.85 103.027 162.846 100.775 164.009C99.8685 164.477 98.8562 164.92 97.5962 164.994C97.5131 164.998 97.4333 165 97.3534 165ZM96.4495 157.653C96.668 157.916 97.0095 158.34 97.1961 158.964C97.2319 159.065 97.4879 159.369 97.6582 159.57C97.7299 159.655 97.8049 159.744 97.8799 159.836C98.0445 159.771 98.2385 159.678 98.4805 159.552C99.1081 159.228 99.5661 158.707 99.7747 157.213C99.7747 157.213 99.7747 157.213 99.7747 157.211C99.9923 155.661 99.7234 153.97 99.4373 152.183L99.3428 151.575C99.3314 151.524 99.311 151.462 99.2923 151.399C99.1855 151.032 99.0249 150.476 99.0559 149.782C99.0844 149.172 99.0396 148.608 98.9271 148.107C98.7829 147.465 98.7454 146.879 98.7128 146.363C98.6851 145.936 98.659 145.532 98.5783 145.297C98.1513 144.057 97.9687 142.842 97.8587 141.924C97.8122 141.537 97.756 141.132 97.6484 140.78C97.4479 140.121 97.1985 139.123 97.32 137.976C97.0575 137.439 96.9614 136.947 96.8953 136.617L96.8538 136.418C96.703 135.808 96.6305 135.221 96.5645 134.701C96.5066 134.236 96.4504 133.795 96.3534 133.455C96.1879 132.877 96.051 132.291 95.9157 131.708C95.7381 130.949 95.5726 130.233 95.3452 129.582C95.1195 128.928 95.0274 128.304 94.9548 127.798C94.9084 127.473 94.8636 127.167 94.8008 126.98C94.4968 126.067 94.2914 125.18 94.0926 124.323C93.9165 123.559 93.7495 122.837 93.5286 122.168C93.2376 121.285 93.0681 120.441 92.9027 119.625C92.7714 118.979 92.6476 118.369 92.478 117.813C91.9263 116.022 91.5367 114.242 91.2295 112.733C91.1529 112.363 91.1186 111.985 91.0925 111.611C91.0795 111.44 91.0616 111.202 91.0412 111.124C90.5359 110.078 90.368 109.002 90.2213 108.057L90.1969 107.895C90.1651 107.687 90.1439 107.476 90.0811 107.278C89.6785 105.985 89.2303 104.467 89.0135 102.862C89.0135 102.862 89.0086 102.818 89.0021 102.772C88.5791 101.834 88.4031 100.923 88.2433 100.115C88.1944 99.8617 88.1455 99.6101 88.0876 99.3601C87.8749 98.4567 87.5742 97.1824 88.1056 95.8207C88.095 95.2137 88.2295 94.7261 88.3216 94.3953C88.3387 94.3348 88.3574 94.276 88.3696 94.2139C88.6264 92.2641 90.0494 90.8362 92.0787 90.5136C92.4218 90.4596 92.8146 90.3445 93.2319 90.2219C93.8146 90.0537 94.4764 89.8601 95.2246 89.762L95.8277 89.6812C96.8725 89.5439 97.9206 89.4043 98.963 89.2352C100.485 88.9852 101.942 89.0024 103.356 89.0171C104.225 89.0269 105.049 89.0342 105.849 88.9828C107.496 88.87 109.223 88.9387 111.126 89.1911C112.279 89.3446 113.505 89.2915 114.804 89.2327C115.955 89.1837 117.149 89.1274 118.392 89.2156C118.89 89.2499 119.452 89.2229 120.044 89.1886C120.808 89.1494 121.673 89.1028 122.581 89.1935C122.63 89.1911 122.714 89.178 122.798 89.1715C123.151 89.1421 123.507 89.1396 123.868 89.093C124.411 89.0244 125.157 88.9264 126.023 89.1347C126.4 89.2254 126.909 89.2009 127.498 89.1715C127.798 89.1568 128.097 89.1445 128.398 89.1396C128.785 89.1372 129.172 89.111 129.561 89.0865C130.512 89.0252 131.587 88.9591 132.736 89.1355C132.769 89.1404 132.801 89.1486 132.833 89.151C133.538 88.9403 134.289 88.9256 135.119 89.1037C135.154 89.1118 135.241 89.1233 135.453 89.0988C136.411 88.9983 137.336 89.035 138.151 89.0694C138.841 89.0963 139.493 89.1208 140.081 89.0669C140.758 88.9958 141.34 89.16 141.706 89.3046C142.011 89.4296 142.559 89.3855 143.138 89.3365L143.484 89.3095C145.345 89.1723 147.212 89.1772 149.033 89.325C149.618 89.3691 150.279 89.3765 151.046 89.3373C151.656 89.3079 152.291 89.2466 152.913 89.1731C154.958 88.928 156.214 88.3946 157.119 87.3858C157.413 87.0607 157.854 86.5673 157.911 86.3451C158.098 85.5985 157.981 84.8438 157.547 83.9722C156.822 83.3301 156.045 82.8278 155.222 82.296L154.802 82.0232C154.707 81.9619 154.501 81.8729 154.304 81.7887C153.848 81.5935 153.279 81.3509 152.711 80.9073C152.706 80.9024 152.702 80.8983 152.701 80.8959C152.006 80.8959 151.33 80.744 150.735 80.4074C150.655 80.387 150.508 80.3739 150.362 80.3502L150.168 80.3159C148.335 79.99 146.504 79.6551 144.675 79.3006L143.926 79.1511C142.996 78.964 142.117 78.786 141.274 78.7271L141.122 78.7214C140.835 78.7157 140.549 78.7002 140.27 78.6504C139.732 78.5564 139.197 78.4559 138.662 78.3547C137.068 78.0549 135.561 77.7706 134.058 77.6848C133.979 77.6848 133.887 77.7012 133.794 77.7102C133.391 77.7575 132.78 77.8262 132.087 77.6758C131.458 77.5411 130.739 77.5108 129.978 77.4782C129.185 77.4439 128.298 77.4046 127.382 77.2405C126.383 77.3981 125.499 77.2658 124.772 77.1563C124.288 77.0828 123.994 77.0697 123.745 77.1008C121.909 77.3181 120.01 77.2699 117.582 76.9366L117.497 76.9252C116.271 77.1857 115.13 77.0648 114.199 76.9668C113.876 76.9341 113.555 76.8982 113.234 76.8851C112.936 76.8721 112.637 76.8672 112.337 76.859C111.328 76.8361 110.284 76.8108 109.169 76.618C108.598 76.5192 107.913 76.5396 107.18 76.5657C106.48 76.5878 105.695 76.6139 104.872 76.5355C104.721 76.5502 104.575 76.5584 104.438 76.5502C103.885 76.5339 103.322 76.56 102.754 76.5845C101.525 76.636 100.128 76.6973 98.6419 76.395C96.9426 76.047 95.161 75.6084 93.1961 75.0521C91.7201 74.6355 90.4878 73.6038 89.813 72.2201C89.1594 70.8788 89.0909 69.3586 89.6239 68.05C89.8154 67.5803 89.9727 67.0543 90.1366 66.4988C90.2515 66.1132 90.3656 65.7277 90.4935 65.3454C90.6321 64.9313 90.8195 64.6037 90.9475 64.384C90.998 63.795 91.1512 63.3123 91.2702 62.9438C91.3044 62.8368 91.3403 62.7315 91.3656 62.6236C91.5212 61.9759 91.7543 61.4367 91.9605 60.9605C92.1178 60.597 92.267 60.2515 92.302 60.0171C92.4756 58.8661 92.8065 57.7413 93.2882 56.6679L93.4609 56.2922C93.6989 55.7751 93.9043 55.3283 93.9793 54.9419C94.249 53.5443 94.7992 52.3378 95.3379 51.3192C95.4552 50.37 95.7788 49.5727 96.0453 48.9176L96.2075 48.5125C96.3265 48.2037 96.4479 47.8957 96.571 47.5878C96.9174 46.7203 97.2434 45.9026 97.4544 45.0866C97.505 44.8987 97.5359 44.7043 97.5685 44.5123C97.6647 43.9511 97.7853 43.2552 98.1276 42.5445C98.2303 42.3305 98.3175 42.0037 98.4096 41.6566C98.562 41.0929 98.7421 40.4158 99.104 39.7231C99.1056 39.7125 99.1081 39.7018 99.1089 39.6904L99.1725 39.2665C99.3387 38.131 99.5417 36.7481 100.397 35.437C100.51 34.0141 100.965 32.8558 101.362 31.9817C101.567 31.5308 101.756 31.066 101.768 30.6862C101.78 30.326 101.8 29.6406 102.155 28.881C102.319 28.5264 102.431 28.0616 102.559 27.5217C102.654 27.1247 102.749 26.7277 102.868 26.3389C102.939 26.1061 103.033 25.8725 103.132 25.6397C103.144 25.6094 103.157 25.58 103.171 25.5498C103.157 24.7281 103.36 24.068 103.617 23.5657C103.6 22.6467 103.828 21.749 104.296 20.8815C104.301 20.2639 104.393 19.715 104.47 19.2478C104.514 18.9831 104.565 18.7193 104.577 18.4497C104.585 18.2455 104.58 18.0356 104.578 17.8264C104.566 17.1223 104.554 16.2466 104.837 15.3032C104.911 15.0548 104.949 14.8016 104.958 14.4814L104.956 14.2649C104.947 13.8091 104.931 13.0094 105.302 12.1787C105.278 11.6927 105.326 11.2679 105.362 10.9395C105.379 10.8031 105.403 10.6683 105.398 10.5352C105.312 9.83596 105.309 9.14163 105.307 8.52899C105.303 7.8028 105.3 7.17627 105.17 6.63633C104.933 5.66345 104.691 5.32691 104.355 5.07859C103.812 5.38409 103.266 5.60873 102.671 5.77455C102.513 5.81784 102.456 5.84561 102.454 5.84725C102.23 6.00735 101.961 6.18298 101.691 6.35778C101.161 6.70168 100.702 6.9982 100.388 7.32984C99.9443 7.79872 99.4659 8.23165 98.985 8.66132C98.2238 9.34094 97.5669 9.92744 97.179 10.6275C96.8424 11.2377 96.4528 11.785 96.1113 12.2686C95.7861 12.7268 95.4781 13.1589 95.267 13.5674C94.9247 14.229 94.4683 14.858 93.9084 15.4396C93.8701 15.4812 93.7715 15.6315 93.5775 16.1421C93.3265 16.8062 93.0494 17.4662 92.7731 18.1238C92.5832 18.5747 92.3933 19.0231 92.2148 19.4732C91.8815 20.3154 91.487 21.0596 91.108 21.78C90.8546 22.2603 90.6011 22.739 90.3811 23.2348C90.0445 24.1187 89.7013 24.8522 89.3696 25.5621C88.9361 26.4892 88.5261 27.3641 88.2661 28.2422C88.0241 29.059 87.672 29.7934 87.3615 30.4428C87.1863 30.8063 87.0094 31.1706 86.8627 31.5464L86.7421 31.8559C86.196 33.2626 85.6321 34.7109 84.7323 36.1077C84.6883 36.2514 84.6418 36.3813 84.5864 36.5047C84.4829 36.7375 84.3973 37.0569 84.3069 37.395C84.1773 37.8811 84.0289 38.4324 83.7706 39.0108C83.5334 39.5417 83.3329 40.0907 83.1316 40.638C82.8374 41.4401 82.5318 42.27 82.1161 43.1065C81.7005 43.9438 81.324 44.7966 80.9466 45.6486C80.7551 46.0848 80.5611 46.5201 80.3647 46.9547C80.2066 47.3035 80.0566 47.6556 79.9091 48.0085C79.5285 48.9094 79.1365 49.839 78.5782 50.7768C78.4315 51.0226 78.3109 51.4515 78.1821 51.9049C78.0672 52.3084 77.9507 52.7135 77.804 53.1065C77.3639 54.2795 76.8431 55.4704 76.1626 56.8526C76.0322 57.1188 75.8912 57.386 75.751 57.6531C75.5733 57.9872 75.3948 58.3196 75.2473 58.6627C75.046 59.1242 74.852 59.5874 74.6556 60.0489C74.231 61.0536 73.808 62.0584 73.3386 63.046C72.6947 64.3987 71.98 65.5913 71.1536 66.694C70.2033 67.9708 68.7004 68.3996 67.3247 67.7854L67.2057 67.7314C66.5529 67.4406 65.8137 67.1106 65.0989 66.6687C64.3027 66.177 63.5513 65.7122 62.8202 65.4769C61.376 65.0129 60.2399 64.2533 59.3165 63.5728C59.0834 63.3997 58.8577 63.2101 58.6327 63.019C58.4542 62.8654 58.1853 62.6367 58.0834 62.5918C57.1788 62.3353 56.4404 61.8803 55.9661 61.5617C55.4053 61.1843 54.9978 60.9099 54.6458 60.8012C53.9823 60.5913 53.3743 60.2662 52.8316 59.83C51.4412 58.7101 50.0834 57.8459 48.6824 57.1915C48.5072 57.1107 48.3271 57.0429 48.1469 56.9743C47.5732 56.7545 46.8568 56.4817 46.1689 55.9483C45.6832 55.5709 45.0988 55.2433 44.4827 54.8937L43.0997 54.0997C42.3662 53.6774 41.631 53.2535 40.9155 52.7944C40.6905 52.6506 40.4558 52.5232 40.2211 52.395C39.5903 52.0486 38.8755 51.6573 38.1966 51.0284C38.1379 50.9843 37.9089 50.8748 37.7427 50.7931C37.2993 50.5791 36.6905 50.285 36.1257 49.768C35.7679 49.4428 35.2569 49.1741 34.6668 48.8645C34.3979 48.724 34.1306 48.5827 33.8665 48.434L33.3751 48.1661C32.9122 47.917 32.3881 47.636 31.8706 47.2741C31.3498 46.9106 30.8086 46.5855 30.2675 46.2596C29.7589 45.9532 29.2512 45.6453 28.7565 45.3161C28.503 45.1486 28.142 44.9885 27.7581 44.8186C27.0645 44.5123 26.2031 44.13 25.4044 43.4512C25.3408 43.3981 25.1843 43.3091 24.8168 43.2029C24.0939 42.9946 23.4655 42.7177 22.8925 42.3591C21.723 41.6272 20.4272 41.0562 19.0523 40.4509C18.4728 40.196 17.8933 39.942 17.3204 39.6733C17.0571 39.5515 16.8395 39.4094 16.6659 39.282C16.0457 39.2068 15.5258 39.0296 15.1166 38.8891C14.9357 38.8286 14.6904 38.7437 14.6032 38.7339C13.4084 38.6056 12.3293 38.2568 11.3766 37.9489L11.0245 37.8361C10.3513 37.6213 9.56322 37.614 8.65123 37.6033C8.18994 37.5976 7.72784 37.5911 7.26573 37.5633C7.12555 37.5568 6.9381 37.5658 6.72702 37.5846C6.35212 37.9962 5.88186 38.3124 5.3407 38.506C5.3244 38.5354 5.20297 38.7257 5.08479 38.907C5.09539 38.9708 5.10517 39.0328 5.11658 39.0957C5.14184 39.2509 5.17363 39.4527 5.20378 39.5728C5.65774 39.9951 5.98211 40.5832 6.10762 41.2179C6.17852 41.3119 6.32196 41.4703 6.40346 41.5626L6.80037 42.0078C7.04242 42.2823 7.28285 42.5584 7.53794 42.819C7.9593 43.2486 8.37413 43.6914 8.78897 44.1366C9.68221 45.0931 10.5249 45.9949 11.4426 46.7497C11.8371 47.0748 12.2527 47.3795 12.6667 47.6842C13.3448 48.1824 14.0473 48.6979 14.7295 49.3228C14.8167 49.4053 15.0425 49.536 15.2405 49.6528C15.6268 49.8791 16.1052 50.1625 16.5755 50.5897C16.7662 50.7621 16.952 50.9483 17.1362 51.1362C17.3188 51.3208 17.595 51.5993 17.7002 51.6516C18.2796 51.824 18.7915 52.2006 19.1957 52.7617C19.4989 53.1808 20.1028 53.5255 20.8004 53.9233C21.1835 54.1414 21.5649 54.3603 21.93 54.6005C22.243 54.8055 22.5502 55.0228 22.8599 55.2417C23.4516 55.6608 24.0107 56.0561 24.547 56.2897C25.3864 56.6606 25.785 57.3271 25.9333 57.5779C25.9398 57.582 26.0238 57.6604 26.362 57.8344C27.3335 58.3368 28.4394 58.96 29.3506 60.0024C29.3865 60.0195 29.4215 60.035 29.4557 60.053L29.437 60.102C29.4549 60.1224 29.472 60.1437 29.4892 60.1641C29.4712 60.1428 29.4533 60.1224 29.4354 60.1045L28.5177 62.3851L29.6106 60.129C29.8901 60.2646 30.2732 60.4516 30.6774 60.7645L30.8535 60.9017C31.6505 61.5209 32.4028 62.1066 33.1754 62.4717C33.7337 62.7347 34.1184 63.0974 34.3482 63.3139L34.4517 63.4103C34.7687 63.6774 35.0776 63.96 35.3857 64.2435C36.1632 64.9574 36.8347 65.5733 37.5658 65.8257C38.1705 66.034 38.7158 66.3893 39.1819 66.8795C39.6367 67.3598 40.2504 67.7886 40.9 68.2461C41.4941 68.6627 42.1062 69.0931 42.7133 69.6282C43.1054 69.9729 43.5772 70.3054 44.076 70.6574C44.8503 71.2023 45.7158 71.8108 46.4998 72.626C47.4004 73.0647 48.1869 73.6055 48.9171 74.1225L49.0491 74.214C49.6563 74.6437 50.2293 75.0505 50.7761 75.3127C53.3556 76.5559 55.4233 78.42 57.0834 79.9165C57.8634 80.619 58.2456 81.4326 58.2179 82.3327C58.1763 83.6977 57.204 84.4688 56.8829 84.7212C56.2969 85.1868 55.711 85.552 55.1445 85.9065C54.8658 86.0805 54.5871 86.252 54.3157 86.4383C53.9595 86.6784 53.5993 86.9079 53.2382 87.1359C52.4355 87.6448 51.6767 88.1251 51.1135 88.6961C50.6221 89.1927 50.0769 89.4083 49.7827 89.5235C49.6963 89.5578 49.508 89.6828 49.3694 89.7767C49.2219 89.8715 49.0752 89.9695 48.9236 90.061C48.6547 90.2244 48.3597 90.4964 48.0157 90.8125C47.6449 91.1556 47.2692 91.4938 46.8601 91.7952C46.2814 92.2232 45.7003 92.581 45.1388 92.929C44.1795 93.5245 43.3507 94.0358 42.7965 94.7122C42.5177 95.0528 42.2211 95.2464 42.1086 95.3175C41.5601 95.721 40.9334 96.0984 40.327 96.4635C40.0784 96.613 39.8299 96.7617 39.5854 96.9169C38.6677 97.4944 37.8022 98.1512 36.7842 98.9566L35.2936 100.132C33.5014 101.543 31.6473 103 29.9309 104.511C29.675 104.736 29.4134 104.957 29.1501 105.177C28.5234 105.704 27.9325 106.2 27.503 106.715C26.8339 107.518 26.08 108.045 25.4142 108.511C24.8909 108.875 24.4394 109.191 24.2332 109.51C23.9708 109.911 23.5462 110.262 23.1012 110.463C23.0278 110.544 22.9072 110.701 22.8143 110.822L22.5804 111.136C22.3783 111.418 22.1004 111.804 21.7026 112.174C20.6309 113.178 19.5845 114.369 18.595 115.708C18.2739 116.142 17.9325 116.563 17.5885 116.985C16.8061 117.939 16.1321 118.763 15.8192 119.688C15.7303 119.951 15.5453 120.497 15.56 120.663C15.5771 120.758 15.5934 120.837 15.6081 120.896C15.9756 121.021 16.4157 121.119 16.9439 121.195C17.0743 121.212 17.1615 121.227 17.2316 121.236C17.9056 120.964 18.5918 120.729 19.2796 120.495C20.2576 120.159 21.1835 119.845 22.0164 119.424C22.626 119.115 23.2414 118.822 23.8575 118.527C24.9439 118.01 25.97 117.52 26.9504 116.962L27.2577 116.785C27.9643 116.384 28.6725 115.977 29.3938 115.598C29.926 115.316 30.4517 115.122 30.9138 114.951C31.4533 114.75 31.9643 114.561 32.1599 114.339C32.5756 113.861 33.1925 113.523 33.8812 113.41C33.8999 113.395 34.1069 113.273 34.2569 113.183C34.4044 113.097 34.5503 113.011 34.6994 112.927C35.252 112.624 35.8176 112.342 36.3841 112.062C37.2382 111.639 38.0442 111.237 38.7704 110.767C39.0736 110.571 39.3865 110.382 39.7011 110.194C40.1013 109.954 40.5047 109.714 40.8771 109.444C41.5112 108.984 42.138 108.629 42.7451 108.286C43.1412 108.061 43.5398 107.837 43.9179 107.586L44.098 107.458C44.4925 107.174 45.151 106.702 46.0825 106.53H46.0809C46.0597 106.53 46.1306 106.491 46.283 106.376C46.7484 106.023 47.4501 105.543 48.3711 105.255C48.8519 104.653 49.636 104.037 50.887 103.829C52.0263 103.106 53.1942 102.583 54.323 102.076C55.1233 101.718 55.8788 101.379 56.5781 100.991C57.5716 100.438 58.5993 100.099 59.508 99.8004L60.0541 99.6215C61.3206 99.1935 62.6507 98.62 64.0117 97.9167C66.0321 96.8711 68.1234 97.1285 69.8936 98.6445C70.9368 99.5365 71.8276 100.692 72.5415 102.081C72.7771 102.541 73.0517 102.98 73.3231 103.421C73.8683 104.3 74.4763 105.282 74.8871 106.45C75.839 107.633 76.2449 108.953 76.579 110.04L76.6874 110.384C76.8186 110.809 77.0004 111.215 77.1772 111.627C77.4552 112.271 77.7689 113.001 77.9857 113.823C78.3484 115.197 78.905 116.61 79.4421 117.98C80.0151 119.432 80.4323 120.669 80.7535 121.867C80.9401 122.56 81.2457 123.287 81.5685 124.057L81.8896 124.83C82.1047 125.357 82.3305 125.883 82.5579 126.408C82.9694 127.361 83.3957 128.345 83.7633 129.377C83.9841 130.002 84.2335 130.611 84.4821 131.224C84.8937 132.238 85.3183 133.283 85.6516 134.412C85.7364 134.547 85.8032 134.662 85.8619 134.78L86.1748 135.4C86.5473 136.137 86.9189 136.872 87.2735 137.616C87.3957 137.873 87.4699 138.108 87.522 138.3C88.0828 138.975 88.3101 139.683 88.4699 140.181L88.7576 141.033C88.9776 141.69 89.1863 142.31 89.4454 142.823C89.6321 143.188 89.7853 143.575 89.9369 143.965C90.0917 144.363 90.2392 144.738 90.3819 144.901C91.0053 145.61 91.0983 146.443 91.1382 146.797C91.1749 147.116 91.311 147.463 91.5962 147.969C91.9279 148.554 92.3452 149.34 92.6272 150.2C92.9157 151.067 93.4031 151.926 93.9198 152.837C94.1048 153.163 94.2906 153.489 94.4691 153.82C94.6239 154.104 94.8114 154.376 94.9948 154.647C95.5237 155.436 96.1651 156.391 96.4495 157.653ZM86.5921 148.179C86.6019 148.191 86.6109 148.202 86.6206 148.213C86.6109 148.203 86.6019 148.191 86.5921 148.179ZM87.139 137.892C87.1414 137.894 87.1431 137.897 87.1455 137.897C87.1431 137.896 87.1414 137.894 87.139 137.892ZM34.728 118.354C34.7206 118.357 34.7117 118.357 34.7052 118.359C34.7125 118.357 34.7198 118.357 34.728 118.354ZM35.9252 117.646C35.9081 117.663 35.8926 117.683 35.8763 117.699C35.8926 117.683 35.9097 117.666 35.9252 117.646ZM88.1928 96.5763C88.1977 96.6008 88.2026 96.6228 88.2091 96.6473C88.2026 96.622 88.1977 96.6008 88.1928 96.5763ZM88.4634 95.1067C88.4577 95.1141 88.4528 95.1239 88.4462 95.1329C88.4528 95.1231 88.4577 95.1133 88.4634 95.1067ZM127.052 77.1759C127.054 77.1759 127.056 77.1776 127.058 77.1776C127.055 77.1767 127.054 77.1759 127.052 77.1759ZM153.167 76.0242C153.169 76.0258 153.173 76.0282 153.177 76.0299C153.172 76.0282 153.169 76.0258 153.167 76.0242ZM104.582 71.5364C104.593 71.5364 104.603 71.538 104.613 71.538C104.604 71.538 104.593 71.5364 104.582 71.5364ZM15.1419 55.7008C15.1435 55.7016 15.1435 55.7032 15.1443 55.7057C15.1443 55.7032 15.1435 55.7016 15.1419 55.7008ZM1.86147 43.3066C1.87288 43.3156 1.88347 43.3246 1.89488 43.3336C1.88429 43.3246 1.87288 43.3148 1.86147 43.3066ZM6.12881 41.3356C6.12881 41.3364 6.12881 41.338 6.12881 41.3388C6.12881 41.3372 6.12881 41.3364 6.12881 41.3356ZM4.77591 39.3776L4.76613 39.3939C4.7702 39.389 4.77183 39.3841 4.77591 39.3776ZM100.732 34.9698C100.727 34.9747 100.723 34.9788 100.721 34.982C100.723 34.978 100.727 34.9739 100.732 34.9698ZM105.488 13.2978C105.491 13.3133 105.497 13.3272 105.502 13.3427C105.496 13.3272 105.492 13.3133 105.488 13.2978Z" fill="#C0D5E2"/>
</svg>
