<svg width="429" height="367" viewBox="0 0 429 367" fill="none" xmlns="http://www.w3.org/2000/svg">
<g clip-path="url(#clip0_61_90)">
<path d="M367.657 22.689C377.919 27.1886 386.68 33.4409 393.939 41.1913C416.466 64.6936 425.227 101.7 424.977 140.702C424.477 180.208 414.965 221.713 400.697 254.466C391.936 274.468 381.424 291.22 370.41 301.722C348.634 322.225 329.611 322.225 304.33 322.474C280.301 322.474 250.765 322.474 208.213 339.226C147.64 362.98 102.836 367.23 70.7969 358.229C45.7673 351.228 28.7463 335.976 17.9836 315.724C7.47051 295.471 3.21569 269.718 4.46751 242.215C6.9703 182.208 34.253 112.449 72.2993 65.6947C98.8312 33.1915 145.639 15.4391 195.699 8.18753C260.777 -1.31387 331.112 6.93707 367.657 22.689ZM396.942 38.1916C389.433 30.19 380.172 23.6884 369.409 18.9394C332.114 2.68689 261.028 -5.56403 195.198 4.18677C144.137 11.4366 96.3284 29.6912 69.0449 63.1938C30.4984 110.449 2.71462 180.958 0.210976 241.965C-1.03999 270.468 3.21569 296.721 14.2281 317.724C25.4928 338.976 43.5142 354.978 69.7965 362.479C102.586 371.731 148.141 367.48 209.715 343.227C251.766 326.725 280.801 326.725 304.33 326.725C330.611 326.475 350.386 326.475 373.164 304.722C384.677 293.721 395.691 276.72 404.701 255.967C418.969 222.963 428.731 180.708 428.981 140.952C429.482 100.698 420.221 62.6941 396.942 38.1916Z" fill="#F2EBD8"/>
</g>
<defs>
<clipPath id="clip0_61_90">
<rect width="429" height="367" fill="white" transform="matrix(1 0 0 -1 0 367)"/>
</clipPath>
</defs>
</svg>
