<svg width="118" height="130" viewBox="0 0 118 130" fill="none" xmlns="http://www.w3.org/2000/svg">
<g clip-path="url(#clip0_399_498)">
<path d="M25.12 57.8718C24.6979 56.9706 23.6682 56.6293 22.7357 57.0811C21.8938 57.4905 21.5344 58.3077 21.8763 59.0455C22.2638 59.8843 23.3972 60.1904 24.4521 59.7416C25.2207 59.415 25.49 58.6595 25.12 57.8718Z" fill="black"/>
<path d="M27.9497 62.3362C25.3534 63.6051 24.5092 65.3075 25.4939 67.2843C26.7349 69.7774 28.9209 70.8665 30.8334 69.9454C32.8753 68.9626 34.0877 65.8762 33.1785 63.9776C32.1137 61.7559 30.3007 61.1872 27.9497 62.3362Z" fill="#FF9999"/>
<path d="M57.5379 110.23C57.6707 110.23 57.8194 110.217 57.9816 110.178C58.2187 110.12 58.5383 110.127 58.9095 110.135C59.2437 110.142 59.6219 110.15 60.0258 110.112C60.2167 110.094 60.4064 110.097 60.6077 110.096C60.9391 110.077 61.302 110.097 61.7013 110.051L61.826 110.042C62.1128 110.026 62.5823 110 63.1004 109.743C63.1361 109.737 63.1718 109.734 63.2058 109.73C63.6197 109.683 64.0031 109.598 64.3415 109.523C64.7805 109.425 65.1546 109.335 65.4496 109.369C66.0491 109.42 66.4946 109.273 66.8107 109.082L66.9506 109.06C67.2381 109.004 67.5208 108.942 67.8024 108.881L68.3515 108.764C68.5014 108.733 68.6536 108.709 68.8052 108.683C69.2337 108.613 69.7196 108.535 70.226 108.35C70.3232 108.314 70.425 108.291 70.5269 108.265C70.8887 108.171 71.3757 108.045 71.8733 107.726C72.6191 107.677 73.2274 107.456 73.7414 107.251C74.099 107.108 74.5305 107.022 74.9877 106.931C75.1856 106.892 75.3828 106.851 75.5801 106.808L75.7388 106.771C76.9494 106.501 78.314 106.196 79.5913 105.46C80.1914 105.34 80.6966 105.11 81.1134 104.921L81.3891 104.797C81.5595 104.724 81.7216 104.641 81.8832 104.557C82.012 104.49 82.1449 104.42 82.2181 104.397C82.6987 104.245 83.1547 103.964 83.5382 103.583C83.5645 103.557 83.5903 103.54 83.6283 103.523C84.1177 103.311 84.4637 103.009 84.7154 102.789C84.7739 102.738 84.8313 102.686 84.8922 102.64C84.9548 102.59 85.028 102.551 85.0989 102.506C85.3506 102.352 85.696 102.141 86.0238 101.793L86.2205 101.575C86.2773 101.511 86.3341 101.446 86.3938 101.385L86.546 101.228C86.8639 100.9 87.1384 100.618 87.41 100.456C87.8532 100.194 88.1945 99.8025 88.3894 99.3278C88.4567 99.1645 88.6388 98.9425 88.8314 98.7069C88.9567 98.553 89.0814 98.3991 89.1996 98.2405C89.4912 97.8486 89.8465 97.3687 90.0795 96.739C90.2065 96.571 90.3623 96.3436 90.4729 96.0399C90.6304 95.6123 90.8405 95.1752 91.0624 94.7123C91.3048 94.2083 91.5547 93.6872 91.769 93.115C91.8322 92.9453 91.8908 92.7702 91.9487 92.5957C91.9985 92.446 92.0465 92.2967 92.1033 92.1534C92.1963 91.9231 92.28 91.6823 92.3638 91.442C92.4703 91.136 92.5698 90.8469 92.6851 90.6161C92.9878 90.0093 93.1183 89.4148 93.2267 88.8585C93.3197 88.3803 93.4046 87.9033 93.4907 87.4263C93.6154 86.7337 93.7401 86.0423 93.8841 85.352C94.0456 84.5872 94.199 83.7648 94.1434 82.8836C94.1428 82.8366 94.1674 82.6851 94.1867 82.574C94.2271 82.3308 94.2775 82.0289 94.2775 81.677C94.2775 81.5607 94.3196 81.3633 94.3641 81.1536C94.4121 80.9257 94.4589 80.6972 94.4894 80.4669C94.511 80.4064 94.5286 80.3529 94.545 80.3C94.6164 80.1273 94.7821 79.7079 94.7118 79.1745C94.7224 79.144 94.7335 79.1134 94.7434 79.084C94.7803 78.9771 94.8166 78.8702 94.8476 78.7621C95.0496 78.0684 95.0168 77.3564 94.7563 76.6832C94.7604 76.5804 94.7598 76.4899 94.7598 76.4153L94.7598 76.4024C94.9682 75.7709 95.0133 75.174 95.0496 74.6871L95.0683 74.4515C95.1579 73.3818 95.2557 72.1376 95.2844 70.891C95.299 70.2437 95.3318 69.5611 95.4717 68.9472C95.5618 68.5465 95.5689 68.177 95.563 67.8375C95.5478 66.9287 95.5741 66.2414 95.6497 65.6117C95.6971 65.2181 95.6555 64.8845 95.6245 64.6413C95.6169 64.5837 95.6063 64.5255 95.6057 64.468C95.6116 64.3839 95.6134 64.2747 95.6145 64.166C95.6151 64.1202 95.6139 64.0744 95.618 64.0291C95.7117 63.6267 95.6918 63.1926 95.5484 62.7967C95.546 62.7656 95.5507 62.5881 95.5542 62.4577C95.5618 62.2104 95.5648 61.9637 95.5437 61.7187C95.6818 61.2764 95.6965 60.8288 95.5882 60.4035C95.6385 59.5164 95.5495 58.6969 95.4629 57.9027L95.4319 57.609C95.3482 56.8224 95.2937 55.9789 95.2539 54.8745C95.2194 53.9399 95.1093 53.165 94.9074 52.436L94.9097 52.3914C94.8892 52.1852 94.8611 51.9802 94.809 51.7822C94.6931 51.3381 94.5631 50.8605 94.3805 50.3782C94.2827 50.1197 94.2037 49.8554 94.1235 49.5928C93.9631 49.0653 93.781 48.4667 93.4754 47.8687C93.3215 47.5667 93.1617 47.2665 92.9954 46.9711C92.9937 46.9687 92.9896 46.9605 92.9831 46.9511C92.8772 46.4923 92.6254 46.0899 92.2637 45.8068C92.242 45.7574 92.225 45.7069 92.2051 45.657L92.1155 45.4361C91.9247 44.9849 91.6888 44.6383 91.5038 44.3875C91.3896 44.2324 91.2702 44.0104 91.1426 43.776C91.07 43.6414 90.9974 43.5069 90.9219 43.3747C90.8669 43.2531 90.6912 42.8842 90.2885 42.5852C90.2428 42.5418 90.1216 42.3456 90.042 42.2151C89.9056 41.9937 89.7359 41.7176 89.5076 41.445C89.3694 41.2794 89.2429 41.1072 89.1147 40.9351C88.8724 40.6091 88.5984 40.239 88.2536 39.8848C88.1073 39.7367 87.9463 39.6081 87.7794 39.4847L87.6975 39.4236C87.5968 39.3255 87.4586 39.1458 87.3117 38.9549C87.1285 38.7175 86.9441 38.482 86.7386 38.2628L86.5799 38.0931C86.1795 37.6648 85.7645 37.2213 85.2651 36.7995C84.8828 36.477 84.4865 36.1745 84.0802 35.882L83.9403 35.7809C83.5551 35.5007 83.119 35.1823 82.5687 34.9327C82.0547 34.6971 81.5513 34.4275 81.0467 34.1584C79.9982 33.5986 78.9134 33.0199 77.6759 32.664C77.5447 32.6258 77.4195 32.5847 77.2942 32.5429C76.9728 32.4378 76.6139 32.3197 76.1995 32.2463C75.696 31.9443 75.2037 31.848 74.8624 31.7816C74.791 31.7681 74.719 31.754 74.6493 31.737C74.6148 31.7282 74.5808 31.7205 74.5445 31.7129C74.1388 31.4897 73.6664 31.4039 73.1893 31.4685C72.7871 31.3669 72.4142 31.2993 72.0413 31.233C71.8154 31.1936 71.5894 31.1537 71.3658 31.1043C70.6445 30.9457 69.9309 30.8887 69.2033 30.8405L68.927 30.8241C68.5201 30.8 68.1665 30.7795 67.9042 30.6937C67.6543 30.6132 67.351 30.578 67.0888 30.615C66.7937 30.6508 66.415 30.6314 66.0146 30.6097L65.7974 30.5985C65.4877 30.5821 65.1745 30.5968 64.8619 30.615C64.6072 30.6285 64.3678 30.6443 64.2004 30.6208C64.0066 30.5897 63.663 30.5339 63.2561 30.625C63.06 30.669 62.7614 30.6526 62.4471 30.6355L62.0777 30.6185C61.8705 30.6132 61.6632 30.6179 61.456 30.6255C61.2646 30.6332 61.0807 30.6396 60.9742 30.6238C60.4222 30.5421 59.9246 30.622 59.561 30.679L59.4363 30.699C59.3304 30.7154 59.2279 30.7172 59.1249 30.7231C58.9446 30.7319 58.7654 30.743 58.5875 30.7654L58.3153 30.7994C57.8259 30.8605 57.3388 30.9228 56.843 30.9563C56.3419 30.9892 55.8806 31.0691 55.4362 31.146C55.0423 31.2142 54.6711 31.2788 54.3403 31.2958C53.9815 31.3134 53.6566 31.3745 53.3955 31.4233C53.2129 31.4579 53.0232 31.4932 52.9178 31.4932C52.4659 31.4938 52.066 31.5561 51.7125 31.6107C51.5462 31.6365 51.3805 31.6641 51.2119 31.6777L51.0978 31.6882C50.6318 31.7282 50.054 31.7763 49.434 32.0172C49.3937 32.026 49.2122 32.0342 49.0805 32.0413C48.8644 32.0518 48.6478 32.0648 48.4348 32.0936C48.1374 32.1353 47.8423 32.2005 47.5467 32.2686C47.2651 32.3338 47.0216 32.3902 46.8272 32.4008C46.5369 32.4178 46.267 32.493 46.0082 32.6223C45.8549 32.6974 45.5674 32.748 45.2624 32.802C44.9528 32.8561 44.6425 32.913 44.3422 32.9982C44.1472 33.0534 43.9459 33.0881 43.7456 33.1257C43.2931 33.2097 42.7399 33.3125 42.1726 33.5627C42.1094 33.5733 42.0532 33.5833 41.9982 33.5956L41.8126 33.6368C41.3923 33.7272 40.8795 33.8383 40.3561 34.0715C39.937 34.1008 39.5331 34.2189 39.1683 34.4175C38.5507 34.5496 38.052 34.8093 37.6375 35.0243C37.4736 35.1101 37.3108 35.1976 37.1399 35.2651L37.0257 35.3098C36.6528 35.3538 36.3221 35.4866 36.0469 35.7057C36.0382 35.7075 36.03 35.7093 36.02 35.711C35.7958 35.7627 35.4557 35.8403 35.0974 36.0312L34.8018 36.1915C34.5395 36.3331 34.2778 36.4753 34.0109 36.6074C33.8956 36.665 33.7779 36.712 33.6597 36.759C33.5361 36.8095 33.4114 36.8618 33.2885 36.9159L32.9302 37.0704C32.4836 37.2595 31.9825 37.4704 31.4831 37.8047C31.2975 37.8552 31.085 37.9227 30.8591 38.0455C30.4932 38.2464 30.1349 38.4432 29.7603 38.613L29.5934 38.6882C29.231 38.8509 28.8687 39.0148 28.5157 39.1986C28.3822 39.2685 28.2405 39.3208 28.0989 39.3766C27.805 39.4924 27.4391 39.6363 27.065 39.8648C26.9737 39.92 26.8689 39.9553 26.7653 39.9976C26.5581 40.0839 26.3497 40.1726 26.153 40.2778C25.8925 40.4164 25.6191 40.5357 25.3474 40.6567C24.9851 40.817 24.6233 40.9792 24.2744 41.1683C23.6943 41.4803 23.1036 41.7857 22.5141 42.08C22.1412 42.2663 21.7864 42.4801 21.4322 42.6957C21.0827 42.9077 20.7532 43.1086 20.4411 43.2467C20.1303 43.3853 19.9043 43.5633 19.7351 43.7178C19.4214 43.8465 19.0028 44.0644 18.6439 44.4615C18.1557 44.6736 17.7992 44.9767 17.5568 45.2058C17.3689 45.3826 17.2185 45.4989 17.085 45.57C16.667 45.7968 16.369 46.0752 16.1665 46.4253C16.1033 46.4853 16.0272 46.5322 15.9563 46.5839C15.7591 46.729 15.5653 46.8777 15.3879 47.0445C15.0683 47.3488 14.7293 47.6302 14.3921 47.9121C13.9876 48.2505 13.5825 48.5889 13.2002 48.9548C12.8039 49.3326 12.3754 49.7244 11.9223 50.0334C11.7982 50.1192 11.4569 50.3524 11.1958 50.78C10.81 51.0773 10.5138 51.3927 10.251 51.6723C10.1661 51.7628 10.0824 51.8539 9.99455 51.9408C9.71589 52.2234 9.43138 52.4989 9.14044 52.765C8.79387 53.081 8.42039 53.4212 8.11246 53.9011C7.72551 54.1966 7.49486 54.5426 7.35202 54.7576C7.32685 54.7964 7.30284 54.8351 7.27415 54.8715C7.20215 54.962 7.12312 55.0484 7.0435 55.1347C6.87257 55.3239 6.65947 55.5588 6.46278 55.8461C6.3855 55.9583 6.2936 56.0576 6.20521 56.1592C6.02022 56.3701 5.79835 56.6239 5.59697 56.9458C5.09996 57.3682 4.7891 57.8598 4.55201 58.2346C4.4683 58.3674 4.38693 58.5013 4.29092 58.6247C4.01227 58.9795 3.83665 59.3461 3.69439 59.6404L3.63819 59.7549C3.52579 59.9876 3.36715 60.236 3.20089 60.4992C3.11718 60.6314 3.03405 60.7624 2.95326 60.8952C2.90701 60.9557 2.72613 61.21 2.63598 61.5913C2.60085 61.7387 2.50249 61.9502 2.39888 62.1746C2.27419 62.4431 2.13486 62.7444 2.02071 63.0957C1.62439 63.5251 1.50086 63.9957 1.43881 64.2271C1.43822 64.2306 1.39959 64.3317 1.39784 64.3352C1.2146 64.7723 1.2146 65.2651 1.39725 65.7022C1.57931 66.1392 1.9288 66.4846 2.36727 66.6609C2.81277 66.8395 3.26294 67.0092 3.71546 67.1784C5.10288 67.7001 6.43409 68.2 7.5212 68.9554C6.2491 69.1222 4.91906 69.0811 3.53282 69.0394C3.16284 69.0271 2.79228 69.0159 2.4223 69.0083C1.86089 69.0053 1.3311 69.2538 0.989803 69.6997C0.64851 70.1462 0.54021 70.7277 0.695929 71.267C0.745688 71.4379 0.784326 71.6101 0.824719 71.7822C0.91253 72.1628 1.01205 72.5934 1.19177 73.0458C1.2386 73.1632 1.2907 73.2837 1.34339 73.4041C1.40135 73.5345 1.47862 73.7125 1.49033 73.7777C1.45462 74.129 1.52487 74.5631 1.68644 74.9385C1.7684 75.1276 1.82869 75.3697 1.89836 75.6499C1.95924 75.8943 2.02188 76.1375 2.09857 76.3771C2.26658 76.9017 2.50952 77.3523 2.84203 77.7535C2.88711 77.8087 2.97902 78.0202 3.03932 78.1594C3.09142 78.2804 3.14411 78.4009 3.19972 78.5189C3.50414 79.1587 3.90045 79.7755 4.4484 80.4616L4.71827 80.79C4.95887 81.079 5.1866 81.3504 5.28026 81.5724C5.4916 82.0759 5.81766 82.4013 6.0126 82.5964L6.09632 82.6804C6.16481 82.7632 6.23154 82.8501 6.30004 82.9371C6.478 83.1644 6.68875 83.434 6.95745 83.6972C7.09385 83.9868 7.2888 84.2459 7.53233 84.4609C7.71556 84.7305 7.91342 84.9367 8.06036 85.0906C8.09666 85.1282 8.13412 85.1652 8.16983 85.2034C8.24125 85.3326 8.356 85.5159 8.53923 85.6933C8.74002 85.8878 8.94082 86.1345 9.15332 86.3947C9.39978 86.6979 9.67843 87.0415 10.0109 87.3675C10.1362 87.4921 10.2791 87.6918 10.4295 87.9033C10.6309 88.1864 10.8557 88.5036 11.1554 88.8168C11.2303 88.906 11.3141 88.9953 11.3943 89.0617C11.615 89.2509 11.8345 89.5634 12.088 89.9247C12.3848 90.3476 12.7214 90.8258 13.1838 91.2658C13.2541 91.3339 13.3056 91.4185 13.3636 91.4978C13.5333 91.7299 13.7687 92.0512 14.1199 92.3438C14.3863 92.9042 14.7832 93.2654 15.0788 93.501C15.1239 93.538 15.2293 93.6684 15.306 93.763C15.7468 94.3058 16.218 94.868 16.7636 95.4043C16.8719 95.5189 16.9299 95.5794 16.9913 95.6369C17.0189 95.6651 17.0458 95.6986 17.0721 95.7303C17.2337 95.9218 17.5047 96.242 17.9315 96.4946C17.9924 96.5698 18.048 96.6326 18.1036 96.6914C18.5368 97.1443 19.0133 97.5038 19.4325 97.8222C19.5911 97.942 19.7498 98.0625 19.9043 98.187L20.1888 98.4155C20.5776 98.7269 20.9663 99.0365 21.3345 99.3736C21.681 99.6891 22.0422 99.9282 22.3507 100.121C22.6118 100.282 22.8583 100.456 23.1071 100.63C23.3787 100.819 23.6521 101.01 23.9331 101.188C24.1626 101.332 24.3962 101.466 24.6292 101.597C25.0144 101.814 25.3474 102.002 25.5869 102.216C25.8257 102.454 26.095 102.582 26.424 102.653C26.3912 102.653 26.5241 102.742 26.6213 102.809C26.8818 102.986 27.2407 103.23 27.702 103.393C27.7593 103.412 27.8085 103.44 27.8542 103.477C28.0924 103.671 28.4308 103.92 28.8704 104.077C29.371 104.257 29.8803 104.538 30.4188 104.838L30.8673 105.084C31.1565 105.241 31.5065 105.404 31.9479 105.467C31.9708 105.481 31.9918 105.495 32.0135 105.508L32.1979 105.619C32.7411 105.931 33.2791 106.078 33.7106 106.196C33.8821 106.243 34.0542 106.287 34.2199 106.351C34.5307 106.468 34.8486 106.568 35.1677 106.667C35.4785 106.764 35.7905 106.858 36.0914 106.986C36.4193 107.125 36.7202 107.177 36.9198 107.211C36.9643 107.219 37.0088 107.225 37.0533 107.237L37.2822 107.316C37.9279 107.538 38.5952 107.768 39.3006 107.953C39.6133 108.035 39.9194 108.144 40.2262 108.25L40.7331 108.423C40.8438 108.464 41.1464 108.581 41.5597 108.548C41.6639 108.536 41.8776 108.585 42.0655 108.622C42.2804 108.666 42.4958 108.707 42.7124 108.733C42.9507 108.762 43.2264 108.83 43.5197 108.902C43.7281 108.954 43.9382 109.006 44.1484 109.05L44.5266 109.129C44.8884 109.206 45.2501 109.281 45.6154 109.347C45.8999 109.398 46.1891 109.435 46.4801 109.473C46.8829 109.525 47.2622 109.574 47.5818 109.665C48.2919 109.868 49.036 109.932 49.7923 109.861C49.9638 109.842 50.1617 109.864 50.397 109.921C50.585 109.966 51.0398 110.073 51.5825 109.973C51.8448 110.032 52.086 110.044 52.2903 110.046C52.4594 110.047 52.6216 110.065 52.7843 110.081C53.145 110.115 53.5963 110.157 54.088 110.108C54.2959 110.088 54.5704 110.111 54.8631 110.138C55.2706 110.174 55.7319 110.216 56.2447 110.17C56.5157 110.146 56.8313 110.128 57.0725 110.181C57.1614 110.195 57.3259 110.23 57.5379 110.23ZM63.2028 109.688C63.2011 109.691 63.1993 109.691 63.197 109.692C63.1993 109.691 63.2011 109.69 63.2028 109.688ZM67.0753 108.894C67.0683 108.9 67.0619 108.906 67.0548 108.911C67.0613 108.905 67.0683 108.9 67.0753 108.894ZM71.9769 107.657C71.9763 107.658 71.9752 107.658 71.9752 107.659C71.9752 107.657 71.9763 107.657 71.9769 107.657ZM58.5489 106.598C58.2286 106.598 57.8862 106.611 57.5232 106.67C56.9378 106.58 56.3969 106.607 55.9356 106.647C55.7278 106.665 55.4579 106.642 55.1716 106.615C54.7484 106.579 54.2701 106.536 53.7356 106.589C53.5799 106.603 53.3545 106.583 53.1133 106.56C52.864 106.536 52.6134 106.515 52.3628 106.512C51.9308 106.341 51.4695 106.319 51.0334 106.442C50.4749 106.322 49.9615 106.291 49.454 106.341C49.1367 106.373 48.8305 106.346 48.5436 106.264C47.9699 106.1 47.4144 106.029 46.9244 105.965C46.6926 105.936 46.4596 105.907 46.2289 105.865C45.8994 105.806 45.5739 105.737 45.249 105.669L44.8573 105.586C44.6917 105.552 44.5254 105.511 44.3592 105.47C43.995 105.38 43.5835 105.278 43.1321 105.223C43.0022 105.208 42.8763 105.18 42.7505 105.155C42.449 105.094 42.0889 105.022 41.6774 105.012L41.3765 104.91C40.9819 104.773 40.5874 104.637 40.1852 104.531C39.6092 104.38 39.0319 104.181 38.4208 103.972L38.1655 103.883C37.9524 103.811 37.7323 103.765 37.5134 103.727C37.4707 103.72 37.4273 103.714 37.3852 103.703C37.0222 103.544 36.6072 103.415 36.2056 103.29C35.955 103.211 35.7033 103.135 35.4574 103.042C35.187 102.939 34.9089 102.861 34.6308 102.784C34.3458 102.706 34.0987 102.639 33.9465 102.551L33.8452 102.491C33.5771 102.326 33.1433 102.059 32.5503 101.978L32.1171 101.742C31.4989 101.399 30.8614 101.045 30.122 100.773C30.1004 100.757 30.0799 100.739 30.0594 100.723C29.6959 100.43 29.2966 100.208 28.8669 100.056C28.8236 100.037 28.6895 99.9464 28.5912 99.88C28.3523 99.7173 28.0479 99.5105 27.6604 99.3525C27.2172 99.0024 26.7618 98.7457 26.3526 98.5142C26.1682 98.4108 25.9844 98.3074 25.8052 98.1946C25.5717 98.0472 25.3439 97.8868 25.115 97.727C24.8141 97.5167 24.5127 97.307 24.2001 97.1138C24.0309 97.0074 23.8359 96.8811 23.7007 96.7578C23.2757 96.3689 22.8284 96.0094 22.3788 95.6499L22.1049 95.4296C21.9228 95.2833 21.7367 95.1411 21.5487 94.9996C21.2034 94.7376 20.8773 94.4903 20.6314 94.2335C20.4968 94.0497 20.2322 93.7019 19.7761 93.4699C19.7679 93.4599 19.7609 93.4517 19.7539 93.4428C19.6444 93.313 19.5326 93.1873 19.4108 93.071L19.2212 92.8742C18.8026 92.4624 18.4104 91.9942 18.0825 91.5901C17.8437 91.2952 17.6066 91.002 17.2659 90.7312C17.071 90.2431 16.7384 89.8401 16.3164 89.5869C16.3041 89.5616 16.2537 89.4788 16.1969 89.4018C16.0483 89.198 15.8638 88.946 15.6004 88.6963C15.3926 88.499 15.1836 88.2005 14.9617 87.8857C14.6474 87.4375 14.2932 86.934 13.7927 86.4752C13.7576 86.4341 13.7218 86.3947 13.6873 86.3624C13.5831 86.2585 13.4414 86.0599 13.2916 85.849C13.0697 85.5371 12.8186 85.1846 12.4738 84.8427C12.2794 84.6524 12.0827 84.411 11.8749 84.1554C11.6641 83.8952 11.427 83.6062 11.1554 83.3224C11.1185 83.2613 11.0805 83.2032 11.0395 83.148C10.9054 82.9676 10.7532 82.8025 10.5975 82.6404C10.5425 82.5823 10.4834 82.5288 10.4365 82.463C10.3429 82.258 10.2053 82.0818 10.0408 81.9331C9.90381 81.66 9.70828 81.4156 9.46358 81.2106C9.35177 81.1178 9.2142 80.941 9.06902 80.7553C8.97653 80.6361 8.88286 80.5168 8.78568 80.4017C8.69436 80.2924 8.59367 80.1896 8.49181 80.0862L8.45785 80.0516C8.16047 79.4101 7.74892 78.9178 7.41407 78.5172L7.19103 78.247C6.81403 77.7741 6.5623 77.3881 6.37438 76.9951C6.33692 76.9146 6.30179 76.8324 6.26491 76.749C6.10744 76.3859 5.9125 75.9336 5.5472 75.4924C5.51969 75.4584 5.48398 75.4067 5.44769 75.2939C5.39441 75.1271 5.35344 74.9561 5.31012 74.7852C5.23226 74.4721 5.14445 74.1243 5.00512 73.7571C5.00746 73.3177 4.91965 72.93 4.81076 72.6005C6.48971 72.6246 8.21374 72.5558 9.96996 72.0383C10.882 71.7704 11.5798 71.0667 11.8351 70.1561C12.0956 69.2262 11.862 68.2405 11.2087 67.5191C9.56018 65.6957 7.39534 64.794 5.41666 64.0438C5.46701 63.9134 5.52789 63.7895 5.58643 63.6643C5.71229 63.3929 5.86333 63.0675 5.97924 62.6933L6.16715 62.3943C6.3697 62.0753 6.59919 61.7129 6.79822 61.3034L6.86086 61.1742C6.92467 61.0414 7.01307 60.8587 7.05639 60.8023C7.22674 60.5844 7.37543 60.3547 7.52178 60.1238C7.63828 59.9394 7.79868 59.6868 7.87712 59.6316C8.16397 59.4324 8.38819 59.1716 8.56674 58.8338C8.60362 58.7645 8.733 58.6165 8.84715 58.4855C9.02687 58.2805 9.20366 58.0725 9.35879 57.8475C9.44309 57.7242 9.54671 57.6172 9.64565 57.508C9.77268 57.3676 9.89912 57.2266 10.0168 57.0797C10.1093 56.964 10.1936 56.8406 10.2761 56.7173C10.2802 56.7114 10.2837 56.7049 10.2884 56.6991C10.7638 56.4083 10.9792 55.9842 11.0571 55.8314C11.1045 55.741 11.3064 55.5571 11.4534 55.4237C11.8427 55.0672 12.1705 54.7505 12.4884 54.4286C12.5961 54.3199 12.7021 54.2071 12.8092 54.0932C13.0135 53.8758 13.1903 53.6879 13.3554 53.5657C13.6399 53.3554 13.8793 53.1098 14.0655 52.8361C14.6579 52.4119 15.1818 51.932 15.6221 51.5126C15.9487 51.2012 16.2947 50.914 16.6395 50.6261C17.0358 50.2954 17.4304 49.9647 17.8027 49.6104C17.8724 49.5446 17.9532 49.4912 18.0316 49.4336C18.295 49.2403 18.6638 48.9684 18.9811 48.546C19.4032 48.2875 19.7375 47.9914 19.9635 47.7794C19.9921 47.7529 20.0185 47.7259 20.0472 47.7036C20.6226 47.5303 20.978 47.2289 21.1963 46.9393C21.6149 46.7895 21.8848 46.5416 22.0288 46.4007C22.4807 46.1868 22.8911 45.9378 23.2575 45.7145C23.5274 45.55 23.7961 45.3838 24.0783 45.2416C24.7 44.9332 25.3229 44.6107 25.9387 44.2794C26.2086 44.1337 26.4878 44.011 26.7665 43.8876C27.1165 43.7325 27.466 43.5762 27.8044 43.3953C27.901 43.3442 28.0034 43.3054 28.103 43.2643C28.3283 43.1709 28.6093 43.0558 28.8938 42.8813C29.0051 42.8132 29.1871 42.7415 29.3792 42.6657C29.6361 42.5647 29.8908 42.4613 30.1367 42.3338C30.4294 42.1805 30.7309 42.0466 31.03 41.912L31.2027 41.8345C31.623 41.6442 32.0287 41.4274 32.4326 41.2077C32.6867 41.1407 33.0292 41.0385 33.3687 40.7906C33.5999 40.6208 33.9202 40.4851 34.2925 40.3283C34.4359 40.2678 34.5787 40.2067 34.721 40.1438C34.8088 40.1045 34.8972 40.0681 34.985 40.0328C35.1829 39.9517 35.3802 39.8695 35.571 39.7743C35.8731 39.6251 36.1705 39.4636 36.4696 39.3014L36.6909 39.1822C36.7272 39.1728 36.7629 39.1657 36.7986 39.1575C37.0568 39.0988 37.4718 39.0042 37.8933 38.7387C38.0929 38.6882 38.2457 38.6265 38.3564 38.5824C38.7047 38.4455 38.981 38.3057 39.255 38.1624C39.5172 38.0261 39.7889 37.8845 39.9399 37.8681C40.29 37.8287 40.5639 37.6989 40.7407 37.5938C41.0826 37.5732 41.4134 37.4827 41.7318 37.3253C41.9309 37.2266 42.2189 37.1632 42.5532 37.0909L42.7668 37.0439C42.9196 37.0239 43.2129 36.9828 43.5402 36.8201C43.738 36.7208 44.0378 36.6644 44.3843 36.5998C44.6893 36.5428 44.9949 36.4835 45.2929 36.3989C45.4802 36.3466 45.6716 36.3161 45.8631 36.2826C46.281 36.2092 46.7857 36.121 47.3114 35.9037C47.6843 35.862 48.0256 35.7827 48.3347 35.711C48.5255 35.667 48.7163 35.6205 48.9101 35.5935C49.0237 35.5783 49.1355 35.5747 49.2473 35.5694C49.6266 35.5512 50.1459 35.5254 50.6979 35.3121C50.8478 35.2546 51.1235 35.2311 51.3899 35.2082L51.5122 35.1976C51.7569 35.177 52.0016 35.14 52.2475 35.1018C52.5098 35.0613 52.7358 35.0261 52.9202 35.0261C53.3493 35.0255 53.7315 34.9538 54.0395 34.8956C54.1958 34.8663 54.3521 34.8322 54.5148 34.8234C55.0598 34.7958 55.5767 34.7059 56.0334 34.6266C56.4045 34.5632 56.7557 34.5015 57.073 34.4809C57.6368 34.4433 58.1917 34.374 58.7479 34.3053L59.0178 34.2718C59.1138 34.2594 59.208 34.2559 59.3017 34.2506C59.5218 34.2395 59.7419 34.226 59.962 34.1919L60.1078 34.1684C60.2325 34.1484 60.4315 34.1191 60.4836 34.1208C60.8893 34.1819 61.2757 34.166 61.5854 34.1566C61.7095 34.1508 61.8324 34.1461 61.9559 34.1496L62.258 34.1631C62.6801 34.1866 63.1923 34.2113 63.7473 34.1255C64.2378 34.189 64.6746 34.1631 65.0586 34.142C65.2447 34.1314 65.4332 34.1173 65.6188 34.1261L65.8237 34.1378C66.23 34.1602 66.6831 34.1843 67.1649 34.1531C67.7316 34.2929 68.2502 34.3229 68.7186 34.3505L68.9668 34.3652C69.5797 34.4069 70.1253 34.4492 70.6088 34.5549C70.8793 34.6143 71.1538 34.6636 71.4272 34.7118C71.7316 34.7652 72.0355 34.8169 72.3358 34.8962C72.5664 34.9573 72.8732 35.0108 73.2484 35.0155C73.4627 35.0983 73.6459 35.1347 73.7607 35.1576C73.9287 35.197 74.0563 35.2234 74.1857 35.2481C74.2624 35.2628 74.339 35.2728 74.4128 35.2945C74.7307 35.513 75.11 35.6558 75.5432 35.7169C75.7194 35.7427 75.9413 35.815 76.1989 35.9002C76.3669 35.9554 76.5361 36.0106 76.7064 36.0594C77.5857 36.312 78.4638 36.7813 79.3929 37.2771C79.9437 37.5703 80.5128 37.874 81.1099 38.1471C81.3376 38.2505 81.5858 38.4314 81.8727 38.64L82.0266 38.751C82.3609 38.9919 82.6852 39.2374 82.9978 39.5023C83.3391 39.7896 83.6658 40.1391 84.0117 40.5092L84.1762 40.6843C84.3015 40.8182 84.4122 40.9674 84.5257 41.1137C84.7347 41.3851 84.9718 41.6923 85.2827 41.9925C85.4115 42.1159 85.5508 42.2245 85.6924 42.3291L85.7732 42.3902C85.9161 42.5382 86.097 42.7844 86.2907 43.044C86.4599 43.2725 86.6303 43.4999 86.8129 43.7172C86.9025 43.8241 86.9716 43.9487 87.0459 44.0703C87.2397 44.384 87.4914 44.7928 87.8877 45.1664C87.9404 45.2604 87.9937 45.3585 88.047 45.4578C88.2173 45.7727 88.4093 46.1287 88.6681 46.4823C88.7758 46.6274 88.8361 46.7255 88.873 46.8125L88.9321 46.9605C89.0644 47.2942 89.2628 47.7941 89.6879 48.2411C89.7681 48.4385 89.8565 48.5865 89.9132 48.6817C90.0772 48.9678 90.2112 49.2233 90.3418 49.4794C90.5039 49.7966 90.6263 50.1979 90.7551 50.622C90.8593 50.9627 90.9635 51.3023 91.0893 51.6342C91.2099 51.9514 91.3071 52.3103 91.4043 52.681L91.406 52.738C91.4277 52.9553 91.4575 53.1709 91.5143 53.3777C91.6408 53.8353 91.711 54.3511 91.7339 55.0014C91.7772 56.1903 91.8369 57.1091 91.9288 57.9797L91.9622 58.2846C92.0394 59.003 92.1132 59.6815 92.0652 60.3042C92.0471 60.5292 92.0576 60.7524 92.0968 60.9698C92.0201 61.3093 91.999 61.6588 92.0336 62.0089C92.0447 62.1217 92.0371 62.2386 92.0336 62.3549C92.0236 62.6898 92.0108 63.121 92.1208 63.6032C92.0951 63.8147 92.0933 63.9962 92.0927 64.1308L92.0892 64.2635C92.0675 64.5943 92.1038 64.8768 92.1296 65.0836C92.1372 65.1406 92.1466 65.1964 92.1483 65.2528C92.0576 65.983 92.0219 66.8195 92.04 67.8992C92.0418 67.9914 92.0494 68.0831 92.0348 68.1688C91.8275 69.0799 91.7813 69.977 91.7631 70.8088C91.7368 71.9537 91.6431 73.1356 91.5577 74.1519L91.5372 74.4192C91.5096 74.7863 91.4856 75.1041 91.4037 75.3221C91.2333 75.775 91.2351 76.1862 91.2368 76.4312L91.2368 76.4811C91.142 76.8406 91.125 77.3376 91.4265 77.8892L91.4131 77.9303C91.3089 78.234 91.1502 78.6946 91.1748 79.2673C91.173 79.2744 91.1707 79.2802 91.1689 79.2873C91.1245 79.3954 91.0314 79.6351 91.0021 79.9511C90.9875 80.1074 90.9506 80.2595 90.9184 80.4122C90.8446 80.7559 90.7533 81.1841 90.7533 81.6741C90.7533 81.7804 90.7287 81.8826 90.7106 81.986C90.6631 82.268 90.5988 82.6551 90.6263 83.0998C90.6538 83.5404 90.5554 84.0503 90.4354 84.6207C90.2838 85.345 90.1533 86.0716 90.0227 86.7965C89.9396 87.2589 89.8559 87.7218 89.7669 88.1829C89.7007 88.5236 89.6369 88.825 89.5333 89.0329C89.3167 89.4671 89.1674 89.8982 89.0357 90.2783C88.9707 90.4651 88.9058 90.6537 88.832 90.837C88.7477 91.049 88.6751 91.2634 88.6043 91.4796C88.5615 91.61 88.5182 91.7416 88.4696 91.8703C88.3116 92.2956 88.1061 92.7238 87.8877 93.1779C87.6618 93.649 87.4282 94.1343 87.2256 94.6618C87.0816 94.8498 86.8978 95.1147 86.7837 95.4836C86.7356 95.6399 86.5518 95.8878 86.3727 96.1274C86.2878 96.242 86.1965 96.3518 86.1069 96.4623C85.8523 96.7724 85.549 97.1431 85.3008 97.6148C84.7816 97.9761 84.3806 98.3891 84.0199 98.7609L83.8777 98.9078C83.7776 99.0106 83.681 99.1181 83.585 99.2262L83.4544 99.3725C83.4105 99.4054 83.3333 99.4447 83.2601 99.4894C83.0804 99.5992 82.9036 99.712 82.7373 99.8406C82.622 99.9305 82.5119 100.025 82.4019 100.12C82.3322 100.181 82.2672 100.248 82.19 100.297C81.7983 100.463 81.4102 100.725 81.0765 101.051C80.7469 101.163 80.4765 101.305 80.2558 101.419C80.1674 101.466 80.0796 101.513 79.9882 101.553L79.6592 101.7C79.3501 101.84 79.0574 101.973 78.8479 102.002C78.5323 102.045 78.2256 102.157 77.934 102.334C77.101 102.845 76.066 103.076 74.9695 103.321L74.808 103.358C74.637 103.396 74.4661 103.43 74.294 103.465C73.7314 103.577 73.0933 103.705 72.4412 103.965C72.1526 104.08 71.8774 104.183 71.6772 104.195C71.3049 104.215 70.5907 104.316 69.9637 104.755C69.9327 104.768 69.7659 104.812 69.6447 104.842C69.4333 104.897 69.2226 104.954 69.0177 105.028C68.8233 105.099 68.54 105.145 68.2391 105.195C68.0395 105.226 67.8393 105.26 67.642 105.3L67.0484 105.428C66.7955 105.483 66.5438 105.538 66.2903 105.586C66.0567 105.623 65.7265 105.673 65.3753 105.83C64.6927 105.823 64.0839 105.958 63.5752 106.072C63.3211 106.129 63.0682 106.188 62.8089 106.218C62.4646 106.256 62.0636 106.322 61.6609 106.511L61.6263 106.513C61.5169 106.519 61.408 106.526 61.2968 106.539C61.0796 106.563 60.8542 106.563 60.644 106.561C60.3057 106.552 60.0071 106.563 59.6951 106.593C59.4557 106.614 59.2168 106.606 58.9785 106.601C58.8433 106.6 58.6987 106.598 58.5489 106.598ZM50.6312 106.6C50.6265 106.603 50.623 106.605 50.6189 106.608C50.623 106.604 50.6265 106.603 50.6312 106.6ZM41.8946 105.087C41.8981 105.088 41.901 105.09 41.9045 105.091L41.8946 105.087ZM87.1724 94.8145C87.1724 94.8163 87.1718 94.818 87.1706 94.8198C87.1712 94.818 87.1724 94.8163 87.1724 94.8145ZM13.9812 91.9895C13.9812 91.9907 13.9818 91.9919 13.9818 91.9925C13.9812 91.9919 13.9812 91.9907 13.9812 91.9895ZM10.2053 82.3631C10.2076 82.3708 10.21 82.3772 10.2111 82.3855C10.21 82.3772 10.2076 82.3702 10.2053 82.3631ZM94.6761 78.9801C94.6767 78.9812 94.6767 78.9818 94.6767 78.9818C94.6767 78.9818 94.6773 78.9812 94.6761 78.9801ZM94.617 77.475C94.6147 77.4821 94.6117 77.4891 94.6094 77.4968C94.6117 77.4891 94.6147 77.4815 94.617 77.475ZM92.1758 63.3042C92.1758 63.306 92.1753 63.3066 92.1753 63.3083C92.1747 63.3066 92.1758 63.306 92.1758 63.3042ZM92.2092 61.378C92.211 61.3821 92.2116 61.3868 92.2133 61.3904C92.2116 61.3862 92.211 61.3821 92.2092 61.378ZM5.46701 57.1678C5.46525 57.1702 5.46349 57.1731 5.46174 57.1755C5.46349 57.1737 5.46525 57.1702 5.46701 57.1678ZM10.0513 56.8236C10.0484 56.8242 10.0466 56.8254 10.0449 56.826C10.0466 56.8254 10.0484 56.8248 10.0513 56.8236ZM89.5263 47.5779C89.528 47.5932 89.5298 47.609 89.5316 47.6237C89.5298 47.6078 89.528 47.5932 89.5263 47.5779ZM16.1396 46.4729C16.1384 46.4735 16.1378 46.4747 16.1378 46.4753C16.1378 46.4747 16.1384 46.4741 16.1396 46.4729ZM88.1892 45.419C88.191 45.4196 88.1916 45.4208 88.1933 45.4214C88.1916 45.4208 88.191 45.4202 88.1892 45.419ZM37.4279 38.8197C37.4145 38.8215 37.4016 38.8221 37.391 38.8233C37.4033 38.8221 37.4156 38.8203 37.4279 38.8197ZM35.876 35.8608C35.8678 35.869 35.8614 35.8767 35.8538 35.8837C35.8608 35.8755 35.8678 35.8684 35.876 35.8608ZM47.5695 35.7886C47.5625 35.7921 47.5572 35.7956 47.549 35.7991C47.5561 35.795 47.5631 35.7921 47.5695 35.7886ZM72.687 34.703C72.6923 34.7065 72.6976 34.71 72.7023 34.7141C72.697 34.7094 72.6923 34.7059 72.687 34.703ZM38.9061 34.5802C38.9026 34.582 38.8996 34.5837 38.8961 34.5861C38.899 34.5843 38.9026 34.582 38.9061 34.5802ZM76.4336 32.402C76.4342 32.4025 76.4354 32.4025 76.436 32.4037C76.4354 32.4031 76.4342 32.4031 76.4336 32.402Z" fill="#E3C9BD"/>
<path d="M101.532 129.403L102.302 129.403C102.609 129.403 102.909 129.323 103.174 129.171C103.195 129.171 103.217 129.17 103.238 129.169L103.367 129.163C104.187 129.12 105.036 128.973 105.961 128.712C106.639 128.659 107.174 128.428 107.578 128.253C107.706 128.197 107.835 128.138 107.968 128.095C108.888 127.799 109.817 127.393 110.89 126.817C111.092 126.708 111.283 126.581 111.473 126.448C111.559 126.39 111.639 126.323 111.733 126.28C112.104 126.216 112.494 125.974 112.813 125.584C112.988 125.369 113.185 125.174 113.38 124.979C113.692 124.664 114.046 124.307 114.366 123.874L114.557 123.623C114.806 123.299 115.088 122.933 115.321 122.479C115.595 121.948 115.914 121.218 115.947 120.292C115.967 119.74 115.956 119.131 115.745 118.435C115.527 117.717 115.219 117.055 114.805 116.413C114.294 115.62 113.644 115.098 113.071 114.637L112.834 114.446C112.41 113.883 111.905 113.508 111.461 113.2C111.366 113.135 111.283 113.061 111.197 112.99C111.112 112.92 111.027 112.849 110.941 112.781C110.332 112.3 109.672 111.836 108.984 111.406L108.778 111.278C108.521 111.12 108.277 110.971 108.134 110.83C107.578 110.287 106.883 109.867 106.07 109.582C105.924 109.531 105.872 109.498 105.87 109.497C105.518 109.167 105.122 108.955 104.803 108.785C104.69 108.724 104.574 108.668 104.469 108.593L104.302 108.475C104.041 108.291 103.794 108.119 103.661 107.962C103.366 107.619 103.044 107.446 102.873 107.353C102.47 107.13 102.131 106.817 101.819 106.508C101.724 106.416 101.635 106.322 101.545 106.228C101.408 106.084 101.256 105.925 101.087 105.765C101.891 105.138 102.352 104.4 102.578 104.036C106.767 97.3161 111.105 90.0847 114.075 82.0926C117.45 73.0166 118.481 64.3912 117.138 56.4567C116.664 53.6487 115.937 51.2396 114.917 49.0914C110.707 40.2293 102.021 34.7443 96.2276 31.9176C96.439 31.6879 96.5607 31.4488 96.6322 31.2761C96.9594 30.9829 97.262 30.5465 97.3955 29.9032C97.4061 29.8897 97.416 29.8756 97.4265 29.8621C97.6285 29.5925 97.8375 29.3328 98.0453 29.0738L98.348 28.6943C98.458 28.5621 98.5991 28.3941 98.7244 28.1615C99.0639 27.5235 99.4439 26.9743 99.8554 26.5237C100.011 26.3539 100.153 26.1701 100.294 25.985C100.389 25.8616 100.533 25.6737 100.592 25.629C100.829 25.5168 101.01 25.3688 101.176 25.1649C101.38 24.9147 101.606 24.6838 101.829 24.4506C102.177 24.0893 102.57 23.6799 102.922 23.1988C103.149 23.0566 103.32 22.8927 103.449 22.7429C103.986 22.4098 104.286 21.9528 104.467 21.6773C104.487 21.645 104.507 21.6127 104.528 21.5821C105.075 21.1539 105.383 20.6587 105.618 20.2827C105.676 20.1905 105.732 20.0983 105.793 20.0102C105.873 19.8938 106.019 19.774 106.277 19.6072C106.566 19.421 107.131 19.0585 107.467 18.3471C107.827 17.9659 108.065 17.6099 108.261 17.3167C108.401 17.1064 108.535 16.9073 108.652 16.7839C108.933 16.4902 109.282 16.1248 109.52 15.6079C109.888 15.1749 110.066 14.7144 110.185 14.4077C110.217 14.3267 110.245 14.2421 110.286 14.1663C110.394 13.9707 110.482 13.7633 110.565 13.5548C110.591 13.4884 110.615 13.4203 110.647 13.3568C110.923 13.0531 111.098 12.6478 111.141 12.209C111.156 12.1843 111.183 12.1385 111.236 12.0621C111.333 11.924 111.578 11.5739 111.651 11.0781C111.675 10.9301 111.706 10.7674 111.737 10.6052C111.869 9.90678 112.034 9.03736 111.869 8.06574C111.843 7.91594 111.854 7.67098 111.865 7.41133L111.878 7.02656C111.885 6.60771 111.898 5.83523 111.509 5.0416C111.461 4.94467 111.433 4.84422 111.4 4.74553C111.367 4.64684 111.334 4.54815 111.298 4.45005C111.268 4.35253 111.159 4.00888 110.851 3.68402C110.755 3.58533 110.68 3.49076 110.604 3.39853C110.346 3.08307 109.992 2.65189 109.44 2.30237C108.891 1.95519 108.347 1.74958 107.868 1.56924C107.678 1.4964 107.487 1.42591 107.301 1.34308C106.458 0.969465 105.53 0.866663 104.617 1.05171C104.344 1.00882 103.922 0.94303 103.428 1.02233C102.788 0.917183 102.225 1.00941 101.787 1.08167C101.61 1.11104 101.439 1.1222 101.32 1.14041C100.714 1.14041 99.9842 1.16978 99.2501 1.45234C98.4797 1.47995 97.8299 1.72491 97.3341 1.91113L97.306 1.92229C97.2726 1.92582 97.238 1.92758 97.2047 1.92993C96.9161 1.9546 96.4319 1.99279 95.9244 2.26066C95.6691 2.39518 95.3495 2.49798 94.979 2.61606C94.551 2.75293 94.0651 2.90919 93.571 3.15474C93.3486 3.26577 93.0699 3.3674 92.7743 3.47431C92.5507 3.55655 92.3282 3.63703 92.111 3.72691C91.3799 4.02709 90.6387 4.33139 89.9398 4.85891C89.8561 4.92176 89.7571 4.96406 89.664 5.0134C89.5212 5.08742 89.3795 5.16261 89.2437 5.24485C89.0974 5.33297 88.9481 5.4158 88.7982 5.49922C88.5067 5.66194 88.2163 5.82583 87.9365 6.01146L87.8147 6.09136C87.3763 6.38155 86.963 6.65471 86.5731 6.80451C86.2136 6.94138 85.9397 7.12584 85.7383 7.26036C85.6868 7.29561 85.6353 7.3332 85.5802 7.36375C85.4444 7.43836 85.2998 7.50944 85.1558 7.58052C84.8473 7.73208 84.5405 7.88657 84.2502 8.07103C84.1565 8.13153 84.0593 8.18147 83.9633 8.23375C83.7286 8.36064 83.4417 8.51572 83.1496 8.74071C82.7767 8.82883 82.4243 9.01152 82.0971 9.28762C81.9923 9.37573 81.8764 9.4427 81.7622 9.51554C81.5093 9.67591 81.1949 9.87506 80.8847 10.1641C80.8373 10.1976 80.7635 10.2346 80.6921 10.2763C80.5018 10.3855 80.2653 10.5212 80.0224 10.7174C79.8842 10.8285 79.7332 10.9307 79.5845 11.0341C79.2432 11.2696 78.8363 11.5516 78.4564 11.9428C77.9729 12.1725 77.6316 12.4915 77.3839 12.7224C77.3137 12.7876 77.2475 12.8604 77.1673 12.9139C76.8155 13.1213 76.5731 13.3791 76.4127 13.5489C76.3817 13.5818 76.3519 13.6165 76.3191 13.6464C76.0316 13.9078 75.6728 14.1534 75.2934 14.413L75.1764 14.4923C74.6729 14.8383 74.2063 15.2166 73.7913 15.6185L73.7123 15.696C73.6309 15.7753 73.5197 15.884 73.4758 15.9134C72.9957 16.1219 72.6714 16.455 72.4577 16.6747C72.4214 16.7117 72.3875 16.7505 72.3477 16.7845C72.0743 16.9819 71.7166 17.241 71.4087 17.6369C70.763 18.0264 70.3345 18.5345 70.0049 18.9252C69.8995 19.0503 69.7953 19.1754 69.6823 19.2917C69.2327 19.7558 68.8551 20.1282 68.4682 20.4443C68.3078 20.5753 68.1485 20.7127 67.9905 20.8484C67.7914 21.0194 67.5924 21.1909 67.3858 21.3495C66.7728 21.8189 66.3033 22.2266 65.9058 22.6354C65.7092 22.8381 65.5007 23.0208 65.2923 23.2052C65.091 23.3838 64.8907 23.5624 64.6976 23.7492C63.9512 24.4718 63.2381 25.0469 62.5187 25.5074C62.1873 25.7195 61.8425 25.9163 61.4977 26.1137C61.1149 26.3328 60.7314 26.5537 60.3597 26.7898L60.1296 26.9296C59.7825 27.1364 59.3253 27.409 58.9172 27.8525C58.4811 28.1209 58.1328 28.4282 57.8219 28.7037C57.6604 28.8476 57.4994 28.9933 57.3238 29.1202C57.0006 29.3522 56.7319 29.6489 56.5229 30.0008C56.0265 30.839 56.3005 31.9229 57.1359 32.4216C57.9332 32.8974 58.9565 32.6683 59.4792 31.9135C59.7122 31.7384 59.9329 31.5463 60.1519 31.3519C60.3989 31.1327 60.612 30.943 60.8017 30.8373C60.9925 30.7292 61.2647 30.5559 61.5018 30.2498C61.5545 30.1887 61.7787 30.0548 61.9274 29.9661C62.0334 29.9032 62.1393 29.8392 62.2429 29.7734C62.5696 29.5655 62.9062 29.3734 63.2434 29.1813C63.6368 28.9551 64.0302 28.7289 64.4107 28.4852C65.331 27.8965 66.2243 27.1787 67.1405 26.2917C67.2968 26.1407 67.4601 25.9968 67.6223 25.8517C67.8956 25.6102 68.1679 25.3659 68.4249 25.1021C68.6988 24.8201 69.0471 24.5199 69.5178 24.1587C69.7771 23.9607 70.0289 23.7457 70.2794 23.5313C70.4158 23.4132 70.5528 23.2957 70.6916 23.1817C71.2401 22.7335 71.7429 22.2307 72.2042 21.7543C72.3728 21.581 72.5321 21.3948 72.6896 21.2085C72.8985 20.9612 73.1146 20.7051 73.2515 20.6458C73.6297 20.4889 73.9745 20.1835 74.1935 19.8051C74.2532 19.7534 74.3205 19.71 74.3831 19.6647C74.6712 19.4544 74.8474 19.2741 74.9762 19.1419C74.9966 19.1202 75.0177 19.0979 75.0382 19.0773C75.5581 18.8235 75.9093 18.4787 76.171 18.2226L76.236 18.1585C76.5076 17.8954 76.8196 17.6434 77.1615 17.4084L77.2756 17.3308C77.7364 17.0154 78.2135 16.6882 78.6806 16.2641C78.779 16.1748 78.8738 16.0761 78.9675 15.9768C78.9891 15.9545 79.0096 15.9322 79.0307 15.9098C79.3503 15.7107 79.5968 15.4792 79.7812 15.3077C79.8403 15.2525 79.8965 15.1932 79.9591 15.1438C80.2401 15.0569 80.6054 14.8712 80.921 14.4706C81.0462 14.3126 81.3068 14.1322 81.5819 13.9419C81.8003 13.7909 82.0169 13.6394 82.2229 13.4737C82.292 13.4191 82.3693 13.3815 82.4436 13.3392C82.6713 13.2082 82.9834 13.0278 83.2807 12.7506C83.3487 12.6871 83.4897 12.5978 83.639 12.5033C83.7977 12.4022 83.9868 12.283 84.1823 12.1344C84.7501 11.9804 85.1371 11.6685 85.2805 11.5522C85.3484 11.4982 85.4936 11.4194 85.6341 11.3437C85.805 11.2514 85.9742 11.1574 86.1381 11.0529C86.3161 10.9395 86.5104 10.8479 86.703 10.7539C86.9003 10.6564 87.0982 10.5582 87.2908 10.4513C87.4336 10.372 87.5659 10.2851 87.6971 10.1958C87.7509 10.1606 87.803 10.1212 87.8592 10.0912C88.5793 9.81514 89.201 9.40393 89.7495 9.04148L89.8683 8.96335C90.0773 8.8253 90.2939 8.70605 90.5105 8.58563C90.6926 8.484 90.8741 8.3812 91.0538 8.27428C91.1293 8.22846 91.2066 8.18852 91.2844 8.14916C91.5028 8.03519 91.775 7.89362 92.0543 7.68332C92.392 7.42778 92.8662 7.23334 93.3679 7.02715C93.6173 6.92493 93.7958 6.85973 93.9738 6.79511C94.3315 6.6647 94.7378 6.51725 95.1394 6.31634C95.3911 6.19122 95.7107 6.08842 96.0485 5.98033C96.4712 5.8458 96.9448 5.69366 97.4277 5.45516C97.4476 5.45339 97.4669 5.45281 97.488 5.45104C97.7228 5.43225 98.0787 5.40346 98.4738 5.25543L98.571 5.21842C98.8977 5.09623 99.2302 4.96229 99.4158 4.98227C99.7553 5.01516 100.117 4.93997 100.45 4.77784C100.65 4.67856 100.994 4.67327 101.283 4.67269C101.719 4.67621 102.066 4.6157 102.363 4.56636C102.527 4.53875 102.768 4.49234 102.852 4.50879C103.202 4.6251 103.577 4.63215 103.964 4.52348C103.995 4.52759 104.027 4.53405 104.059 4.53875C104.48 4.60513 104.901 4.59808 105.309 4.51467C105.504 4.47589 105.704 4.49645 105.882 4.57517C106.128 4.68385 106.378 4.7796 106.63 4.87418C106.999 5.01399 107.318 5.13383 107.565 5.29009C107.635 5.33532 107.763 5.49099 107.886 5.64137C107.943 5.71069 108 5.77825 108.056 5.84698L108.064 5.86695C108.147 6.12073 108.236 6.37156 108.354 6.6083C108.357 6.6318 108.361 6.7581 108.358 6.96311L108.347 7.2633C108.331 7.65394 108.311 8.14152 108.399 8.65847C108.457 9.00212 108.375 9.43976 108.278 9.94555C108.261 10.0378 108.244 10.1294 108.227 10.2216C108.021 10.54 107.815 10.9313 107.707 11.4106C107.507 11.719 107.388 12.0145 107.301 12.2342C107.27 12.31 107.244 12.3875 107.204 12.4586C107.087 12.6719 106.994 12.8968 106.906 13.1242C106.881 13.1876 106.86 13.2528 106.832 13.3139C106.59 13.5307 106.412 13.8097 106.318 14.1217C106.27 14.1798 106.215 14.2315 106.16 14.2873C105.78 14.6891 105.545 15.0398 105.338 15.3494C105.187 15.5756 105.044 15.7894 104.917 15.9145C104.787 16.0402 104.546 16.2758 104.366 16.6394C103.922 16.9267 103.361 17.3361 102.911 17.9806C102.815 18.1186 102.724 18.2631 102.633 18.4088C102.549 18.5433 102.423 18.746 102.367 18.7959C102.205 18.8975 102.048 19.0444 101.924 19.196C101.745 19.4004 101.62 19.5901 101.527 19.7335C101.519 19.744 101.512 19.7552 101.505 19.7664C101.259 19.8938 101.044 20.076 100.865 20.3127C100.465 20.5788 100.23 20.906 100.09 21.1004C99.8806 21.3895 99.5967 21.6855 99.2963 21.9981C99.085 22.2172 98.8754 22.4369 98.6741 22.6654C98.1191 23.0261 97.769 23.4849 97.5003 23.8367C97.423 23.9384 97.3475 24.0412 97.2626 24.134C96.672 24.7802 96.1375 25.5415 95.6727 26.3986L95.3021 26.8591C95.0703 27.1487 94.8379 27.4395 94.6154 27.7373C94.4287 27.9858 94.1822 28.35 94.0359 28.8206C93.6922 29.1449 93.5453 29.5085 93.478 29.6735C93.4704 29.6923 93.4628 29.7106 93.4546 29.7282C93.1074 30.1464 92.8967 30.5847 92.7351 30.9207L92.6678 31.0593C92.5554 31.2896 92.4348 31.5293 92.313 31.7043C92.0127 32.1367 91.9214 32.6818 92.063 33.1882C92.2041 33.6963 92.5636 34.1134 93.0442 34.3272C98.2338 36.6365 107.565 41.823 111.739 50.6099C112.618 52.4598 113.249 54.5657 113.668 57.0465C114.905 64.3601 113.932 72.371 110.777 80.8572C107.922 88.5409 103.687 95.5955 99.5937 102.164C99.3982 102.477 99.1307 102.907 98.6799 103.133C98.5511 103.196 98.41 103.242 98.2485 103.27C97.7772 103.356 97.3604 103.63 97.0952 104.031C96.8452 104.408 96.7498 104.867 96.8265 105.311C96.8411 105.404 96.8663 105.516 96.8909 105.597C96.9957 105.968 97.1461 106.333 97.2796 106.655L97.4061 106.964C97.5934 107.438 97.9253 107.825 98.365 108.087C98.5511 108.198 98.773 108.43 99.0072 108.675C99.1207 108.793 99.2337 108.911 99.3496 109.026C99.8144 109.484 100.391 110.012 101.126 110.421C101.128 110.422 101.132 110.425 101.139 110.428C101.521 110.832 101.938 111.125 102.28 111.366L102.429 111.472C102.658 111.635 102.902 111.771 103.15 111.903C103.289 111.978 103.464 112.07 103.517 112.12C103.877 112.456 104.335 112.717 104.914 112.918C105.239 113.032 105.489 113.177 105.677 113.36C106.103 113.777 106.568 114.062 106.941 114.291L107.121 114.402C107.708 114.77 108.247 115.148 108.767 115.559L108.947 115.707C109.114 115.845 109.282 115.983 109.459 116.105C109.69 116.265 109.928 116.438 110.038 116.591C110.259 116.9 110.503 117.098 110.664 117.228L110.87 117.394C111.287 117.729 111.648 118.019 111.849 118.331C112.083 118.695 112.257 119.066 112.378 119.466C112.428 119.631 112.441 119.815 112.428 120.166C112.422 120.346 112.354 120.545 112.193 120.858C112.106 121.029 111.942 121.241 111.769 121.466L111.538 121.77C111.371 121.996 111.136 122.234 110.886 122.486C110.708 122.664 110.532 122.843 110.364 123.028C109.988 123.188 109.694 123.39 109.476 123.541C109.394 123.597 109.316 123.656 109.228 123.703C108.348 124.175 107.604 124.503 106.889 124.733C106.647 124.811 106.414 124.91 106.181 125.011C106.019 125.081 105.776 125.186 105.696 125.192C105.437 125.186 105.184 125.254 105.033 125.306C104.379 125.493 103.759 125.606 103.185 125.637L103.094 125.64C102.819 125.651 102.387 125.669 101.921 125.846C101.759 125.783 101.615 125.742 101.502 125.711L101.404 125.682C101.191 125.555 100.71 125.286 100.09 125.308C99.846 125.32 99.6347 125.284 99.4105 125.26C99.0376 125.221 98.5874 125.174 98.1015 125.202C97.9563 125.152 97.8352 125.125 97.7567 125.109C97.3364 124.974 96.9243 124.962 96.6222 124.955C96.5432 124.952 96.4636 124.955 96.3851 124.942C95.9537 124.84 95.5041 124.758 95.0539 124.677C94.7015 124.614 94.3485 124.55 93.9978 124.471L93.7145 124.408C93.2848 124.312 92.8569 124.217 92.4307 124.097C92.1403 124.016 91.8447 123.955 91.5491 123.895C91.3401 123.853 91.1305 123.811 90.9244 123.756C90.7552 123.709 90.5931 123.653 90.4292 123.598C90.0744 123.478 89.6728 123.341 89.2098 123.261C89.1155 123.244 89.0523 123.217 89.0388 123.21C88.5734 122.901 88.0548 122.699 87.4635 122.599C87.4612 122.599 87.4448 122.597 87.426 122.593C86.9343 122.265 86.4449 122.128 86.0726 122.024L85.9584 121.991C85.3964 121.831 84.8971 121.681 84.4604 121.473L82.5824 120.573C82.2938 120.435 81.9934 120.315 81.6943 120.197C81.4765 120.111 81.2611 120.027 81.0539 119.929C80.7471 119.782 80.431 119.651 80.1149 119.52C79.6881 119.343 79.2848 119.177 78.9464 118.977C78.433 118.673 77.9085 118.482 77.4442 118.314L77.1065 118.188C76.394 117.917 75.818 117.671 75.3163 117.35C75.1635 117.253 75.0072 117.177 74.8468 117.11C74.6021 116.987 74.3767 116.883 74.1502 116.779C73.851 116.641 73.5688 116.511 73.3417 116.37C73.0069 116.163 72.655 115.984 72.302 115.808C71.9877 115.648 71.6903 115.5 71.445 115.339C71.3882 115.302 71.3133 115.259 71.2418 115.225C71.1148 115.148 70.9901 115.076 70.8654 115.004C70.4439 114.761 70.081 114.552 69.8076 114.301C69.4886 114.01 69.1338 113.733 68.7814 113.504L66.7084 112.153C66.6294 112.103 66.5603 112.039 66.4883 111.978C66.294 111.815 66.0973 111.656 65.8807 111.52C65.2941 111.149 64.7842 110.757 64.3381 110.332C64.944 110.018 65.3368 109.363 65.2853 108.637C65.2157 107.664 64.3873 106.948 63.4038 107.001C62.692 107.052 61.863 107.131 61.0277 107.423C59.9792 107.785 59.3071 108.603 59.2345 109.605C59.1631 110.593 59.6531 111.471 60.5792 112.014C60.7531 112.115 61.0265 112.275 61.3941 112.365C62.13 113.163 62.9888 113.868 64.0074 114.51C64.0887 114.563 64.1561 114.626 64.2275 114.686C64.4084 114.838 64.5922 114.987 64.793 115.118L66.8624 116.465C67.0585 116.594 67.2564 116.747 67.4361 116.913C67.9928 117.421 68.5853 117.764 69.1074 118.066L69.4956 118.294C69.5295 118.314 69.5723 118.337 69.6162 118.359C69.9686 118.587 70.3696 118.788 70.7249 118.967C70.9849 119.098 71.2477 119.226 71.4947 119.38C71.9063 119.634 72.3184 119.824 72.682 119.991C72.8623 120.074 73.042 120.155 73.2176 120.246C73.3031 120.29 73.3891 120.328 73.4769 120.365C73.4775 120.365 73.4787 120.366 73.4787 120.366C73.4793 120.366 73.4787 120.365 73.4769 120.364C74.2555 120.855 75.0804 121.197 75.8554 121.492L76.243 121.635C76.5936 121.762 76.925 121.883 77.1574 122.02C77.7106 122.348 78.2744 122.581 78.7719 122.787C79.0307 122.894 79.29 123 79.5429 123.121C79.8239 123.254 80.1137 123.37 80.4047 123.485C80.6271 123.572 80.8519 123.659 81.0673 123.763L82.9488 124.665C83.6302 124.989 84.3029 125.191 84.9896 125.388L85.1219 125.425C85.2524 125.462 85.4321 125.511 85.4866 125.541C85.9754 125.943 86.5222 126.027 86.816 126.072C87.0122 126.105 87.0654 126.134 87.1087 126.163C87.6432 126.515 88.214 126.67 88.5986 126.739C88.8006 126.774 89.0336 126.853 89.304 126.945C89.5329 127.022 89.7624 127.098 89.996 127.162C90.277 127.24 90.5662 127.299 90.853 127.357C91.0661 127.4 91.2786 127.442 91.4864 127.499C91.9706 127.634 92.4588 127.745 92.9482 127.854L93.2251 127.916C93.6255 128.006 94.0288 128.08 94.4316 128.152C94.8203 128.222 95.2084 128.291 95.5925 128.382C95.9584 128.468 96.2868 128.477 96.5256 128.483C96.6058 128.486 96.6872 128.483 96.7662 128.496C96.8054 128.509 96.8616 128.525 96.9237 128.54C97.3241 128.729 97.7737 128.793 98.2315 128.732C98.4305 128.707 98.7133 128.736 99.0417 128.771C99.2817 128.796 99.5451 128.825 99.8291 128.834C99.8876 128.865 99.9391 128.89 99.9906 128.913C100.169 128.994 100.356 129.054 100.544 129.107L100.568 129.114C100.854 129.302 101.189 129.403 101.532 129.403ZM100.395 128.985C100.395 128.986 100.396 128.987 100.396 128.987C100.396 128.987 100.396 128.986 100.395 128.985ZM105.745 128.724C105.717 128.725 105.687 128.725 105.655 128.725C105.686 128.725 105.715 128.724 105.745 128.724ZM97.7866 125.231C97.7831 125.231 97.7784 125.231 97.7743 125.232C97.779 125.231 97.7831 125.231 97.7866 125.231ZM110.986 122.835C110.97 122.839 110.955 122.843 110.938 122.846C110.954 122.843 110.97 122.839 110.986 122.835ZM62.0562 108.905C62.058 108.905 62.0597 108.905 62.0615 108.905C62.0591 108.905 62.058 108.905 62.0562 108.905ZM102.682 23.3298C102.678 23.3315 102.674 23.3333 102.669 23.3351C102.674 23.3333 102.678 23.3315 102.682 23.3298ZM71.157 18.014C71.1429 18.0399 71.1289 18.0657 71.1142 18.0928C71.1283 18.0657 71.1417 18.0399 71.157 18.014ZM79.8661 15.172C79.8655 15.172 79.8643 15.1726 79.8637 15.1726C79.8643 15.1726 79.8649 15.172 79.8661 15.172ZM106.933 13.2305C106.932 13.2305 106.932 13.2311 106.931 13.2311C106.932 13.2317 106.932 13.2305 106.933 13.2305ZM107.637 11.8665C107.637 11.8771 107.637 11.8864 107.635 11.8964C107.637 11.887 107.637 11.8771 107.637 11.8665ZM108.076 10.9448C108.063 10.9577 108.051 10.9712 108.039 10.9841C108.051 10.9706 108.063 10.9577 108.076 10.9448ZM108.178 10.5089C108.176 10.5183 108.175 10.5271 108.174 10.5365C108.175 10.5271 108.176 10.5177 108.178 10.5089ZM99.6628 1.45939C99.6757 1.45998 99.6886 1.46115 99.7014 1.46174C99.6886 1.46115 99.6757 1.46057 99.6628 1.45939Z" fill="#E3C9BD"/>
<path d="M83.3845 37.6409C83.5133 37.6409 83.645 37.6274 83.7761 37.5969C87.6398 36.7163 91.5802 35.9832 95.4872 35.4204C96.4502 35.2818 97.1176 34.3865 96.9788 33.4213C96.8413 32.4556 95.9503 31.7865 94.9873 31.9245C90.986 32.5014 86.952 33.251 82.9958 34.1527C82.048 34.3683 81.4538 35.3152 81.6698 36.2663C81.8554 37.0858 82.5813 37.6409 83.3845 37.6409Z" fill="#E3C9BD"/>
<path d="M98.6999 106.788C99.5827 106.788 100.344 106.122 100.446 105.221C100.556 104.252 99.8608 103.376 98.896 103.267C94.4762 102.764 90.1131 101.738 85.9275 100.218C85.0148 99.8872 84.005 100.361 83.6731 101.278C83.3423 102.195 83.8147 103.207 84.7291 103.54C89.1736 105.154 93.8065 106.244 98.4985 106.777C98.567 106.784 98.6343 106.788 98.6999 106.788Z" fill="#E3C9BD"/>
<path d="M104.004 98.0255C104.847 98.0255 105.593 97.4163 105.738 96.5546C105.9 95.5923 105.255 94.6812 104.298 94.5179L91.2143 92.2921C90.2508 92.1276 89.3469 92.7767 89.1853 93.7384C89.0232 94.7 89.6683 95.6111 90.6266 95.7744L103.708 98.0002C103.808 98.0173 103.907 98.0255 104.004 98.0255Z" fill="#E3C9BD"/>
<path d="M110.542 86.3773C111.466 86.3773 112.242 85.6548 112.297 84.7172C112.356 83.7432 111.616 82.9067 110.646 82.8492C104.926 82.5061 99.1423 81.9803 93.434 81.283C93.2461 81.2049 93.0406 81.1591 92.8246 81.1515L92.1356 81.128C91.182 81.0962 90.3964 81.8129 90.3214 82.7528C90.2477 83.6951 90.9226 84.5275 91.8564 84.6461C98.0084 85.4239 104.26 86.0049 110.436 86.3738C110.472 86.3767 110.507 86.3773 110.542 86.3773Z" fill="#E3C9BD"/>
<path d="M94.3293 74.1509C94.3685 74.1509 94.4083 74.1497 94.4481 74.1462C100.881 73.7179 107.406 73.7121 113.836 74.135C114.827 74.1885 115.645 73.4618 115.707 72.4878C115.77 71.5139 115.035 70.6732 114.066 70.6098C107.481 70.1774 100.802 70.1815 94.2146 70.6221C93.2445 70.6867 92.5104 71.5274 92.576 72.5013C92.6375 73.4354 93.4108 74.1509 94.3293 74.1509Z" fill="#E3C9BD"/>
<path d="M94.6024 59.8508C94.7399 59.8508 94.8799 59.8355 95.0192 59.8008C101.346 58.2606 107.847 57.3301 114.341 57.0358C115.312 56.9917 116.064 56.1669 116.021 55.1924C115.976 54.2166 115.125 53.4765 114.183 53.507C107.462 53.8113 100.736 54.7735 94.1891 56.3684C93.2448 56.5981 92.6647 57.5533 92.8941 58.5008C93.0891 59.3092 93.8091 59.8508 94.6024 59.8508Z" fill="#E3C9BD"/>
<path d="M90.8946 47.4646C91.1352 47.4646 91.3793 47.4147 91.6129 47.3095C96.4472 45.1366 101.483 43.3049 106.579 41.8669C107.515 41.602 108.061 40.628 107.798 39.6887C107.535 38.7494 106.567 38.2013 105.628 38.4656C100.364 39.9507 95.1646 41.8416 90.1745 44.0857C89.2865 44.4851 88.8907 45.529 89.2877 46.419C89.5804 47.0757 90.2225 47.4646 90.8946 47.4646Z" fill="#E3C9BD"/>
</g>
<defs>
<clipPath id="clip0_399_498">
<rect width="117.082" height="128.44" fill="white" transform="matrix(-1 8.74228e-08 8.74228e-08 1 117.708 0.963379)"/>
</clipPath>
</defs>
</svg>
