<svg width="1920" height="144" viewBox="0 0 1920 144" fill="none" xmlns="http://www.w3.org/2000/svg">
<path d="M1920 0V67C1887.5 101.5 1814.5 143 1701.5 142C1541.51 140.584 1525.61 84.5 1382.5 84.5C1245.6 84.5 1261.5 146 1071 138C897.153 130.699 891.189 40.5526 683.774 40.5526C480.5 40.5526 469 139 328.5 144C198 144 158 92.5 61 92.5C-42.7168 92.5 -29.5 122 -95.0775 110.283C-202.936 110.283 -201.896 75.3089 -308.639 75.3089C-382.55 75.3089 -420.063 92.1841 -457 105.103V0H1920Z" fill="url(#paint0_linear_88_224)"/>
<defs>
<linearGradient id="paint0_linear_88_224" x1="731.5" y1="132" x2="731.5" y2="-0.119006" gradientUnits="userSpaceOnUse">
<stop stop-color="#00B2D6"/>
<stop offset="1" stop-color="#BEE4F2"/>
</linearGradient>
</defs>
</svg>
