<svg width="1920" height="132" viewBox="0 0 1920 132" fill="none" xmlns="http://www.w3.org/2000/svg">
<path d="M-323 132L-323 26.8892C-289.343 13.9025 -255.686 4.73678 -188.373 4.73678C-101.219 4.73678 -62.6817 41.1971 66.9979 41.1971C191.057 41.1971 220.136 0 389.362 0C592.38 0.0150146 609.293 91.4474 797.249 91.4474C981.452 91.4474 963.598 26.1385 1113.96 26.1385C1232.38 26.1385 1231.44 51.4588 1308.5 51.4588C1402.48 51.4588 1412.83 21.7171 1503.03 21.7171C1600.77 21.7171 1670.27 77.5 1767 77.5C1874 77.5 1887.53 34.6362 1921 21.7171V132H-323Z" fill="url(#paint0_linear_88_220)"/>
<defs>
<linearGradient id="paint0_linear_88_220" x1="754" y1="0" x2="754" y2="132.119" gradientUnits="userSpaceOnUse">
<stop stop-color="#00B2D6"/>
<stop offset="1" stop-color="#BEE4F2"/>
</linearGradient>
</defs>
</svg>
