<?xml version="1.0" encoding="utf-8"?>
<!-- Generator: Adobe Illustrator 16.0.0, SVG Export Plug-In . SVG Version: 6.00 Build 0)  -->
<!DOCTYPE svg PUBLIC "-//W3C//DTD SVG 1.1//EN" "http://www.w3.org/Graphics/SVG/1.1/DTD/svg11.dtd">
<svg version="1.1" id="圖層_1" xmlns="http://www.w3.org/2000/svg" xmlns:xlink="http://www.w3.org/1999/xlink" x="0px" y="0px"
	 width="1920px" height="132.984px" viewBox="0 -17.492 1920 132.984" enable-background="new 0 -17.492 1920 132.984"
	 xml:space="preserve">
<path fill="#BEE4F2" d="M0.015,115.492V8.349c30-12.48,60-21.289,120-21.289C197.7-12.94,232.05,22.1,347.64,22.1
	c110.58,0,136.5-39.592,287.34-39.592c180.96,0.014,196.035,87.885,363.571,87.885c164.184,0,148.275-62.765,282.295-62.765
	c105.559,0,104.719,24.334,173.4,24.334c83.779,0,93-28.583,173.408-28.583c87.121,0,86.271,33.611,172.5,33.611
	c59.691,0,90-16.218,119.83-28.634v107.136H0.015z"/>
</svg>
