<?xml version="1.0" encoding="utf-8"?>
<!-- Generator: Adobe Illustrator 16.0.0, SVG Export Plug-In . SVG Version: 6.00 Build 0)  -->
<!DOCTYPE svg PUBLIC "-//W3C//DTD SVG 1.1//EN" "http://www.w3.org/Graphics/SVG/1.1/DTD/svg11.dtd">
<svg version="1.1" id="圖層_1" xmlns="http://www.w3.org/2000/svg" xmlns:xlink="http://www.w3.org/1999/xlink" x="0px" y="0px"
	 width="1920px" height="162.985px" viewBox="0 3.5 1920 162.985" enable-background="new 0 3.5 1920 162.985" xml:space="preserve"
	>
<path fill="#BEE4F2" d="M1919.984,3.499v137.144c-30,12.479-60,21.289-120,21.289c-77.683,0-112.039-35.039-227.619-35.039
	c-110.59,0-136.5,39.592-287.34,39.592C1104.064,166.468,1088.984,78.6,921.449,78.6c-164.189,0-148.274,62.765-282.3,62.765
	c-105.558,0-104.718-24.335-173.4-24.335c-83.774,0-93,28.583-173.398,28.583c-87.12,0-86.279-33.61-172.5-33.61
	c-59.7,0-90,16.22-119.835,28.636V3.499H1919.984z"/>
</svg>
