<?xml version="1.0" encoding="utf-8"?>
<!-- Generator: Adobe Illustrator 16.0.0, SVG Export Plug-In . SVG Version: 6.00 Build 0)  -->
<!DOCTYPE svg PUBLIC "-//W3C//DTD SVG 1.1//EN" "http://www.w3.org/Graphics/SVG/1.1/DTD/svg11.dtd">
<svg version="1.1" id="圖層_1" xmlns="http://www.w3.org/2000/svg" xmlns:xlink="http://www.w3.org/1999/xlink" x="0px" y="0px"
	 width="512px" height="215.271px" viewBox="0 148.364 512 215.271" enable-background="new 0 148.364 512 215.271"
	 xml:space="preserve">
<g>
	<g>
		<g>
			<path fill="#00B2D6" d="M458.27,174.975c-17.148-12.473-36.59-26.611-74.265-26.611s-57.114,14.138-74.263,26.611
				c-15.314,11.138-27.41,19.934-53.732,19.934c-26.327,0-38.422-8.796-53.737-19.934c-17.152-12.474-36.593-26.611-74.268-26.611
				c-37.677,0-57.117,14.138-74.27,26.611C38.42,186.112,26.325,194.909,0,194.909v64c26.325,0,38.42-8.797,53.735-19.934
				c17.152-12.474,36.592-26.611,74.27-26.611c37.675,0,57.115,14.138,74.268,26.611c15.315,11.137,27.41,19.934,53.737,19.934
				c26.322,0,38.42-8.797,53.732-19.934c17.149-12.474,36.588-26.611,74.263-26.611s57.115,14.138,74.265,26.611
				c15.313,11.137,27.408,19.934,53.73,19.934v-64C485.68,194.909,473.582,186.112,458.27,174.975z"/>
		</g>
	</g>
	<g>
		<g>
			<path fill="#00B2D6" d="M437.737,267.206c-15.313-11.137-27.407-19.934-53.732-19.934c-26.322,0-38.42,8.797-53.731,19.934
				c-17.149,12.474-36.588,26.61-74.264,26.61c-37.678,0-57.117-14.139-74.27-26.61c-15.315-11.137-27.41-19.934-53.735-19.934
				c-26.327,0-38.422,8.797-53.737,19.934C57.115,279.682,37.675,293.818,0,293.818v69.817c26.325,0,38.42-8.798,53.735-19.935
				c17.152-12.473,36.592-26.61,74.27-26.61c37.675,0,57.115,14.138,74.268,26.61c15.315,11.137,27.41,19.935,53.737,19.935
				c26.322,0,38.42-8.798,53.732-19.935c17.149-12.473,36.588-26.61,74.263-26.61s57.115,14.138,74.265,26.61
				c15.313,11.137,27.408,19.935,53.73,19.935v-69.817C474.325,293.818,454.888,279.682,437.737,267.206z"/>
		</g>
	</g>
</g>
</svg>
